{
copyright = "Copyright (c) 2015, Cadson Demak (info@cadsondemak.com)";
customParameters = (
{
name = vendorID;
value = CDK;
},
{
name = description;
value = "Copyright (c) 2015, Cadson Demak (info@cadsondemak.com)";
},
{
name = license;

glyphs = (
{
glyphname = A;
lastChange = "2015-12-01 12:25:41 +0000";
layers = (
{
layerId = "55173EE3-C87E-4AFC-850A-D9B4D5493314";
name = "Bold Italic";
paths = (
{
closed = 1;
nodes = (
"197 0 LINE",
"204 37 LINE",
"183 37 LINE SMOOTH",
"164 37 OFFCURVE",
"147 45 OFFCURVE",
"147 63 CURVE SMOOTH",
"147 69 OFFCURVE",
"150 78 OFFCURVE",
"155 87 CURVE SMOOTH",
"416 550 LINE",
"483 96 LINE SMOOTH",
"484 89 OFFCURVE",
"485 83 OFFCURVE",
"485 77 CURVE SMOOTH",
"485 50 OFFCURVE",
"472 37 OFFCURVE",
"438 37 CURVE SMOOTH",
"419 37 LINE",
"412 0 LINE",
"706 0 LINE",
"712 37 LINE",
"692 37 LINE SMOOTH",
"671 37 OFFCURVE",
"650 47 OFFCURVE",
"646 72 CURVE SMOOTH",
"531 721 LINE",
"413 680 LINE",
"60 74 LINE SMOOTH",
"46 49 OFFCURVE",
"12 37 OFFCURVE",
"-12 37 CURVE SMOOTH",
"-28 37 LINE",
"-35 0 LINE"
);
},
{
closed = 1;
nodes = (
"511 192 LINE",
"522 246 LINE",
"201 246 LINE",
"189 192 LINE"
);
}
);
width = 749;
}
);
leftKerningGroup = A;
note = A;
rightKerningGroup = A;
unicode = 0041;
},
{
glyphname = Aacute;
lastChange = "2015-12-01 12:25:41 +0000";
layers = (
{
layerId = "55173EE3-C87E-4AFC-850A-D9B4D5493314";
name = "Bold Italic";
paths = (
{
closed = 1;
nodes = (
"197 0 LINE",
"204 37 LINE",
"183 37 LINE SMOOTH",
"164 37 OFFCURVE",
"147 45 OFFCURVE",
"147 63 CURVE SMOOTH",
"147 69 OFFCURVE",
"150 78 OFFCURVE",
"155 87 CURVE SMOOTH",
"416 550 LINE",
"483 96 LINE SMOOTH",
"484 89 OFFCURVE",
"485 83 OFFCURVE",
"485 77 CURVE SMOOTH",
"485 50 OFFCURVE",
"472 37 OFFCURVE",
"438 37 CURVE SMOOTH",
"419 37 LINE",
"412 0 LINE",
"706 0 LINE",
"712 37 LINE",
"692 37 LINE SMOOTH",
"671 37 OFFCURVE",
"650 47 OFFCURVE",
"646 72 CURVE SMOOTH",
"531 721 LINE",
"413 680 LINE",
"60 74 LINE SMOOTH",
"46 49 OFFCURVE",
"12 37 OFFCURVE",
"-12 37 CURVE SMOOTH",
"-28 37 LINE",
"-35 0 LINE"
);
},
{
closed = 1;
nodes = (
"511 192 LINE",
"522 246 LINE",
"201 246 LINE",
"189 192 LINE"
);
},
{
closed = 1;
nodes = (
"580 869 LINE SMOOTH",
"616 889 OFFCURVE",
"638 910 OFFCURVE",
"638 937 CURVE SMOOTH",
"638 955 OFFCURVE",
"628 971 OFFCURVE",
"600 971 CURVE SMOOTH",
"570 971 OFFCURVE",
"543 946 OFFCURVE",
"535 938 CURVE SMOOTH",
"393 815 LINE",
"411 777 LINE"
);
}
);
width = 749;
}
);
leftKerningGroup = A;
note = Aacute;
rightKerningGroup = A;
unicode = 00C1;
},
{
glyphname = Abreve;
lastChange = "2015-12-01 12:25:40 +0000";
layers = (
{
layerId = "55173EE3-C87E-4AFC-850A-D9B4D5493314";
name = "Bold Italic";
paths = (
{
closed = 1;
nodes = (
"197 0 LINE",
"204 37 LINE",
"183 37 LINE SMOOTH",
"164 37 OFFCURVE",
"147 45 OFFCURVE",
"147 63 CURVE SMOOTH",
"147 69 OFFCURVE",
"150 78 OFFCURVE",
"155 87 CURVE SMOOTH",
"416 550 LINE",
"483 96 LINE SMOOTH",
"484 89 OFFCURVE",
"485 83 OFFCURVE",
"485 77 CURVE SMOOTH",
"485 50 OFFCURVE",
"472 37 OFFCURVE",
"438 37 CURVE SMOOTH",
"419 37 LINE",
"412 0 LINE",
"706 0 LINE",
"712 37 LINE",
"692 37 LINE SMOOTH",
"671 37 OFFCURVE",
"650 47 OFFCURVE",
"646 72 CURVE SMOOTH",
"531 721 LINE",
"413 680 LINE",
"60 74 LINE SMOOTH",
"46 49 OFFCURVE",
"12 37 OFFCURVE",
"-12 37 CURVE SMOOTH",
"-28 37 LINE",
"-35 0 LINE"
);
},
{
closed = 1;
nodes = (
"511 192 LINE",
"522 246 LINE",
"201 246 LINE",
"189 192 LINE"
);
},
{
closed = 1;
nodes = (
"612 776 OFFCURVE",
"660 849 OFFCURVE",
"677 922 CURVE",
"638 922 LINE",
"626 880 OFFCURVE",
"588 841 OFFCURVE",
"507 841 CURVE SMOOTH",
"425 841 OFFCURVE",
"403 880 OFFCURVE",
"407 922 CURVE",
"371 922 LINE",
"368 908 OFFCURVE",
"367 894 OFFCURVE",
"367 880 CURVE SMOOTH",
"367 822 OFFCURVE",
"397 776 OFFCURVE",
"494 776 CURVE SMOOTH"
);
}
);
width = 749;
}
);
leftKerningGroup = A;
note = Abreve;
rightKerningGroup = A;
unicode = 0102;
},
{
glyphname = Abreveacute;
lastChange = "2015-12-01 12:25:41 +0000";
layers = (
{
layerId = "55173EE3-C87E-4AFC-850A-D9B4D5493314";
name = "Bold Italic";
paths = (
{
closed = 1;
nodes = (
"197 0 LINE",
"204 37 LINE",
"183 37 LINE SMOOTH",
"164 37 OFFCURVE",
"147 45 OFFCURVE",
"147 63 CURVE SMOOTH",
"147 69 OFFCURVE",
"150 78 OFFCURVE",
"155 87 CURVE SMOOTH",
"416 550 LINE",
"483 96 LINE SMOOTH",
"484 89 OFFCURVE",
"485 83 OFFCURVE",
"485 77 CURVE SMOOTH",
"485 50 OFFCURVE",
"472 37 OFFCURVE",
"438 37 CURVE SMOOTH",
"419 37 LINE",
"412 0 LINE",
"706 0 LINE",
"712 37 LINE",
"692 37 LINE SMOOTH",
"671 37 OFFCURVE",
"650 47 OFFCURVE",
"646 72 CURVE SMOOTH",
"531 721 LINE",
"413 680 LINE",
"60 74 LINE SMOOTH",
"46 49 OFFCURVE",
"12 37 OFFCURVE",
"-12 37 CURVE SMOOTH",
"-28 37 LINE",
"-35 0 LINE"
);
},
{
closed = 1;
nodes = (
"511 192 LINE",
"522 246 LINE",
"201 246 LINE",
"189 192 LINE"
);
},
{
closed = 1;
nodes = (
"613 777 OFFCURVE",
"659 849 OFFCURVE",
"675 922 CURVE",
"638 922 LINE",
"627 881 OFFCURVE",
"588 841 OFFCURVE",
"507 841 CURVE SMOOTH",
"424 841 OFFCURVE",
"403 881 OFFCURVE",
"407 922 CURVE",
"370 922 LINE",
"367 908 OFFCURVE",
"366 894 OFFCURVE",
"366 881 CURVE SMOOTH",
"366 822 OFFCURVE",
"396 777 OFFCURVE",
"494 777 CURVE SMOOTH"
);
},
{
closed = 1;
nodes = (
"631 971 LINE SMOOTH",
"667 989 OFFCURVE",
"696 1014 OFFCURVE",
"696 1040 CURVE SMOOTH",
"696 1058 OFFCURVE",
"684 1077 OFFCURVE",
"657 1077 CURVE SMOOTH",
"630 1077 OFFCURVE",
"603 1053 OFFCURVE",
"588 1038 CURVE SMOOTH",
"488 944 LINE",
"505 911 LINE"
);
}
);
width = 749;
}
);
leftKerningGroup = A;
note = Abreveacute;
rightKerningGroup = A;
unicode = 1EAE;
},
{
glyphname = Abrevedotbelow;
lastChange = "2015-12-01 12:25:41 +0000";
layers = (
{
layerId = "55173EE3-C87E-4AFC-850A-D9B4D5493314";
name = "Bold Italic";
paths = (
{
closed = 1;
nodes = (
"197 0 LINE",
"204 37 LINE",
"183 37 LINE SMOOTH",
"164 37 OFFCURVE",
"147 45 OFFCURVE",
"147 63 CURVE SMOOTH",
"147 69 OFFCURVE",
"150 78 OFFCURVE",
"155 87 CURVE SMOOTH",
"416 550 LINE",
"483 96 LINE SMOOTH",
"484 89 OFFCURVE",
"485 83 OFFCURVE",
"485 77 CURVE SMOOTH",
"485 50 OFFCURVE",
"472 37 OFFCURVE",
"438 37 CURVE SMOOTH",
"419 37 LINE",
"412 0 LINE",
"706 0 LINE",
"712 37 LINE",
"692 37 LINE SMOOTH",
"671 37 OFFCURVE",
"650 47 OFFCURVE",
"646 72 CURVE SMOOTH",
"531 721 LINE",
"413 680 LINE",
"60 74 LINE SMOOTH",
"46 49 OFFCURVE",
"12 37 OFFCURVE",
"-12 37 CURVE SMOOTH",
"-28 37 LINE",
"-35 0 LINE"
);
},
{
closed = 1;
nodes = (
"332 -188 OFFCURVE",
"360 -161 OFFCURVE",
"368 -127 CURVE SMOOTH",
"369 -122 OFFCURVE",
"369 -118 OFFCURVE",
"369 -114 CURVE SMOOTH",
"369 -85 OFFCURVE",
"352 -64 OFFCURVE",
"322 -64 CURVE SMOOTH",
"280 -64 OFFCURVE",
"248 -101 OFFCURVE",
"248 -142 CURVE SMOOTH",
"248 -169 OFFCURVE",
"266 -188 OFFCURVE",
"297 -188 CURVE SMOOTH"
);
},
{
closed = 1;
nodes = (
"511 192 LINE",
"522 246 LINE",
"201 246 LINE",
"189 192 LINE"
);
},
{
closed = 1;
nodes = (
"612 776 OFFCURVE",
"659 849 OFFCURVE",
"676 922 CURVE",
"637 922 LINE",
"625 880 OFFCURVE",
"588 841 OFFCURVE",
"506 841 CURVE SMOOTH",
"424 841 OFFCURVE",
"402 880 OFFCURVE",
"406 922 CURVE",
"370 922 LINE",
"367 908 OFFCURVE",
"366 894 OFFCURVE",
"366 880 CURVE SMOOTH",
"366 822 OFFCURVE",
"396 776 OFFCURVE",
"493 776 CURVE SMOOTH"
);
}
);
width = 749;
}
);
leftKerningGroup = A;
note = Abrevedotbelow;
rightKerningGroup = A;
unicode = 1EB6;
},
{
glyphname = Abrevegrave;
lastChange = "2015-12-01 12:25:42 +0000";
layers = (
{
layerId = "55173EE3-C87E-4AFC-850A-D9B4D5493314";
name = "Bold Italic";
paths = (
{
closed = 1;
nodes = (
"197 0 LINE",
"204 37 LINE",
"183 37 LINE SMOOTH",
"164 37 OFFCURVE",
"147 45 OFFCURVE",
"147 63 CURVE SMOOTH",
"147 69 OFFCURVE",
"150 78 OFFCURVE",
"155 87 CURVE SMOOTH",
"416 550 LINE",
"483 96 LINE SMOOTH",
"484 89 OFFCURVE",
"485 83 OFFCURVE",
"485 77 CURVE SMOOTH",
"485 50 OFFCURVE",
"472 37 OFFCURVE",
"438 37 CURVE SMOOTH",
"419 37 LINE",
"412 0 LINE",
"706 0 LINE",
"712 37 LINE",
"692 37 LINE SMOOTH",
"671 37 OFFCURVE",
"650 47 OFFCURVE",
"646 72 CURVE SMOOTH",
"531 721 LINE",
"413 680 LINE",
"60 74 LINE SMOOTH",
"46 49 OFFCURVE",
"12 37 OFFCURVE",
"-12 37 CURVE SMOOTH",
"-28 37 LINE",
"-35 0 LINE"
);
},
{
closed = 1;
nodes = (
"511 192 LINE",
"522 246 LINE",
"201 246 LINE",
"189 192 LINE"
);
},
{
closed = 1;
nodes = (
"613 777 OFFCURVE",
"659 849 OFFCURVE",
"675 922 CURVE",
"638 922 LINE",
"627 881 OFFCURVE",
"588 841 OFFCURVE",
"507 841 CURVE SMOOTH",
"424 841 OFFCURVE",
"403 881 OFFCURVE",
"407 922 CURVE",
"370 922 LINE",
"367 908 OFFCURVE",
"366 894 OFFCURVE",
"366 881 CURVE SMOOTH",
"366 822 OFFCURVE",
"396 777 OFFCURVE",
"494 777 CURVE SMOOTH"
);
},
{
closed = 1;
nodes = (
"565 942 LINE",
"500 1038 LINE SMOOTH",
"491 1053 OFFCURVE",
"475 1077 OFFCURVE",
"448 1077 CURVE SMOOTH",
"415 1077 OFFCURVE",
"396 1050 OFFCURVE",
"393 1031 CURVE SMOOTH",
"392 1028 OFFCURVE",
"392 1025 OFFCURVE",
"392 1023 CURVE SMOOTH",
"392 1004 OFFCURVE",
"407 986 OFFCURVE",
"431 971 CURVE SMOOTH",
"534 909 LINE"
);
}
);
width = 749;
}
);
leftKerningGroup = A;
note = Abrevegrave;
rightKerningGroup = A;
unicode = 1EB0;
},
{
glyphname = Abrevehookabove;
lastChange = "2015-12-01 12:25:41 +0000";
layers = (
{
layerId = "55173EE3-C87E-4AFC-850A-D9B4D5493314";
name = "Bold Italic";
paths = (
{
closed = 1;
nodes = (
"197 0 LINE",
"204 37 LINE",
"183 37 LINE SMOOTH",
"164 37 OFFCURVE",
"147 45 OFFCURVE",
"147 63 CURVE SMOOTH",
"147 69 OFFCURVE",
"150 78 OFFCURVE",
"155 87 CURVE SMOOTH",
"416 550 LINE",
"483 96 LINE SMOOTH",
"484 89 OFFCURVE",
"485 83 OFFCURVE",
"485 77 CURVE SMOOTH",
"485 50 OFFCURVE",
"472 37 OFFCURVE",
"438 37 CURVE SMOOTH",
"419 37 LINE",
"412 0 LINE",
"706 0 LINE",
"712 37 LINE",
"692 37 LINE SMOOTH",
"671 37 OFFCURVE",
"650 47 OFFCURVE",
"646 72 CURVE SMOOTH",
"531 721 LINE",
"413 680 LINE",
"60 74 LINE SMOOTH",
"46 49 OFFCURVE",
"12 37 OFFCURVE",
"-12 37 CURVE SMOOTH",
"-28 37 LINE",
"-35 0 LINE"
);
},
{
closed = 1;
nodes = (
"511 192 LINE",
"522 246 LINE",
"201 246 LINE",
"189 192 LINE"
);
},
{
closed = 1;
nodes = (
"613 777 OFFCURVE",
"659 849 OFFCURVE",
"675 922 CURVE",
"638 922 LINE",
"627 881 OFFCURVE",
"588 841 OFFCURVE",
"507 841 CURVE SMOOTH",
"424 841 OFFCURVE",
"403 881 OFFCURVE",
"407 922 CURVE",
"370 922 LINE",
"367 908 OFFCURVE",
"366 894 OFFCURVE",
"366 881 CURVE SMOOTH",
"366 822 OFFCURVE",
"396 777 OFFCURVE",
"494 777 CURVE SMOOTH"
);
},
{
closed = 1;
nodes = (
"564 926 LINE",
"549 931 OFFCURVE",
"539 933 OFFCURVE",
"542 952 CURVE SMOOTH",
"549 989 OFFCURVE",
"650 997 OFFCURVE",
"650 1059 CURVE SMOOTH",
"650 1093 OFFCURVE",
"612 1109 OFFCURVE",
"569 1109 CURVE SMOOTH",
"516 1109 OFFCURVE",
"473 1084 OFFCURVE",
"473 1054 CURVE SMOOTH",
"473 1041 OFFCURVE",
"484 1034 OFFCURVE",
"494 1034 CURVE SMOOTH",
"509 1034 OFFCURVE",
"519 1043 OFFCURVE",
"525 1055 CURVE",
"532 1072 OFFCURVE",
"547 1083 OFFCURVE",
"567 1083 CURVE SMOOTH",
"587 1083 OFFCURVE",
"592 1068 OFFCURVE",
"589 1054 CURVE SMOOTH",
"578 1003 OFFCURVE",
"491 995 OFFCURVE",
"491 944 CURVE SMOOTH",
"491 921 OFFCURVE",
"511 905 OFFCURVE",
"551 905 CURVE"
);
}
);
width = 749;
}
);
leftKerningGroup = A;
note = Abrevehookabove;
rightKerningGroup = A;
unicode = 1EB2;
},
{
glyphname = Abrevetilde;
lastChange = "2015-12-01 12:25:40 +0000";
layers = (
{
layerId = "55173EE3-C87E-4AFC-850A-D9B4D5493314";
name = "Bold Italic";
paths = (
{
closed = 1;
nodes = (
"197 0 LINE",
"204 37 LINE",
"183 37 LINE SMOOTH",
"164 37 OFFCURVE",
"147 45 OFFCURVE",
"147 63 CURVE SMOOTH",
"147 69 OFFCURVE",
"150 78 OFFCURVE",
"155 87 CURVE SMOOTH",
"416 550 LINE",
"483 96 LINE SMOOTH",
"484 89 OFFCURVE",
"485 83 OFFCURVE",
"485 77 CURVE SMOOTH",
"485 50 OFFCURVE",
"472 37 OFFCURVE",
"438 37 CURVE SMOOTH",
"419 37 LINE",
"412 0 LINE",
"706 0 LINE",
"712 37 LINE",
"692 37 LINE SMOOTH",
"671 37 OFFCURVE",
"650 47 OFFCURVE",
"646 72 CURVE SMOOTH",
"531 721 LINE",
"413 680 LINE",
"60 74 LINE SMOOTH",
"46 49 OFFCURVE",
"12 37 OFFCURVE",
"-12 37 CURVE SMOOTH",
"-28 37 LINE",
"-35 0 LINE"
);
},
{
closed = 1;
nodes = (
"511 192 LINE",
"522 246 LINE",
"201 246 LINE",
"189 192 LINE"
);
},
{
closed = 1;
nodes = (
"613 777 OFFCURVE",
"659 849 OFFCURVE",
"675 922 CURVE",
"638 922 LINE",
"627 881 OFFCURVE",
"588 841 OFFCURVE",
"507 841 CURVE SMOOTH",
"424 841 OFFCURVE",
"403 881 OFFCURVE",
"407 922 CURVE",
"370 922 LINE",
"367 908 OFFCURVE",
"366 894 OFFCURVE",
"366 881 CURVE SMOOTH",
"366 822 OFFCURVE",
"396 777 OFFCURVE",
"494 777 CURVE SMOOTH"
);
},
{
closed = 1;
nodes = (
"409 1016 OFFCURVE",
"428 1034 OFFCURVE",
"459 1034 CURVE SMOOTH",
"509 1034 OFFCURVE",
"545 985 OFFCURVE",
"594 985 CURVE SMOOTH",
"653 985 OFFCURVE",
"695 1051 OFFCURVE",
"718 1099 CURVE",
"697 1114 LINE",
"674 1074 OFFCURVE",
"657 1054 OFFCURVE",
"626 1054 CURVE SMOOTH",
"577 1054 OFFCURVE",
"540 1103 OFFCURVE",
"490 1103 CURVE SMOOTH",
"431 1103 OFFCURVE",
"388 1039 OFFCURVE",
"366 991 CURVE",
"386 976 LINE"
);
}
);
width = 749;
}
);
leftKerningGroup = A;
note = Abrevetilde;
rightKerningGroup = A;
unicode = 1EB4;
},
{
glyphname = Acaron;
lastChange = "2015-12-01 12:25:39 +0000";
layers = (
{
layerId = "55173EE3-C87E-4AFC-850A-D9B4D5493314";
name = "Bold Italic";
paths = (
{
closed = 1;
nodes = (
"197 0 LINE",
"204 37 LINE",
"183 37 LINE SMOOTH",
"164 37 OFFCURVE",
"147 45 OFFCURVE",
"147 63 CURVE SMOOTH",
"147 69 OFFCURVE",
"150 78 OFFCURVE",
"155 87 CURVE SMOOTH",
"416 550 LINE",
"483 96 LINE SMOOTH",
"484 89 OFFCURVE",
"485 83 OFFCURVE",
"485 77 CURVE SMOOTH",
"485 50 OFFCURVE",
"472 37 OFFCURVE",
"438 37 CURVE SMOOTH",
"419 37 LINE",
"412 0 LINE",
"706 0 LINE",
"712 37 LINE",
"692 37 LINE SMOOTH",
"671 37 OFFCURVE",
"650 47 OFFCURVE",
"646 72 CURVE SMOOTH",
"531 721 LINE",
"413 680 LINE",
"60 74 LINE SMOOTH",
"46 49 OFFCURVE",
"12 37 OFFCURVE",
"-12 37 CURVE SMOOTH",
"-28 37 LINE",
"-35 0 LINE"
);
},
{
closed = 1;
nodes = (
"511 192 LINE",
"522 246 LINE",
"201 246 LINE",
"189 192 LINE"
);
},
{
closed = 1;
nodes = (
"531 778 LINE",
"702 935 LINE",
"684 961 LINE",
"545 866 LINE SMOOTH",
"532 857 OFFCURVE",
"518 850 OFFCURVE",
"510 850 CURVE SMOOTH",
"501 850 OFFCURVE",
"492 857 OFFCURVE",
"481 866 CURVE",
"380 961 LINE",
"352 935 LINE",
"459 778 LINE"
);
}
);
width = 749;
}
);
leftKerningGroup = A;
note = Acaron;
rightKerningGroup = A;
unicode = 01CD;
},
{
glyphname = Acircumflex;
lastChange = "2015-12-01 12:25:41 +0000";
layers = (
{
layerId = "55173EE3-C87E-4AFC-850A-D9B4D5493314";
name = "Bold Italic";
paths = (
{
closed = 1;
nodes = (
"197 0 LINE",
"204 37 LINE",
"183 37 LINE SMOOTH",
"164 37 OFFCURVE",
"147 45 OFFCURVE",
"147 63 CURVE SMOOTH",
"147 69 OFFCURVE",
"150 78 OFFCURVE",
"155 87 CURVE SMOOTH",
"416 550 LINE",
"483 96 LINE SMOOTH",
"484 89 OFFCURVE",
"485 83 OFFCURVE",
"485 77 CURVE SMOOTH",
"485 50 OFFCURVE",
"472 37 OFFCURVE",
"438 37 CURVE SMOOTH",
"419 37 LINE",
"412 0 LINE",
"706 0 LINE",
"712 37 LINE",
"692 37 LINE SMOOTH",
"671 37 OFFCURVE",
"650 47 OFFCURVE",
"646 72 CURVE SMOOTH",
"531 721 LINE",
"413 680 LINE",
"60 74 LINE SMOOTH",
"46 49 OFFCURVE",
"12 37 OFFCURVE",
"-12 37 CURVE SMOOTH",
"-28 37 LINE",
"-35 0 LINE"
);
},
{
closed = 1;
nodes = (
"511 192 LINE",
"522 246 LINE",
"201 246 LINE",
"189 192 LINE"
);
},
{
closed = 1;
nodes = (
"482 873 LINE SMOOTH",
"495 882 OFFCURVE",
"510 889 OFFCURVE",
"518 889 CURVE SMOOTH",
"527 889 OFFCURVE",
"537 882 OFFCURVE",
"546 873 CURVE SMOOTH",
"647 778 LINE",
"675 804 LINE",
"568 961 LINE",
"496 961 LINE",
"325 804 LINE",
"344 778 LINE"
);
}
);
width = 749;
}
);
leftKerningGroup = A;
note = Acircumflex;
rightKerningGroup = A;
unicode = 00C2;
},
{
glyphname = Acircumflexacute;
lastChange = "2015-12-01 12:25:41 +0000";
layers = (
{
layerId = "55173EE3-C87E-4AFC-850A-D9B4D5493314";
name = "Bold Italic";
paths = (
{
closed = 1;
nodes = (
"197 0 LINE",
"204 37 LINE",
"183 37 LINE SMOOTH",
"164 37 OFFCURVE",
"147 45 OFFCURVE",
"147 63 CURVE SMOOTH",
"147 69 OFFCURVE",
"150 78 OFFCURVE",
"155 87 CURVE SMOOTH",
"416 550 LINE",
"483 96 LINE SMOOTH",
"484 89 OFFCURVE",
"485 83 OFFCURVE",
"485 77 CURVE SMOOTH",
"485 50 OFFCURVE",
"472 37 OFFCURVE",
"438 37 CURVE SMOOTH",
"419 37 LINE",
"412 0 LINE",
"706 0 LINE",
"712 37 LINE",
"692 37 LINE SMOOTH",
"671 37 OFFCURVE",
"650 47 OFFCURVE",
"646 72 CURVE SMOOTH",
"531 721 LINE",
"413 680 LINE",
"60 74 LINE SMOOTH",
"46 49 OFFCURVE",
"12 37 OFFCURVE",
"-12 37 CURVE SMOOTH",
"-28 37 LINE",
"-35 0 LINE"
);
},
{
closed = 1;
nodes = (
"511 192 LINE",
"522 246 LINE",
"201 246 LINE",
"189 192 LINE"
);
},
{
closed = 1;
nodes = (
"481 867 LINE SMOOTH",
"496 878 OFFCURVE",
"511 888 OFFCURVE",
"520 888 CURVE SMOOTH",
"529 888 OFFCURVE",
"540 880 OFFCURVE",
"549 871 CURVE SMOOTH",
"645 777 LINE",
"672 803 LINE",
"571 960 LINE",
"500 960 LINE",
"334 803 LINE",
"350 777 LINE"
);
},
{
closed = 1;
nodes = (
"778 966 LINE SMOOTH",
"815 984 OFFCURVE",
"844 1009 OFFCURVE",
"844 1035 CURVE SMOOTH",
"844 1053 OFFCURVE",
"832 1072 OFFCURVE",
"804 1072 CURVE SMOOTH",
"777 1072 OFFCURVE",
"750 1048 OFFCURVE",
"734 1033 CURVE SMOOTH",
"636 939 LINE",
"652 906 LINE"
);
}
);
width = 749;
}
);
leftKerningGroup = A;
note = Acircumflexacute;
rightKerningGroup = A;
unicode = 1EA4;
},
{
glyphname = Acircumflexdotbelow;
lastChange = "2015-12-01 12:25:41 +0000";
layers = (
{
layerId = "55173EE3-C87E-4AFC-850A-D9B4D5493314";
name = "Bold Italic";
paths = (
{
closed = 1;
nodes = (
"197 0 LINE",
"204 37 LINE",
"183 37 LINE SMOOTH",
"164 37 OFFCURVE",
"147 45 OFFCURVE",
"147 63 CURVE SMOOTH",
"147 69 OFFCURVE",
"150 78 OFFCURVE",
"155 87 CURVE SMOOTH",
"416 550 LINE",
"483 96 LINE SMOOTH",
"484 89 OFFCURVE",
"485 83 OFFCURVE",
"485 77 CURVE SMOOTH",
"485 50 OFFCURVE",
"472 37 OFFCURVE",
"438 37 CURVE SMOOTH",
"419 37 LINE",
"412 0 LINE",
"706 0 LINE",
"712 37 LINE",
"692 37 LINE SMOOTH",
"671 37 OFFCURVE",
"650 47 OFFCURVE",
"646 72 CURVE SMOOTH",
"531 721 LINE",
"413 680 LINE",
"60 74 LINE SMOOTH",
"46 49 OFFCURVE",
"12 37 OFFCURVE",
"-12 37 CURVE SMOOTH",
"-28 37 LINE",
"-35 0 LINE"
);
},
{
closed = 1;
nodes = (
"344 -188 OFFCURVE",
"376 -153 OFFCURVE",
"376 -112 CURVE SMOOTH",
"376 -84 OFFCURVE",
"359 -64 OFFCURVE",
"328 -64 CURVE SMOOTH",
"287 -64 OFFCURVE",
"255 -100 OFFCURVE",
"255 -141 CURVE SMOOTH",
"255 -168 OFFCURVE",
"272 -188 OFFCURVE",
"303 -188 CURVE SMOOTH"
);
},
{
closed = 1;
nodes = (
"511 192 LINE",
"522 246 LINE",
"201 246 LINE",
"189 192 LINE"
);
},
{
closed = 1;
nodes = (
"483 872 LINE SMOOTH",
"496 881 OFFCURVE",
"511 888 OFFCURVE",
"519 888 CURVE SMOOTH",
"528 888 OFFCURVE",
"538 881 OFFCURVE",
"547 872 CURVE SMOOTH",
"648 777 LINE",
"676 803 LINE",
"569 960 LINE",
"497 960 LINE",
"326 803 LINE",
"345 777 LINE"
);
}
);
width = 749;
}
);
leftKerningGroup = A;
note = Acircumflexdotbelow;
rightKerningGroup = A;
unicode = 1EAC;
},
{
glyphname = Acircumflexgrave;
lastChange = "2015-12-01 12:25:39 +0000";
layers = (
{
layerId = "55173EE3-C87E-4AFC-850A-D9B4D5493314";
name = "Bold Italic";
paths = (
{
closed = 1;
nodes = (
"197 0 LINE",
"204 37 LINE",
"183 37 LINE SMOOTH",
"164 37 OFFCURVE",
"147 45 OFFCURVE",
"147 63 CURVE SMOOTH",
"147 69 OFFCURVE",
"150 78 OFFCURVE",
"155 87 CURVE SMOOTH",
"416 550 LINE",
"483 96 LINE SMOOTH",
"484 89 OFFCURVE",
"485 83 OFFCURVE",
"485 77 CURVE SMOOTH",
"485 50 OFFCURVE",
"472 37 OFFCURVE",
"438 37 CURVE SMOOTH",
"419 37 LINE",
"412 0 LINE",
"706 0 LINE",
"712 37 LINE",
"692 37 LINE SMOOTH",
"671 37 OFFCURVE",
"650 47 OFFCURVE",
"646 72 CURVE SMOOTH",
"531 721 LINE",
"413 680 LINE",
"60 74 LINE SMOOTH",
"46 49 OFFCURVE",
"12 37 OFFCURVE",
"-12 37 CURVE SMOOTH",
"-28 37 LINE",
"-35 0 LINE"
);
},
{
closed = 1;
nodes = (
"511 192 LINE",
"522 246 LINE",
"201 246 LINE",
"189 192 LINE"
);
},
{
closed = 1;
nodes = (
"429 939 LINE",
"366 1035 LINE SMOOTH",
"357 1049 OFFCURVE",
"341 1073 OFFCURVE",
"314 1073 CURVE SMOOTH",
"274 1073 OFFCURVE",
"256 1036 OFFCURVE",
"256 1020 CURVE SMOOTH",
"256 1000 OFFCURVE",
"271 982 OFFCURVE",
"296 968 CURVE SMOOTH",
"398 906 LINE"
);
},
{
closed = 1;
nodes = (
"481 867 LINE SMOOTH",
"496 878 OFFCURVE",
"511 888 OFFCURVE",
"520 888 CURVE SMOOTH",
"529 888 OFFCURVE",
"540 880 OFFCURVE",
"549 871 CURVE SMOOTH",
"645 777 LINE",
"672 803 LINE",
"571 960 LINE",
"500 960 LINE",
"334 803 LINE",
"350 777 LINE"
);
}
);
width = 749;
}
);
leftKerningGroup = A;
note = Acircumflexgrave;
rightKerningGroup = A;
unicode = 1EA6;
},
{
glyphname = Acircumflexhookabove;
lastChange = "2015-12-01 12:25:39 +0000";
layers = (
{
layerId = "55173EE3-C87E-4AFC-850A-D9B4D5493314";
name = "Bold Italic";
paths = (
{
closed = 1;
nodes = (
"197 0 LINE",
"204 37 LINE",
"183 37 LINE SMOOTH",
"164 37 OFFCURVE",
"147 45 OFFCURVE",
"147 63 CURVE SMOOTH",
"147 69 OFFCURVE",
"150 78 OFFCURVE",
"155 87 CURVE SMOOTH",
"416 550 LINE",
"483 96 LINE SMOOTH",
"484 89 OFFCURVE",
"485 83 OFFCURVE",
"485 77 CURVE SMOOTH",
"485 50 OFFCURVE",
"472 37 OFFCURVE",
"438 37 CURVE SMOOTH",
"419 37 LINE",
"412 0 LINE",
"706 0 LINE",
"712 37 LINE",
"692 37 LINE SMOOTH",
"671 37 OFFCURVE",
"650 47 OFFCURVE",
"646 72 CURVE SMOOTH",
"531 721 LINE",
"413 680 LINE",
"60 74 LINE SMOOTH",
"46 49 OFFCURVE",
"12 37 OFFCURVE",
"-12 37 CURVE SMOOTH",
"-28 37 LINE",
"-35 0 LINE"
);
},
{
closed = 1;
nodes = (
"511 192 LINE",
"522 246 LINE",
"201 246 LINE",
"189 192 LINE"
);
},
{
closed = 1;
nodes = (
"481 867 LINE SMOOTH",
"496 878 OFFCURVE",
"511 888 OFFCURVE",
"520 888 CURVE SMOOTH",
"529 888 OFFCURVE",
"540 880 OFFCURVE",
"549 871 CURVE SMOOTH",
"645 777 LINE",
"672 803 LINE",
"571 960 LINE",
"500 960 LINE",
"334 803 LINE",
"350 777 LINE"
);
},
{
closed = 1;
nodes = (
"714 921 LINE",
"702 925 OFFCURVE",
"692 928 OFFCURVE",
"692 940 CURVE SMOOTH",
"692 942 OFFCURVE",
"692 944 OFFCURVE",
"693 947 CURVE SMOOTH",
"700 984 OFFCURVE",
"802 992 OFFCURVE",
"802 1054 CURVE SMOOTH",
"802 1088 OFFCURVE",
"763 1104 OFFCURVE",
"720 1104 CURVE SMOOTH",
"667 1104 OFFCURVE",
"625 1080 OFFCURVE",
"625 1050 CURVE SMOOTH",
"625 1036 OFFCURVE",
"635 1029 OFFCURVE",
"645 1029 CURVE SMOOTH",
"679 1029 OFFCURVE",
"675 1078 OFFCURVE",
"718 1078 CURVE SMOOTH",
"737 1078 OFFCURVE",
"743 1063 OFFCURVE",
"740 1049 CURVE SMOOTH",
"729 998 OFFCURVE",
"642 990 OFFCURVE",
"642 939 CURVE SMOOTH",
"642 916 OFFCURVE",
"662 900 OFFCURVE",
"702 900 CURVE"
);
}
);
width = 749;
}
);
leftKerningGroup = A;
note = Acircumflexhookabove;
rightKerningGroup = A;
unicode = 1EA8;
},
{
glyphname = Acircumflextilde;
lastChange = "2015-12-01 12:25:41 +0000";
layers = (
{
layerId = "55173EE3-C87E-4AFC-850A-D9B4D5493314";
name = "Bold Italic";
paths = (
{
closed = 1;
nodes = (
"197 0 LINE",
"204 37 LINE",
"183 37 LINE SMOOTH",
"164 37 OFFCURVE",
"147 45 OFFCURVE",
"147 63 CURVE SMOOTH",
"147 69 OFFCURVE",
"150 78 OFFCURVE",
"155 87 CURVE SMOOTH",
"416 550 LINE",
"483 96 LINE SMOOTH",
"484 89 OFFCURVE",
"485 83 OFFCURVE",
"485 77 CURVE SMOOTH",
"485 50 OFFCURVE",
"472 37 OFFCURVE",
"438 37 CURVE SMOOTH",
"419 37 LINE",
"412 0 LINE",
"706 0 LINE",
"712 37 LINE",
"692 37 LINE SMOOTH",
"671 37 OFFCURVE",
"650 47 OFFCURVE",
"646 72 CURVE SMOOTH",
"531 721 LINE",
"413 680 LINE",
"60 74 LINE SMOOTH",
"46 49 OFFCURVE",
"12 37 OFFCURVE",
"-12 37 CURVE SMOOTH",
"-28 37 LINE",
"-35 0 LINE"
);
},
{
closed = 1;
nodes = (
"511 192 LINE",
"522 246 LINE",
"201 246 LINE",
"189 192 LINE"
);
},
{
closed = 1;
nodes = (
"481 867 LINE SMOOTH",
"496 878 OFFCURVE",
"511 888 OFFCURVE",
"520 888 CURVE SMOOTH",
"529 888 OFFCURVE",
"540 880 OFFCURVE",
"549 871 CURVE SMOOTH",
"645 777 LINE",
"672 803 LINE",
"571 960 LINE",
"500 960 LINE",
"334 803 LINE",
"350 777 LINE"
);
},
{
closed = 1;
nodes = (
"416 1019 OFFCURVE",
"435 1038 OFFCURVE",
"467 1038 CURVE SMOOTH",
"519 1038 OFFCURVE",
"558 989 OFFCURVE",
"609 989 CURVE SMOOTH",
"670 989 OFFCURVE",
"713 1055 OFFCURVE",
"737 1102 CURVE",
"715 1118 LINE",
"690 1077 OFFCURVE",
"672 1058 OFFCURVE",
"640 1058 CURVE SMOOTH",
"589 1058 OFFCURVE",
"550 1106 OFFCURVE",
"499 1106 CURVE SMOOTH",
"438 1106 OFFCURVE",
"394 1043 OFFCURVE",
"371 995 CURVE",
"392 980 LINE"
);
}
);
width = 749;
}
);
leftKerningGroup = A;
note = Acircumflextilde;
rightKerningGroup = A;
unicode = 1EAA;
},
{
glyphname = Adieresis;
lastChange = "2015-12-01 12:25:40 +0000";
layers = (
{
layerId = "55173EE3-C87E-4AFC-850A-D9B4D5493314";
name = "Bold Italic";
paths = (
{
closed = 1;
nodes = (
"197 0 LINE",
"204 37 LINE",
"183 37 LINE SMOOTH",
"164 37 OFFCURVE",
"147 45 OFFCURVE",
"147 63 CURVE SMOOTH",
"147 69 OFFCURVE",
"150 78 OFFCURVE",
"155 87 CURVE SMOOTH",
"416 550 LINE",
"483 96 LINE SMOOTH",
"484 89 OFFCURVE",
"485 83 OFFCURVE",
"485 77 CURVE SMOOTH",
"485 50 OFFCURVE",
"472 37 OFFCURVE",
"438 37 CURVE SMOOTH",
"419 37 LINE",
"412 0 LINE",
"706 0 LINE",
"712 37 LINE",
"692 37 LINE SMOOTH",
"671 37 OFFCURVE",
"650 47 OFFCURVE",
"646 72 CURVE SMOOTH",
"531 721 LINE",
"413 680 LINE",
"60 74 LINE SMOOTH",
"46 49 OFFCURVE",
"12 37 OFFCURVE",
"-12 37 CURVE SMOOTH",
"-28 37 LINE",
"-35 0 LINE"
);
},
{
closed = 1;
nodes = (
"511 192 LINE",
"522 246 LINE",
"201 246 LINE",
"189 192 LINE"
);
},
{
closed = 1;
nodes = (
"406 778 OFFCURVE",
"434 804 OFFCURVE",
"442 838 CURVE",
"443 843 OFFCURVE",
"443 847 OFFCURVE",
"443 852 CURVE SMOOTH",
"443 880 OFFCURVE",
"426 900 OFFCURVE",
"395 900 CURVE SMOOTH",
"359 900 OFFCURVE",
"331 874 OFFCURVE",
"324 838 CURVE",
"323 833 OFFCURVE",
"322 828 OFFCURVE",
"322 823 CURVE SMOOTH",
"322 797 OFFCURVE",
"339 778 OFFCURVE",
"370 778 CURVE SMOOTH"
);
},
{
closed = 1;
nodes = (
"629 778 OFFCURVE",
"657 804 OFFCURVE",
"664 838 CURVE",
"665 843 OFFCURVE",
"666 848 OFFCURVE",
"666 853 CURVE SMOOTH",
"666 881 OFFCURVE",
"649 900 OFFCURVE",
"618 900 CURVE SMOOTH",
"581 900 OFFCURVE",
"553 874 OFFCURVE",
"546 838 CURVE",
"545 833 OFFCURVE",
"544 828 OFFCURVE",
"544 824 CURVE SMOOTH",
"544 797 OFFCURVE",
"561 778 OFFCURVE",
"593 778 CURVE SMOOTH"
);
}
);
width = 749;
}
);
leftKerningGroup = A;
note = Adieresis;
rightKerningGroup = A;
unicode = 00C4;
},
{
glyphname = Adotbelow;
lastChange = "2015-12-01 12:25:40 +0000";
layers = (
{
layerId = "55173EE3-C87E-4AFC-850A-D9B4D5493314";
name = "Bold Italic";
paths = (
{
closed = 1;
nodes = (
"197 0 LINE",
"204 37 LINE",
"183 37 LINE SMOOTH",
"164 37 OFFCURVE",
"147 45 OFFCURVE",
"147 63 CURVE SMOOTH",
"147 69 OFFCURVE",
"150 78 OFFCURVE",
"155 87 CURVE SMOOTH",
"416 550 LINE",
"483 96 LINE SMOOTH",
"484 89 OFFCURVE",
"485 83 OFFCURVE",
"485 77 CURVE SMOOTH",
"485 50 OFFCURVE",
"472 37 OFFCURVE",
"438 37 CURVE SMOOTH",
"419 37 LINE",
"412 0 LINE",
"706 0 LINE",
"712 37 LINE",
"692 37 LINE SMOOTH",
"671 37 OFFCURVE",
"650 47 OFFCURVE",
"646 72 CURVE SMOOTH",
"531 721 LINE",
"413 680 LINE",
"60 74 LINE SMOOTH",
"46 49 OFFCURVE",
"12 37 OFFCURVE",
"-12 37 CURVE SMOOTH",
"-28 37 LINE",
"-35 0 LINE"
);
},
{
closed = 1;
nodes = (
"342 -188 OFFCURVE",
"374 -153 OFFCURVE",
"374 -112 CURVE SMOOTH",
"374 -84 OFFCURVE",
"357 -64 OFFCURVE",
"326 -64 CURVE SMOOTH",
"285 -64 OFFCURVE",
"253 -100 OFFCURVE",
"253 -141 CURVE SMOOTH",
"253 -168 OFFCURVE",
"270 -188 OFFCURVE",
"301 -188 CURVE SMOOTH"
);
},
{
closed = 1;
nodes = (
"511 192 LINE",
"522 246 LINE",
"201 246 LINE",
"189 192 LINE"
);
}
);
width = 749;
}
);
leftKerningGroup = A;
note = Adotbelow;
rightKerningGroup = A;
unicode = 1EA0;
},
{
glyphname = Agrave;
lastChange = "2015-12-01 12:25:42 +0000";
layers = (
{
layerId = "55173EE3-C87E-4AFC-850A-D9B4D5493314";
name = "Bold Italic";
paths = (
{
closed = 1;
nodes = (
"197 0 LINE",
"204 37 LINE",
"183 37 LINE SMOOTH",
"164 37 OFFCURVE",
"147 45 OFFCURVE",
"147 63 CURVE SMOOTH",
"147 69 OFFCURVE",
"150 78 OFFCURVE",
"155 87 CURVE SMOOTH",
"416 550 LINE",
"483 96 LINE SMOOTH",
"484 89 OFFCURVE",
"485 83 OFFCURVE",
"485 77 CURVE SMOOTH",
"485 50 OFFCURVE",
"472 37 OFFCURVE",
"438 37 CURVE SMOOTH",
"419 37 LINE",
"412 0 LINE",
"706 0 LINE",
"712 37 LINE",
"692 37 LINE SMOOTH",
"671 37 OFFCURVE",
"650 47 OFFCURVE",
"646 72 CURVE SMOOTH",
"531 721 LINE",
"413 680 LINE",
"60 74 LINE SMOOTH",
"46 49 OFFCURVE",
"12 37 OFFCURVE",
"-12 37 CURVE SMOOTH",
"-28 37 LINE",
"-35 0 LINE"
);
},
{
closed = 1;
nodes = (
"511 192 LINE",
"522 246 LINE",
"201 246 LINE",
"189 192 LINE"
);
},
{
closed = 1;
nodes = (
"616 815 LINE",
"525 937 LINE",
"519 946 OFFCURVE",
"502 971 OFFCURVE",
"472 971 CURVE SMOOTH",
"440 971 OFFCURVE",
"421 949 OFFCURVE",
"418 929 CURVE SMOOTH",
"417 925 OFFCURVE",
"417 922 OFFCURVE",
"417 918 CURVE SMOOTH",
"417 899 OFFCURVE",
"428 884 OFFCURVE",
"449 869 CURVE SMOOTH",
"583 777 LINE"
);
}
);
width = 749;
}
);
leftKerningGroup = A;
note = Agrave;
rightKerningGroup = A;
unicode = 00C0;
},
{
glyphname = Ahookabove;
lastChange = "2015-12-01 12:25:39 +0000";
layers = (
{
layerId = "55173EE3-C87E-4AFC-850A-D9B4D5493314";
name = "Bold Italic";
paths = (
{
closed = 1;
nodes = (
"197 0 LINE",
"204 37 LINE",
"183 37 LINE SMOOTH",
"164 37 OFFCURVE",
"147 45 OFFCURVE",
"147 63 CURVE SMOOTH",
"147 69 OFFCURVE",
"150 78 OFFCURVE",
"155 87 CURVE SMOOTH",
"416 550 LINE",
"483 96 LINE SMOOTH",
"484 89 OFFCURVE",
"485 83 OFFCURVE",
"485 77 CURVE SMOOTH",
"485 50 OFFCURVE",
"472 37 OFFCURVE",
"438 37 CURVE SMOOTH",
"419 37 LINE",
"412 0 LINE",
"706 0 LINE",
"712 37 LINE",
"692 37 LINE SMOOTH",
"671 37 OFFCURVE",
"650 47 OFFCURVE",
"646 72 CURVE SMOOTH",
"531 721 LINE",
"413 680 LINE",
"60 74 LINE SMOOTH",
"46 49 OFFCURVE",
"12 37 OFFCURVE",
"-12 37 CURVE SMOOTH",
"-28 37 LINE",
"-35 0 LINE"
);
},
{
closed = 1;
nodes = (
"511 192 LINE",
"522 246 LINE",
"201 246 LINE",
"189 192 LINE"
);
},
{
closed = 1;
nodes = (
"557 801 LINE",
"543 804 OFFCURVE",
"532 809 OFFCURVE",
"532 822 CURVE SMOOTH",
"532 871 OFFCURVE",
"656 878 OFFCURVE",
"656 954 CURVE SMOOTH",
"656 993 OFFCURVE",
"619 1013 OFFCURVE",
"567 1013 CURVE SMOOTH",
"496 1013 OFFCURVE",
"454 980 OFFCURVE",
"454 945 CURVE SMOOTH",
"454 929 OFFCURVE",
"465 922 OFFCURVE",
"478 922 CURVE SMOOTH",
"501 922 OFFCURVE",
"513 942 OFFCURVE",
"516 952 CURVE SMOOTH",
"524 973 OFFCURVE",
"544 979 OFFCURVE",
"561 979 CURVE SMOOTH",
"580 979 OFFCURVE",
"589 963 OFFCURVE",
"586 946 CURVE SMOOTH",
"574 888 OFFCURVE",
"475 880 OFFCURVE",
"475 820 CURVE SMOOTH",
"475 795 OFFCURVE",
"498 777 OFFCURVE",
"542 777 CURVE"
);
}
);
width = 749;
}
);
leftKerningGroup = A;
note = Ahookabove;
rightKerningGroup = A;
unicode = 1EA2;
},
{
glyphname = Amacron;
lastChange = "2015-12-01 12:25:39 +0000";
layers = (
{
layerId = "55173EE3-C87E-4AFC-850A-D9B4D5493314";
name = "Bold Italic";
paths = (
{
closed = 1;
nodes = (
"197 0 LINE",
"204 37 LINE",
"183 37 LINE SMOOTH",
"164 37 OFFCURVE",
"147 45 OFFCURVE",
"147 63 CURVE SMOOTH",
"147 69 OFFCURVE",
"150 78 OFFCURVE",
"155 87 CURVE SMOOTH",
"416 550 LINE",
"483 96 LINE SMOOTH",
"484 89 OFFCURVE",
"485 83 OFFCURVE",
"485 77 CURVE SMOOTH",
"485 50 OFFCURVE",
"472 37 OFFCURVE",
"438 37 CURVE SMOOTH",
"419 37 LINE",
"412 0 LINE",
"706 0 LINE",
"712 37 LINE",
"692 37 LINE SMOOTH",
"671 37 OFFCURVE",
"650 47 OFFCURVE",
"646 72 CURVE SMOOTH",
"531 721 LINE",
"413 680 LINE",
"60 74 LINE SMOOTH",
"46 49 OFFCURVE",
"12 37 OFFCURVE",
"-12 37 CURVE SMOOTH",
"-28 37 LINE",
"-35 0 LINE"
);
},
{
closed = 1;
nodes = (
"511 192 LINE",
"522 246 LINE",
"201 246 LINE",
"189 192 LINE"
);
},
{
closed = 1;
nodes = (
"680 778 LINE",
"691 837 LINE",
"326 837 LINE",
"315 778 LINE"
);
}
);
width = 749;
}
);
leftKerningGroup = A;
note = Amacron;
rightKerningGroup = A;
unicode = 0100;
},
{
glyphname = Aogonek;
lastChange = "2015-12-01 12:25:42 +0000";
layers = (
{
layerId = "55173EE3-C87E-4AFC-850A-D9B4D5493314";
name = "Bold Italic";
paths = (
{
closed = 1;
nodes = (
"197 0 LINE",
"204 37 LINE",
"183 37 LINE SMOOTH",
"164 37 OFFCURVE",
"147 45 OFFCURVE",
"147 63 CURVE SMOOTH",
"147 69 OFFCURVE",
"150 78 OFFCURVE",
"155 87 CURVE SMOOTH",
"416 550 LINE",
"483 96 LINE SMOOTH",
"484 89 OFFCURVE",
"485 83 OFFCURVE",
"485 77 CURVE SMOOTH",
"485 50 OFFCURVE",
"472 37 OFFCURVE",
"438 37 CURVE SMOOTH",
"419 37 LINE",
"412 0 LINE",
"706 0 LINE",
"712 37 LINE",
"692 37 LINE SMOOTH",
"671 37 OFFCURVE",
"650 47 OFFCURVE",
"646 72 CURVE SMOOTH",
"531 721 LINE",
"413 680 LINE",
"60 74 LINE SMOOTH",
"46 49 OFFCURVE",
"12 37 OFFCURVE",
"-12 37 CURVE SMOOTH",
"-28 37 LINE",
"-35 0 LINE"
);
},
{
closed = 1;
nodes = (
"620 -220 OFFCURVE",
"657 -209 OFFCURVE",
"691 -185 CURVE",
"685 -161 LINE",
"671 -168 OFFCURVE",
"651 -173 OFFCURVE",
"638 -173 CURVE SMOOTH",
"610 -173 OFFCURVE",
"591 -159 OFFCURVE",
"591 -128 CURVE SMOOTH",
"591 -123 OFFCURVE",
"591 -118 OFFCURVE",
"592 -113 CURVE SMOOTH",
"601 -72 OFFCURVE",
"633 -30 OFFCURVE",
"688 8 CURVE",
"637 8 LINE",
"566 -27 OFFCURVE",
"503 -85 OFFCURVE",
"503 -148 CURVE SMOOTH",
"503 -182 OFFCURVE",
"521 -220 OFFCURVE",
"592 -220 CURVE SMOOTH"
);
},
{
closed = 1;
nodes = (
"511 192 LINE",
"522 246 LINE",
"201 246 LINE",
"189 192 LINE"
);
}
);
width = 749;
}
);
leftKerningGroup = A;
note = Aogonek;
rightKerningGroup = A;
unicode = 0104;
},
{
glyphname = Aring;
lastChange = "2015-12-01 12:25:40 +0000";
layers = (
{
layerId = "55173EE3-C87E-4AFC-850A-D9B4D5493314";
name = "Bold Italic";
paths = (
{
closed = 1;
nodes = (
"197 0 LINE",
"204 37 LINE",
"183 37 LINE SMOOTH",
"164 37 OFFCURVE",
"147 45 OFFCURVE",
"147 63 CURVE SMOOTH",
"147 69 OFFCURVE",
"150 78 OFFCURVE",
"155 87 CURVE SMOOTH",
"416 550 LINE",
"483 96 LINE SMOOTH",
"484 89 OFFCURVE",
"485 83 OFFCURVE",
"485 77 CURVE SMOOTH",
"485 50 OFFCURVE",
"472 37 OFFCURVE",
"438 37 CURVE SMOOTH",
"419 37 LINE",
"412 0 LINE",
"706 0 LINE",
"712 37 LINE",
"692 37 LINE SMOOTH",
"671 37 OFFCURVE",
"650 47 OFFCURVE",
"646 72 CURVE SMOOTH",
"531 721 LINE",
"413 680 LINE",
"60 74 LINE SMOOTH",
"46 49 OFFCURVE",
"12 37 OFFCURVE",
"-12 37 CURVE SMOOTH",
"-28 37 LINE",
"-35 0 LINE"
);
},
{
closed = 1;
nodes = (
"511 192 LINE",
"522 246 LINE",
"201 246 LINE",
"189 192 LINE"
);
},
{
closed = 1;
nodes = (
"548 746 OFFCURVE",
"598 787 OFFCURVE",
"611 847 CURVE SMOOTH",
"613 855 OFFCURVE",
"613 863 OFFCURVE",
"613 871 CURVE SMOOTH",
"613 918 OFFCURVE",
"582 949 OFFCURVE",
"529 949 CURVE SMOOTH",
"467 949 OFFCURVE",
"416 908 OFFCURVE",
"403 847 CURVE SMOOTH",
"401 839 OFFCURVE",
"401 831 OFFCURVE",
"401 824 CURVE SMOOTH",
"401 777 OFFCURVE",
"433 746 OFFCURVE",
"487 746 CURVE SMOOTH"
);
},
{
closed = 1;
nodes = (
"472 795 OFFCURVE",
"455 810 OFFCURVE",
"455 834 CURVE SMOOTH",
"455 838 OFFCURVE",
"456 842 OFFCURVE",
"457 847 CURVE SMOOTH",
"464 879 OFFCURVE",
"490 899 OFFCURVE",
"518 899 CURVE SMOOTH",
"543 899 OFFCURVE",
"560 884 OFFCURVE",
"560 858 CURVE SMOOTH",
"560 855 OFFCURVE",
"560 851 OFFCURVE",
"559 847 CURVE SMOOTH",
"552 816 OFFCURVE",
"525 795 OFFCURVE",
"497 795 CURVE SMOOTH"
);
}
);
width = 749;
}
);
leftKerningGroup = A;
note = Aring;
rightKerningGroup = A;
unicode = 00C5;
},
{
glyphname = Aringacute;
lastChange = "2015-12-01 12:25:39 +0000";
layers = (
{
layerId = "55173EE3-C87E-4AFC-850A-D9B4D5493314";
name = "Bold Italic";
paths = (
{
closed = 1;
nodes = (
"197 0 LINE",
"204 37 LINE",
"183 37 LINE SMOOTH",
"164 37 OFFCURVE",
"147 45 OFFCURVE",
"147 63 CURVE SMOOTH",
"147 69 OFFCURVE",
"150 78 OFFCURVE",
"155 87 CURVE SMOOTH",
"416 550 LINE",
"483 96 LINE SMOOTH",
"484 89 OFFCURVE",
"485 83 OFFCURVE",
"485 77 CURVE SMOOTH",
"485 50 OFFCURVE",
"472 37 OFFCURVE",
"438 37 CURVE SMOOTH",
"419 37 LINE",
"412 0 LINE",
"706 0 LINE",
"712 37 LINE",
"692 37 LINE SMOOTH",
"671 37 OFFCURVE",
"650 47 OFFCURVE",
"646 72 CURVE SMOOTH",
"531 721 LINE",
"413 680 LINE",
"60 74 LINE SMOOTH",
"46 49 OFFCURVE",
"12 37 OFFCURVE",
"-12 37 CURVE SMOOTH",
"-28 37 LINE",
"-35 0 LINE"
);
},
{
closed = 1;
nodes = (
"511 192 LINE",
"522 246 LINE",
"201 246 LINE",
"189 192 LINE"
);
},
{
closed = 1;
nodes = (
"548 746 OFFCURVE",
"598 787 OFFCURVE",
"611 847 CURVE SMOOTH",
"613 855 OFFCURVE",
"613 863 OFFCURVE",
"613 871 CURVE SMOOTH",
"613 918 OFFCURVE",
"582 949 OFFCURVE",
"529 949 CURVE SMOOTH",
"467 949 OFFCURVE",
"416 908 OFFCURVE",
"403 847 CURVE SMOOTH",
"401 839 OFFCURVE",
"401 831 OFFCURVE",
"401 824 CURVE SMOOTH",
"401 777 OFFCURVE",
"433 746 OFFCURVE",
"487 746 CURVE SMOOTH"
);
},
{
closed = 1;
nodes = (
"472 795 OFFCURVE",
"455 810 OFFCURVE",
"455 834 CURVE SMOOTH",
"455 838 OFFCURVE",
"456 842 OFFCURVE",
"457 847 CURVE SMOOTH",
"464 879 OFFCURVE",
"490 899 OFFCURVE",
"518 899 CURVE SMOOTH",
"543 899 OFFCURVE",
"560 884 OFFCURVE",
"560 858 CURVE SMOOTH",
"560 855 OFFCURVE",
"560 851 OFFCURVE",
"559 847 CURVE SMOOTH",
"552 816 OFFCURVE",
"525 795 OFFCURVE",
"497 795 CURVE SMOOTH"
);
},
{
closed = 1;
nodes = (
"620 1066 LINE SMOOTH",
"657 1086 OFFCURVE",
"679 1106 OFFCURVE",
"679 1134 CURVE SMOOTH",
"679 1151 OFFCURVE",
"668 1168 OFFCURVE",
"640 1168 CURVE SMOOTH",
"611 1168 OFFCURVE",
"584 1143 OFFCURVE",
"575 1135 CURVE SMOOTH",
"433 1012 LINE",
"451 974 LINE"
);
}
);
width = 749;
}
);
leftKerningGroup = A;
note = Aringacute;
rightKerningGroup = A;
unicode = 01FA;
},
{
glyphname = Atilde;
lastChange = "2015-12-01 12:25:39 +0000";
layers = (
{
layerId = "55173EE3-C87E-4AFC-850A-D9B4D5493314";
name = "Bold Italic";
paths = (
{
closed = 1;
nodes = (
"197 0 LINE",
"204 37 LINE",
"183 37 LINE SMOOTH",
"164 37 OFFCURVE",
"147 45 OFFCURVE",
"147 63 CURVE SMOOTH",
"147 69 OFFCURVE",
"150 78 OFFCURVE",
"155 87 CURVE SMOOTH",
"416 550 LINE",
"483 96 LINE SMOOTH",
"484 89 OFFCURVE",
"485 83 OFFCURVE",
"485 77 CURVE SMOOTH",
"485 50 OFFCURVE",
"472 37 OFFCURVE",
"438 37 CURVE SMOOTH",
"419 37 LINE",
"412 0 LINE",
"706 0 LINE",
"712 37 LINE",
"692 37 LINE SMOOTH",
"671 37 OFFCURVE",
"650 47 OFFCURVE",
"646 72 CURVE SMOOTH",
"531 721 LINE",
"413 680 LINE",
"60 74 LINE SMOOTH",
"46 49 OFFCURVE",
"12 37 OFFCURVE",
"-12 37 CURVE SMOOTH",
"-28 37 LINE",
"-35 0 LINE"
);
},
{
closed = 1;
nodes = (
"511 192 LINE",
"522 246 LINE",
"201 246 LINE",
"189 192 LINE"
);
},
{
closed = 1;
nodes = (
"368 814 OFFCURVE",
"388 833 OFFCURVE",
"422 833 CURVE SMOOTH",
"479 833 OFFCURVE",
"520 784 OFFCURVE",
"576 784 CURVE SMOOTH",
"644 784 OFFCURVE",
"688 849 OFFCURVE",
"713 897 CURVE",
"689 912 LINE",
"663 872 OFFCURVE",
"645 853 OFFCURVE",
"610 853 CURVE SMOOTH",
"554 853 OFFCURVE",
"511 901 OFFCURVE",
"455 901 CURVE SMOOTH",
"389 901 OFFCURVE",
"343 838 OFFCURVE",
"317 790 CURVE",
"341 775 LINE"
);
}
);
width = 749;
}
);
leftKerningGroup = A;
note = Atilde;
rightKerningGroup = A;
unicode = 00C3;
},
{
glyphname = AE;
lastChange = "2015-12-01 12:25:41 +0000";
layers = (
{
layerId = "55173EE3-C87E-4AFC-850A-D9B4D5493314";
name = "Bold Italic";
paths = (
{
closed = 1;
nodes = (
"205 0 LINE",
"212 37 LINE",
"192 37 LINE SMOOTH",
"168 37 OFFCURVE",
"158 47 OFFCURVE",
"158 61 CURVE SMOOTH",
"158 72 OFFCURVE",
"164 85 OFFCURVE",
"173 98 CURVE SMOOTH",
"243 192 LINE",
"463 192 LINE",
"439 75 LINE SMOOTH",
"434 49 OFFCURVE",
"412 37 OFFCURVE",
"379 37 CURVE SMOOTH",
"352 37 LINE",
"346 0 LINE",
"892 0 LINE",
"949 191 LINE",
"913 191 LINE",
"891 126 OFFCURVE",
"857 54 OFFCURVE",
"791 54 CURVE SMOOTH",
"582 54 LINE",
"639 337 LINE",
"775 337 LINE SMOOTH",
"804 337 OFFCURVE",
"810 317 OFFCURVE",
"810 290 CURVE SMOOTH",
"810 276 OFFCURVE",
"809 260 OFFCURVE",
"807 245 CURVE",
"838 245 LINE",
"886 484 LINE",
"855 484 LINE",
"843 438 OFFCURVE",
"829 392 OFFCURVE",
"786 392 CURVE SMOOTH",
"651 392 LINE",
"703 645 LINE",
"888 645 LINE SMOOTH",
"952 645 OFFCURVE",
"964 594 OFFCURVE",
"964 551 CURVE SMOOTH",
"964 535 OFFCURVE",
"962 521 OFFCURVE",
"961 511 CURVE",
"996 511 LINE",
"1035 700 LINE",
"474 700 LINE",
"467 662 LINE",
"497 662 LINE SMOOTH",
"506 662 OFFCURVE",
"509 657 OFFCURVE",
"509 650 CURVE SMOOTH",
"509 645 OFFCURVE",
"507 639 OFFCURVE",
"503 634 CURVE SMOOTH",
"80 87 LINE SMOOTH",
"59 60 OFFCURVE",
"31 37 OFFCURVE",
"-3 37 CURVE SMOOTH",
"-18 37 LINE",
"-25 0 LINE"
);
},
{
closed = 1;
nodes = (
"542 581 LINE",
"474 246 LINE",
"285 246 LINE"
);
}
);
width = 981;
}
);
leftKerningGroup = A;
note = AE;
rightKerningGroup = E;
unicode = 00C6;
},
{
glyphname = AEacute;
lastChange = "2015-12-01 12:25:40 +0000";
layers = (
{
layerId = "55173EE3-C87E-4AFC-850A-D9B4D5493314";
name = "Bold Italic";
paths = (
{
closed = 1;
nodes = (
"205 0 LINE",
"212 37 LINE",
"192 37 LINE SMOOTH",
"168 37 OFFCURVE",
"158 47 OFFCURVE",
"158 61 CURVE SMOOTH",
"158 72 OFFCURVE",
"164 85 OFFCURVE",
"173 98 CURVE SMOOTH",
"243 192 LINE",
"463 192 LINE",
"439 75 LINE SMOOTH",
"434 49 OFFCURVE",
"412 37 OFFCURVE",
"379 37 CURVE SMOOTH",
"352 37 LINE",
"346 0 LINE",
"892 0 LINE",
"949 191 LINE",
"913 191 LINE",
"891 126 OFFCURVE",
"857 54 OFFCURVE",
"791 54 CURVE SMOOTH",
"582 54 LINE",
"639 337 LINE",
"775 337 LINE SMOOTH",
"804 337 OFFCURVE",
"810 317 OFFCURVE",
"810 290 CURVE SMOOTH",
"810 276 OFFCURVE",
"809 260 OFFCURVE",
"807 245 CURVE",
"838 245 LINE",
"886 484 LINE",
"855 484 LINE",
"843 438 OFFCURVE",
"829 392 OFFCURVE",
"786 392 CURVE SMOOTH",
"651 392 LINE",
"703 645 LINE",
"888 645 LINE SMOOTH",
"952 645 OFFCURVE",
"964 594 OFFCURVE",
"964 551 CURVE SMOOTH",
"964 535 OFFCURVE",
"962 521 OFFCURVE",
"961 511 CURVE",
"996 511 LINE",
"1035 700 LINE",
"474 700 LINE",
"467 662 LINE",
"497 662 LINE SMOOTH",
"506 662 OFFCURVE",
"509 657 OFFCURVE",
"509 650 CURVE SMOOTH",
"509 645 OFFCURVE",
"507 639 OFFCURVE",
"503 634 CURVE SMOOTH",
"80 87 LINE SMOOTH",
"59 60 OFFCURVE",
"31 37 OFFCURVE",
"-3 37 CURVE SMOOTH",
"-18 37 LINE",
"-25 0 LINE"
);
},
{
closed = 1;
nodes = (
"542 581 LINE",
"474 246 LINE",
"285 246 LINE"
);
},
{
closed = 1;
nodes = (
"884 869 LINE SMOOTH",
"921 889 OFFCURVE",
"943 909 OFFCURVE",
"943 937 CURVE SMOOTH",
"943 954 OFFCURVE",
"932 971 OFFCURVE",
"904 971 CURVE SMOOTH",
"875 971 OFFCURVE",
"848 946 OFFCURVE",
"839 938 CURVE SMOOTH",
"697 815 LINE",
"715 777 LINE"
);
}
);
width = 981;
}
);
leftKerningGroup = A;
note = AEacute;
rightKerningGroup = E;
unicode = 01FC;
},
{
glyphname = B;
lastChange = "2015-12-01 12:25:41 +0000";
layers = (
{
layerId = "55173EE3-C87E-4AFC-850A-D9B4D5493314";
name = "Bold Italic";
paths = (
{
closed = 1;
nodes = (
"338 0 LINE SMOOTH",
"501 0 OFFCURVE",
"583 74 OFFCURVE",
"607 192 CURVE SMOOTH",
"610 205 OFFCURVE",
"611 218 OFFCURVE",
"611 231 CURVE SMOOTH",
"611 290 OFFCURVE",
"581 350 OFFCURVE",
"477 370 CURVE",
"565 391 OFFCURVE",
"623 460 OFFCURVE",
"638 534 CURVE SMOOTH",
"641 549 OFFCURVE",
"643 563 OFFCURVE",
"643 577 CURVE SMOOTH",
"643 657 OFFCURVE",
"584 700 OFFCURVE",
"446 700 CURVE SMOOTH",
"117 700 LINE",
"109 662 LINE",
"139 662 LINE SMOOTH",
"171 662 OFFCURVE",
"186 653 OFFCURVE",
"186 634 CURVE SMOOTH",
"186 631 OFFCURVE",
"186 628 OFFCURVE",
"185 624 CURVE SMOOTH",
"73 75 LINE SMOOTH",
"68 49 OFFCURVE",
"48 37 OFFCURVE",
"12 37 CURVE SMOOTH",
"-18 37 LINE",
"-25 0 LINE"
);
},
{
closed = 1;
nodes = (
"275 340 LINE",
"345 340 LINE SMOOTH",
"428 340 OFFCURVE",
"468 309 OFFCURVE",
"468 243 CURVE SMOOTH",
"468 229 OFFCURVE",
"466 215 OFFCURVE",
"463 199 CURVE SMOOTH",
"444 106 OFFCURVE",
"389 54 OFFCURVE",
"302 54 CURVE SMOOTH",
"216 54 LINE"
);
},
{
closed = 1;
nodes = (
"337 645 LINE",
"397 645 LINE SMOOTH",
"462 645 OFFCURVE",
"495 619 OFFCURVE",
"495 564 CURVE SMOOTH",
"495 553 OFFCURVE",
"494 541 OFFCURVE",
"491 527 CURVE SMOOTH",
"474 448 OFFCURVE",
"424 393 OFFCURVE",
"354 393 CURVE SMOOTH",
"285 393 LINE"
);
}
);
width = 630;
}
);
note = B;
unicode = 0042;
},
{
glyphname = C;
lastChange = "2015-12-01 12:25:35 +0000";
layers = (
{
layerId = "55173EE3-C87E-4AFC-850A-D9B4D5493314";
name = "Bold Italic";
paths = (
{
closed = 1;
nodes = (
"484 -10 OFFCURVE",
"599 68 OFFCURVE",
"643 173 CURVE",
"591 173 LINE",
"535 76 OFFCURVE",
"440 46 OFFCURVE",
"361 46 CURVE SMOOTH",
"255 46 OFFCURVE",
"203 116 OFFCURVE",
"203 235 CURVE SMOOTH",
"203 269 OFFCURVE",
"207 308 OFFCURVE",
"216 350 CURVE SMOOTH",
"254 537 OFFCURVE",
"360 653 OFFCURVE",
"499 653 CURVE SMOOTH",
"587 653 OFFCURVE",
"664 609 OFFCURVE",
"656 499 CURVE",
"697 499 LINE",
"738 705 LINE",
"689 705 LINE",
"681 660 LINE SMOOTH",
"679 651 OFFCURVE",
"674 648 OFFCURVE",
"670 648 CURVE SMOOTH",
"666 648 OFFCURVE",
"663 651 OFFCURVE",
"662 652 CURVE",
"631 677 OFFCURVE",
"573 710 OFFCURVE",
"478 710 CURVE SMOOTH",
"256 710 OFFCURVE",
"111 568 OFFCURVE",
"67 350 CURVE SMOOTH",
"59 312 OFFCURVE",
"55 277 OFFCURVE",
"55 244 CURVE SMOOTH",
"55 86 OFFCURVE",
"145 -10 OFFCURVE",
"330 -10 CURVE SMOOTH"
);
}
);
width = 677;
}
);
leftKerningGroup = C;
note = C;
rightKerningGroup = C;
unicode = 0043;
},
{
glyphname = Cacute;
lastChange = "2015-12-01 12:25:40 +0000";
layers = (
{
layerId = "55173EE3-C87E-4AFC-850A-D9B4D5493314";
name = "Bold Italic";
paths = (
{
closed = 1;
nodes = (
"484 -10 OFFCURVE",
"599 68 OFFCURVE",
"643 173 CURVE",
"591 173 LINE",
"535 76 OFFCURVE",
"440 46 OFFCURVE",
"361 46 CURVE SMOOTH",
"255 46 OFFCURVE",
"203 116 OFFCURVE",
"203 235 CURVE SMOOTH",
"203 269 OFFCURVE",
"207 308 OFFCURVE",
"216 350 CURVE SMOOTH",
"254 537 OFFCURVE",
"360 653 OFFCURVE",
"499 653 CURVE SMOOTH",
"587 653 OFFCURVE",
"664 609 OFFCURVE",
"656 499 CURVE",
"697 499 LINE",
"738 705 LINE",
"689 705 LINE",
"681 660 LINE SMOOTH",
"679 651 OFFCURVE",
"674 648 OFFCURVE",
"670 648 CURVE SMOOTH",
"666 648 OFFCURVE",
"663 651 OFFCURVE",
"662 652 CURVE",
"631 677 OFFCURVE",
"573 710 OFFCURVE",
"478 710 CURVE SMOOTH",
"256 710 OFFCURVE",
"111 568 OFFCURVE",
"67 350 CURVE SMOOTH",
"59 312 OFFCURVE",
"55 277 OFFCURVE",
"55 244 CURVE SMOOTH",
"55 86 OFFCURVE",
"145 -10 OFFCURVE",
"330 -10 CURVE SMOOTH"
);
},
{
closed = 1;
nodes = (
"612 869 LINE SMOOTH",
"648 889 OFFCURVE",
"670 909 OFFCURVE",
"670 937 CURVE SMOOTH",
"670 954 OFFCURVE",
"659 971 OFFCURVE",
"632 971 CURVE SMOOTH",
"602 971 OFFCURVE",
"575 946 OFFCURVE",
"566 938 CURVE SMOOTH",
"424 815 LINE",
"443 777 LINE"
);
}
);
width = 677;
}
);
leftKerningGroup = C;
note = Cacute;
rightKerningGroup = C;
unicode = 0106;
},
{
glyphname = Ccaron;
lastChange = "2015-12-01 12:25:40 +0000";
layers = (
{
layerId = "55173EE3-C87E-4AFC-850A-D9B4D5493314";
name = "Bold Italic";
paths = (
{
closed = 1;
nodes = (
"484 -10 OFFCURVE",
"599 68 OFFCURVE",
"643 173 CURVE",
"591 173 LINE",
"535 76 OFFCURVE",
"440 46 OFFCURVE",
"361 46 CURVE SMOOTH",
"255 46 OFFCURVE",
"203 116 OFFCURVE",
"203 235 CURVE SMOOTH",
"203 269 OFFCURVE",
"207 308 OFFCURVE",
"216 350 CURVE SMOOTH",
"254 537 OFFCURVE",
"360 653 OFFCURVE",
"499 653 CURVE SMOOTH",
"587 653 OFFCURVE",
"664 609 OFFCURVE",
"656 499 CURVE",
"697 499 LINE",
"738 705 LINE",
"689 705 LINE",
"681 660 LINE SMOOTH",
"679 651 OFFCURVE",
"674 648 OFFCURVE",
"670 648 CURVE SMOOTH",
"666 648 OFFCURVE",
"663 651 OFFCURVE",
"662 652 CURVE",
"631 677 OFFCURVE",
"573 710 OFFCURVE",
"478 710 CURVE SMOOTH",
"256 710 OFFCURVE",
"111 568 OFFCURVE",
"67 350 CURVE SMOOTH",
"59 312 OFFCURVE",
"55 277 OFFCURVE",
"55 244 CURVE SMOOTH",
"55 86 OFFCURVE",
"145 -10 OFFCURVE",
"330 -10 CURVE SMOOTH"
);
},
{
closed = 1;
nodes = (
"540 778 LINE",
"711 935 LINE",
"694 961 LINE",
"555 866 LINE SMOOTH",
"541 857 OFFCURVE",
"528 850 OFFCURVE",
"519 850 CURVE SMOOTH",
"511 850 OFFCURVE",
"501 857 OFFCURVE",
"491 866 CURVE",
"390 961 LINE",
"362 935 LINE",
"468 778 LINE"
);
}
);
width = 677;
}
);
leftKerningGroup = C;
note = Ccaron;
rightKerningGroup = C;
unicode = 010C;
},
{
glyphname = Ccedilla;
lastChange = "2015-12-01 12:25:40 +0000";
layers = (
{
layerId = "55173EE3-C87E-4AFC-850A-D9B4D5493314";
name = "Bold Italic";
paths = (
{
closed = 1;
nodes = (
"484 -10 OFFCURVE",
"599 68 OFFCURVE",
"643 173 CURVE",
"591 173 LINE",
"535 76 OFFCURVE",
"440 46 OFFCURVE",
"361 46 CURVE SMOOTH",
"255 46 OFFCURVE",
"203 116 OFFCURVE",
"203 235 CURVE SMOOTH",
"203 269 OFFCURVE",
"207 308 OFFCURVE",
"216 350 CURVE SMOOTH",
"254 537 OFFCURVE",
"360 653 OFFCURVE",
"499 653 CURVE SMOOTH",
"587 653 OFFCURVE",
"664 609 OFFCURVE",
"656 499 CURVE",
"697 499 LINE",
"738 705 LINE",
"689 705 LINE",
"681 660 LINE SMOOTH",
"679 651 OFFCURVE",
"674 648 OFFCURVE",
"670 648 CURVE SMOOTH",
"666 648 OFFCURVE",
"663 651 OFFCURVE",
"662 652 CURVE",
"631 677 OFFCURVE",
"573 710 OFFCURVE",
"478 710 CURVE SMOOTH",
"256 710 OFFCURVE",
"111 568 OFFCURVE",
"67 350 CURVE SMOOTH",
"59 312 OFFCURVE",
"55 277 OFFCURVE",
"55 244 CURVE SMOOTH",
"55 86 OFFCURVE",
"145 -10 OFFCURVE",
"330 -10 CURVE SMOOTH"
);
},
{
closed = 1;
nodes = (
"289 -242 OFFCURVE",
"391 -231 OFFCURVE",
"411 -136 CURVE SMOOTH",
"412 -130 OFFCURVE",
"413 -125 OFFCURVE",
"413 -120 CURVE SMOOTH",
"413 -67 OFFCURVE",
"355 -50 OFFCURVE",
"322 -48 CURVE",
"375 20 LINE",
"322 20 LINE",
"243 -80 LINE",
"248 -92 LINE",
"269 -92 OFFCURVE",
"328 -102 OFFCURVE",
"320 -142 CURVE SMOOTH",
"311 -189 OFFCURVE",
"263 -204 OFFCURVE",
"208 -204 CURVE SMOOTH",
"202 -204 OFFCURVE",
"196 -203 OFFCURVE",
"190 -202 CURVE",
"180 -237 LINE",
"198 -240 OFFCURVE",
"211 -242 OFFCURVE",
"232 -242 CURVE SMOOTH"
);
}
);
width = 677;
}
);
leftKerningGroup = C;
note = Ccedilla;
rightKerningGroup = C;
unicode = 00C7;
},
{
glyphname = Ccircumflex;
lastChange = "2015-12-01 12:25:40 +0000";
layers = (
{
layerId = "55173EE3-C87E-4AFC-850A-D9B4D5493314";
name = "Bold Italic";
paths = (
{
closed = 1;
nodes = (
"484 -10 OFFCURVE",
"599 68 OFFCURVE",
"643 173 CURVE",
"591 173 LINE",
"535 76 OFFCURVE",
"440 46 OFFCURVE",
"361 46 CURVE SMOOTH",
"255 46 OFFCURVE",
"203 116 OFFCURVE",
"203 235 CURVE SMOOTH",
"203 269 OFFCURVE",
"207 308 OFFCURVE",
"216 350 CURVE SMOOTH",
"254 537 OFFCURVE",
"360 653 OFFCURVE",
"499 653 CURVE SMOOTH",
"587 653 OFFCURVE",
"664 609 OFFCURVE",
"656 499 CURVE",
"697 499 LINE",
"738 705 LINE",
"689 705 LINE",
"681 660 LINE SMOOTH",
"679 651 OFFCURVE",
"674 648 OFFCURVE",
"670 648 CURVE SMOOTH",
"666 648 OFFCURVE",
"663 651 OFFCURVE",
"662 652 CURVE",
"631 677 OFFCURVE",
"573 710 OFFCURVE",
"478 710 CURVE SMOOTH",
"256 710 OFFCURVE",
"111 568 OFFCURVE",
"67 350 CURVE SMOOTH",
"59 312 OFFCURVE",
"55 277 OFFCURVE",
"55 244 CURVE SMOOTH",
"55 86 OFFCURVE",
"145 -10 OFFCURVE",
"330 -10 CURVE SMOOTH"
);
},
{
closed = 1;
nodes = (
"490 873 LINE SMOOTH",
"503 882 OFFCURVE",
"517 889 OFFCURVE",
"526 889 CURVE SMOOTH",
"535 889 OFFCURVE",
"544 882 OFFCURVE",
"554 873 CURVE SMOOTH",
"655 778 LINE",
"683 804 LINE",
"576 961 LINE",
"504 961 LINE",
"333 804 LINE",
"351 778 LINE"
);
}
);
width = 677;
}
);
leftKerningGroup = C;
note = Ccircumflex;
rightKerningGroup = C;
unicode = 0108;
},
{
glyphname = Cdotaccent;
lastChange = "2015-12-01 12:25:42 +0000";
layers = (
{
layerId = "55173EE3-C87E-4AFC-850A-D9B4D5493314";
name = "Bold Italic";
paths = (
{
closed = 1;
nodes = (
"484 -10 OFFCURVE",
"599 68 OFFCURVE",
"643 173 CURVE",
"591 173 LINE",
"535 76 OFFCURVE",
"440 46 OFFCURVE",
"361 46 CURVE SMOOTH",
"255 46 OFFCURVE",
"203 116 OFFCURVE",
"203 235 CURVE SMOOTH",
"203 269 OFFCURVE",
"207 308 OFFCURVE",
"216 350 CURVE SMOOTH",
"254 537 OFFCURVE",
"360 653 OFFCURVE",
"499 653 CURVE SMOOTH",
"587 653 OFFCURVE",
"664 609 OFFCURVE",
"656 499 CURVE",
"697 499 LINE",
"738 705 LINE",
"689 705 LINE",
"681 660 LINE SMOOTH",
"679 651 OFFCURVE",
"674 648 OFFCURVE",
"670 648 CURVE SMOOTH",
"666 648 OFFCURVE",
"663 651 OFFCURVE",
"662 652 CURVE",
"631 677 OFFCURVE",
"573 710 OFFCURVE",
"478 710 CURVE SMOOTH",
"256 710 OFFCURVE",
"111 568 OFFCURVE",
"67 350 CURVE SMOOTH",
"59 312 OFFCURVE",
"55 277 OFFCURVE",
"55 244 CURVE SMOOTH",
"55 86 OFFCURVE",
"145 -10 OFFCURVE",
"330 -10 CURVE SMOOTH"
);
},
{
closed = 1;
nodes = (
"550 770 OFFCURVE",
"582 804 OFFCURVE",
"582 844 CURVE SMOOTH",
"582 872 OFFCURVE",
"565 892 OFFCURVE",
"535 892 CURVE SMOOTH",
"493 892 OFFCURVE",
"462 857 OFFCURVE",
"462 815 CURVE SMOOTH",
"462 789 OFFCURVE",
"479 770 OFFCURVE",
"510 770 CURVE SMOOTH"
);
}
);
width = 677;
}
);
leftKerningGroup = C;
note = Cdotaccent;
rightKerningGroup = C;
unicode = 010A;
},
{
glyphname = D;
lastChange = "2015-12-01 12:25:39 +0000";
layers = (
{
layerId = "55173EE3-C87E-4AFC-850A-D9B4D5493314";
name = "Bold Italic";
paths = (
{
closed = 1;
nodes = (
"303 0 LINE SMOOTH",
"528 0 OFFCURVE",
"655 117 OFFCURVE",
"703 350 CURVE SMOOTH",
"712 392 OFFCURVE",
"716 431 OFFCURVE",
"716 466 CURVE SMOOTH",
"716 620 OFFCURVE",
"630 700 OFFCURVE",
"446 700 CURVE SMOOTH",
"116 700 LINE",
"108 662 LINE",
"138 662 LINE SMOOTH",
"170 662 OFFCURVE",
"185 653 OFFCURVE",
"185 634 CURVE SMOOTH",
"185 631 OFFCURVE",
"185 628 OFFCURVE",
"184 624 CURVE SMOOTH",
"72 75 LINE SMOOTH",
"67 49 OFFCURVE",
"47 37 OFFCURVE",
"11 37 CURVE SMOOTH",
"-19 37 LINE",
"-26 0 LINE"
);
},
{
closed = 1;
nodes = (
"336 646 LINE",
"435 646 LINE SMOOTH",
"524 646 OFFCURVE",
"568 586 OFFCURVE",
"568 475 CURVE SMOOTH",
"568 438 OFFCURVE",
"563 397 OFFCURVE",
"554 350 CURVE SMOOTH",
"515 157 OFFCURVE",
"429 53 OFFCURVE",
"312 53 CURVE SMOOTH",
"215 53 LINE"
);
}
);
width = 709;
}
);
note = D;
rightKerningGroup = D;
unicode = 0044;
},
{
glyphname = Eth;
lastChange = "2015-12-01 12:25:57 +0000";
layers = (
{
layerId = "55173EE3-C87E-4AFC-850A-D9B4D5493314";
name = "Bold Italic";
paths = (
{
closed = 1;
nodes = (
"303 0 LINE SMOOTH",
"528 0 OFFCURVE",
"655 117 OFFCURVE",
"703 350 CURVE SMOOTH",
"712 392 OFFCURVE",
"716 431 OFFCURVE",
"716 466 CURVE SMOOTH",
"716 620 OFFCURVE",
"630 700 OFFCURVE",
"446 700 CURVE SMOOTH",
"116 700 LINE",
"108 662 LINE",
"138 662 LINE SMOOTH",
"170 662 OFFCURVE",
"185 653 OFFCURVE",
"185 634 CURVE SMOOTH",
"185 631 OFFCURVE",
"185 628 OFFCURVE",
"184 624 CURVE SMOOTH",
"72 75 LINE SMOOTH",
"67 49 OFFCURVE",
"47 37 OFFCURVE",
"11 37 CURVE SMOOTH",
"-19 37 LINE",
"-26 0 LINE"
);
},
{
closed = 1;
nodes = (
"336 646 LINE",
"435 646 LINE SMOOTH",
"524 646 OFFCURVE",
"568 586 OFFCURVE",
"568 475 CURVE SMOOTH",
"568 438 OFFCURVE",
"563 397 OFFCURVE",
"554 350 CURVE SMOOTH",
"515 157 OFFCURVE",
"429 53 OFFCURVE",
"312 53 CURVE SMOOTH",
"215 53 LINE"
);
},
{
closed = 1;
nodes = (
"457 309 LINE",
"470 375 LINE",
"57 375 LINE",
"43 309 LINE"
);
}
);
width = 709;
}
);
note = Eth;
rightKerningGroup = D;
unicode = 00D0;
},
{
glyphname = Dcaron;
lastChange = "2015-12-01 12:25:41 +0000";
layers = (
{
layerId = "55173EE3-C87E-4AFC-850A-D9B4D5493314";
name = "Bold Italic";
paths = (
{
closed = 1;
nodes = (
"303 0 LINE SMOOTH",
"528 0 OFFCURVE",
"655 117 OFFCURVE",
"703 350 CURVE SMOOTH",
"712 392 OFFCURVE",
"716 431 OFFCURVE",
"716 466 CURVE SMOOTH",
"716 620 OFFCURVE",
"630 700 OFFCURVE",
"446 700 CURVE SMOOTH",
"116 700 LINE",
"108 662 LINE",
"138 662 LINE SMOOTH",
"170 662 OFFCURVE",
"185 653 OFFCURVE",
"185 634 CURVE SMOOTH",
"185 631 OFFCURVE",
"185 628 OFFCURVE",
"184 624 CURVE SMOOTH",
"72 75 LINE SMOOTH",
"67 49 OFFCURVE",
"47 37 OFFCURVE",
"11 37 CURVE SMOOTH",
"-19 37 LINE",
"-26 0 LINE"
);
},
{
closed = 1;
nodes = (
"336 646 LINE",
"435 646 LINE SMOOTH",
"524 646 OFFCURVE",
"568 586 OFFCURVE",
"568 475 CURVE SMOOTH",
"568 438 OFFCURVE",
"563 397 OFFCURVE",
"554 350 CURVE SMOOTH",
"515 157 OFFCURVE",
"429 53 OFFCURVE",
"312 53 CURVE SMOOTH",
"215 53 LINE"
);
},
{
closed = 1;
nodes = (
"485 786 LINE",
"656 943 LINE",
"638 969 LINE",
"499 874 LINE SMOOTH",
"486 865 OFFCURVE",
"472 858 OFFCURVE",
"464 858 CURVE SMOOTH",
"455 858 OFFCURVE",
"445 865 OFFCURVE",
"435 874 CURVE",
"334 969 LINE",
"306 943 LINE",
"413 786 LINE"
);
}
);
width = 709;
}
);
note = Dcaron;
rightKerningGroup = D;
unicode = 010E;
},
{
glyphname = Dcroat;
lastChange = "2015-12-01 12:26:01 +0000";
layers = (
{
layerId = "55173EE3-C87E-4AFC-850A-D9B4D5493314";
name = "Bold Italic";
paths = (
{
closed = 1;
nodes = (
"303 0 LINE SMOOTH",
"528 0 OFFCURVE",
"655 117 OFFCURVE",
"703 350 CURVE SMOOTH",
"712 392 OFFCURVE",
"716 431 OFFCURVE",
"716 466 CURVE SMOOTH",
"716 620 OFFCURVE",
"630 700 OFFCURVE",
"446 700 CURVE SMOOTH",
"116 700 LINE",
"108 662 LINE",
"138 662 LINE SMOOTH",
"170 662 OFFCURVE",
"185 653 OFFCURVE",
"185 634 CURVE SMOOTH",
"185 631 OFFCURVE",
"185 628 OFFCURVE",
"184 624 CURVE SMOOTH",
"72 75 LINE SMOOTH",
"67 49 OFFCURVE",
"47 37 OFFCURVE",
"11 37 CURVE SMOOTH",
"-19 37 LINE",
"-26 0 LINE"
);
},
{
closed = 1;
nodes = (
"336 646 LINE",
"435 646 LINE SMOOTH",
"524 646 OFFCURVE",
"568 586 OFFCURVE",
"568 475 CURVE SMOOTH",
"568 438 OFFCURVE",
"563 397 OFFCURVE",
"554 350 CURVE SMOOTH",
"515 157 OFFCURVE",
"429 53 OFFCURVE",
"312 53 CURVE SMOOTH",
"215 53 LINE"
);
},
{
closed = 1;
nodes = (
"457 309 LINE",
"470 375 LINE",
"57 375 LINE",
"43 309 LINE"
);
}
);
width = 709;
}
);
note = Dcroat;
rightKerningGroup = D;
unicode = 0110;
},
{
glyphname = Ddotbelow;
lastChange = "2015-12-01 12:26:04 +0000";
layers = (
{
layerId = "55173EE3-C87E-4AFC-850A-D9B4D5493314";
name = "Bold Italic";
paths = (
{
closed = 1;
nodes = (
"303 0 LINE SMOOTH",
"528 0 OFFCURVE",
"655 117 OFFCURVE",
"703 350 CURVE SMOOTH",
"712 392 OFFCURVE",
"716 431 OFFCURVE",
"716 466 CURVE SMOOTH",
"716 620 OFFCURVE",
"630 700 OFFCURVE",
"446 700 CURVE SMOOTH",
"116 700 LINE",
"108 662 LINE",
"138 662 LINE SMOOTH",
"170 662 OFFCURVE",
"185 653 OFFCURVE",
"185 634 CURVE SMOOTH",
"185 631 OFFCURVE",
"185 628 OFFCURVE",
"184 624 CURVE",
"72 75 LINE SMOOTH",
"67 49 OFFCURVE",
"47 37 OFFCURVE",
"11 37 CURVE SMOOTH",
"-19 37 LINE",
"-26 0 LINE"
);
},
{
closed = 1;
nodes = (
"336 646 LINE",
"435 646 LINE SMOOTH",
"524 646 OFFCURVE",
"568 586 OFFCURVE",
"568 475 CURVE SMOOTH",
"568 438 OFFCURVE",
"563 397 OFFCURVE",
"554 350 CURVE SMOOTH",
"515 157 OFFCURVE",
"429 53 OFFCURVE",
"312 53 CURVE SMOOTH",
"215 53 LINE"
);
},
{
closed = 1;
nodes = (
"217 -169 OFFCURVE",
"235 -188 OFFCURVE",
"266 -188 CURVE SMOOTH",
"301 -188 OFFCURVE",
"329 -161 OFFCURVE",
"337 -127 CURVE SMOOTH",
"338 -122 OFFCURVE",
"338 -117 OFFCURVE",
"338 -112 CURVE SMOOTH",
"338 -85 OFFCURVE",
"321 -64 OFFCURVE",
"291 -64 CURVE SMOOTH",
"249 -64 OFFCURVE",
"217 -101 OFFCURVE",
"217 -142 CURVE SMOOTH"
);
}
);
width = 709;
}
);
note = Ddotbelow;
rightKerningGroup = D;
unicode = 1E0C;
},
{
glyphname = Dlinebelow;
lastChange = "2015-12-01 12:26:06 +0000";
layers = (
{
layerId = "55173EE3-C87E-4AFC-850A-D9B4D5493314";
name = "Bold Italic";
paths = (
{
closed = 1;
nodes = (
"303 0 LINE SMOOTH",
"528 0 OFFCURVE",
"655 117 OFFCURVE",
"703 350 CURVE SMOOTH",
"712 392 OFFCURVE",
"716 431 OFFCURVE",
"716 466 CURVE SMOOTH",
"716 620 OFFCURVE",
"630 700 OFFCURVE",
"446 700 CURVE SMOOTH",
"116 700 LINE",
"108 662 LINE",
"138 662 LINE SMOOTH",
"170 662 OFFCURVE",
"185 653 OFFCURVE",
"185 634 CURVE SMOOTH",
"185 631 OFFCURVE",
"185 628 OFFCURVE",
"184 624 CURVE SMOOTH",
"72 75 LINE SMOOTH",
"67 49 OFFCURVE",
"47 37 OFFCURVE",
"11 37 CURVE SMOOTH",
"-19 37 LINE",
"-26 0 LINE"
);
},
{
closed = 1;
nodes = (
"336 646 LINE",
"435 646 LINE SMOOTH",
"524 646 OFFCURVE",
"568 586 OFFCURVE",
"568 475 CURVE SMOOTH",
"568 438 OFFCURVE",
"563 397 OFFCURVE",
"554 350 CURVE SMOOTH",
"515 157 OFFCURVE",
"429 53 OFFCURVE",
"312 53 CURVE SMOOTH",
"215 53 LINE"
);
},
{
closed = 1;
nodes = (
"454 -120 LINE",
"465 -68 LINE",
"100 -68 LINE",
"89 -120 LINE"
);
}
);
width = 709;
}
);
note = Dlinebelow;
rightKerningGroup = D;
unicode = 1E0E;
},
{
glyphname = E;
lastChange = "2015-12-01 12:25:39 +0000";
layers = (
{
layerId = "55173EE3-C87E-4AFC-850A-D9B4D5493314";
name = "Bold Italic";
paths = (
{
closed = 1;
nodes = (
"534 0 LINE",
"591 191 LINE",
"555 191 LINE",
"533 126 OFFCURVE",
"499 54 OFFCURVE",
"433 54 CURVE SMOOTH",
"214 54 LINE",
"335 645 LINE",
"533 645 LINE SMOOTH",
"593 645 OFFCURVE",
"605 594 OFFCURVE",
"605 552 CURVE SMOOTH",
"605 536 OFFCURVE",
"603 521 OFFCURVE",
"602 511 CURVE",
"638 511 LINE",
"677 700 LINE",
"116 700 LINE",
"108 662 LINE",
"137 662 LINE SMOOTH",
"169 662 OFFCURVE",
"184 653 OFFCURVE",
"184 635 CURVE SMOOTH",
"184 631 OFFCURVE",
"184 628 OFFCURVE",
"183 624 CURVE SMOOTH",
"71 75 LINE SMOOTH",
"66 49 OFFCURVE",
"47 37 OFFCURVE",
"10 37 CURVE SMOOTH",
"-19 37 LINE",
"-26 0 LINE"
);
},
{
closed = 1;
nodes = (
"478 245 LINE",
"526 484 LINE",
"496 484 LINE",
"484 438 OFFCURVE",
"469 392 OFFCURVE",
"426 392 CURVE SMOOTH",
"225 392 LINE",
"213 337 LINE",
"415 337 LINE SMOOTH",
"444 337 OFFCURVE",
"451 316 OFFCURVE",
"451 288 CURVE SMOOTH",
"451 275 OFFCURVE",
"450 260 OFFCURVE",
"448 245 CURVE"
);
}
);
width = 623;
}
);
note = E;
rightKerningGroup = E;
unicode = 0045;
},
{
glyphname = Eacute;
lastChange = "2015-12-01 12:25:41 +0000";
layers = (
{
layerId = "55173EE3-C87E-4AFC-850A-D9B4D5493314";
name = "Bold Italic";
paths = (
{
closed = 1;
nodes = (
"534 0 LINE",
"591 191 LINE",
"555 191 LINE",
"533 126 OFFCURVE",
"499 54 OFFCURVE",
"433 54 CURVE SMOOTH",
"214 54 LINE",
"335 645 LINE",
"533 645 LINE SMOOTH",
"593 645 OFFCURVE",
"605 594 OFFCURVE",
"605 552 CURVE SMOOTH",
"605 536 OFFCURVE",
"603 521 OFFCURVE",
"602 511 CURVE",
"638 511 LINE",
"677 700 LINE",
"116 700 LINE",
"108 662 LINE",
"137 662 LINE SMOOTH",
"169 662 OFFCURVE",
"184 653 OFFCURVE",
"184 635 CURVE SMOOTH",
"184 631 OFFCURVE",
"184 628 OFFCURVE",
"183 624 CURVE SMOOTH",
"71 75 LINE SMOOTH",
"66 49 OFFCURVE",
"47 37 OFFCURVE",
"10 37 CURVE SMOOTH",
"-19 37 LINE",
"-26 0 LINE"
);
},
{
closed = 1;
nodes = (
"478 245 LINE",
"526 484 LINE",
"496 484 LINE",
"484 438 OFFCURVE",
"469 392 OFFCURVE",
"426 392 CURVE SMOOTH",
"225 392 LINE",
"213 337 LINE",
"415 337 LINE SMOOTH",
"444 337 OFFCURVE",
"451 316 OFFCURVE",
"451 288 CURVE SMOOTH",
"451 275 OFFCURVE",
"450 260 OFFCURVE",
"448 245 CURVE"
);
},
{
closed = 1;
nodes = (
"559 869 LINE SMOOTH",
"595 889 OFFCURVE",
"617 910 OFFCURVE",
"617 937 CURVE SMOOTH",
"617 955 OFFCURVE",
"607 971 OFFCURVE",
"579 971 CURVE SMOOTH",
"549 971 OFFCURVE",
"522 946 OFFCURVE",
"514 938 CURVE SMOOTH",
"372 815 LINE",
"390 777 LINE"
);
}
);
width = 623;
}
);
note = Eacute;
rightKerningGroup = E;
unicode = 00C9;
},
{
glyphname = Ebreve;
lastChange = "2015-12-01 12:25:40 +0000";
layers = (
{
layerId = "55173EE3-C87E-4AFC-850A-D9B4D5493314";
name = "Bold Italic";
paths = (
{
closed = 1;
nodes = (
"534 0 LINE",
"591 191 LINE",
"555 191 LINE",
"533 126 OFFCURVE",
"499 54 OFFCURVE",
"433 54 CURVE SMOOTH",
"214 54 LINE",
"335 645 LINE",
"533 645 LINE SMOOTH",
"593 645 OFFCURVE",
"605 594 OFFCURVE",
"605 552 CURVE SMOOTH",
"605 536 OFFCURVE",
"603 521 OFFCURVE",
"602 511 CURVE",
"638 511 LINE",
"677 700 LINE",
"116 700 LINE",
"108 662 LINE",
"137 662 LINE SMOOTH",
"169 662 OFFCURVE",
"184 653 OFFCURVE",
"184 635 CURVE SMOOTH",
"184 631 OFFCURVE",
"184 628 OFFCURVE",
"183 624 CURVE SMOOTH",
"71 75 LINE SMOOTH",
"66 49 OFFCURVE",
"47 37 OFFCURVE",
"10 37 CURVE SMOOTH",
"-19 37 LINE",
"-26 0 LINE"
);
},
{
closed = 1;
nodes = (
"478 245 LINE",
"526 484 LINE",
"496 484 LINE",
"484 438 OFFCURVE",
"469 392 OFFCURVE",
"426 392 CURVE SMOOTH",
"225 392 LINE",
"213 337 LINE",
"415 337 LINE SMOOTH",
"444 337 OFFCURVE",
"451 316 OFFCURVE",
"451 288 CURVE SMOOTH",
"451 275 OFFCURVE",
"450 260 OFFCURVE",
"448 245 CURVE"
);
},
{
closed = 1;
nodes = (
"588 776 OFFCURVE",
"635 849 OFFCURVE",
"652 922 CURVE",
"613 922 LINE",
"601 880 OFFCURVE",
"564 841 OFFCURVE",
"482 841 CURVE SMOOTH",
"400 841 OFFCURVE",
"378 880 OFFCURVE",
"382 922 CURVE",
"346 922 LINE",
"343 908 OFFCURVE",
"342 894 OFFCURVE",
"342 880 CURVE SMOOTH",
"342 822 OFFCURVE",
"372 776 OFFCURVE",
"469 776 CURVE SMOOTH"
);
}
);
width = 623;
}
);
note = Ebreve;
rightKerningGroup = E;
unicode = 0114;
},
{
glyphname = Ecaron;
lastChange = "2015-12-01 12:25:41 +0000";
layers = (
{
layerId = "55173EE3-C87E-4AFC-850A-D9B4D5493314";
name = "Bold Italic";
paths = (
{
closed = 1;
nodes = (
"534 0 LINE",
"591 191 LINE",
"555 191 LINE",
"533 126 OFFCURVE",
"499 54 OFFCURVE",
"433 54 CURVE SMOOTH",
"214 54 LINE",
"335 645 LINE",
"533 645 LINE SMOOTH",
"593 645 OFFCURVE",
"605 594 OFFCURVE",
"605 552 CURVE SMOOTH",
"605 536 OFFCURVE",
"603 521 OFFCURVE",
"602 511 CURVE",
"638 511 LINE",
"677 700 LINE",
"116 700 LINE",
"108 662 LINE",
"137 662 LINE SMOOTH",
"169 662 OFFCURVE",
"184 653 OFFCURVE",
"184 635 CURVE SMOOTH",
"184 631 OFFCURVE",
"184 628 OFFCURVE",
"183 624 CURVE SMOOTH",
"71 75 LINE SMOOTH",
"66 49 OFFCURVE",
"47 37 OFFCURVE",
"10 37 CURVE SMOOTH",
"-19 37 LINE",
"-26 0 LINE"
);
},
{
closed = 1;
nodes = (
"478 245 LINE",
"526 484 LINE",
"496 484 LINE",
"484 438 OFFCURVE",
"469 392 OFFCURVE",
"426 392 CURVE SMOOTH",
"225 392 LINE",
"213 337 LINE",
"415 337 LINE SMOOTH",
"444 337 OFFCURVE",
"451 316 OFFCURVE",
"451 288 CURVE SMOOTH",
"451 275 OFFCURVE",
"450 260 OFFCURVE",
"448 245 CURVE"
);
},
{
closed = 1;
nodes = (
"502 778 LINE",
"673 935 LINE",
"656 961 LINE",
"516 866 LINE SMOOTH",
"503 857 OFFCURVE",
"490 850 OFFCURVE",
"481 850 CURVE SMOOTH",
"472 850 OFFCURVE",
"463 857 OFFCURVE",
"452 866 CURVE",
"351 961 LINE",
"324 935 LINE",
"430 778 LINE"
);
}
);
width = 623;
}
);
note = Ecaron;
rightKerningGroup = E;
unicode = 011A;
},
{
glyphname = Ecircumflex;
lastChange = "2015-12-01 12:25:41 +0000";
layers = (
{
layerId = "55173EE3-C87E-4AFC-850A-D9B4D5493314";
name = "Bold Italic";
paths = (
{
closed = 1;
nodes = (
"534 0 LINE",
"591 191 LINE",
"555 191 LINE",
"533 126 OFFCURVE",
"499 54 OFFCURVE",
"433 54 CURVE SMOOTH",
"214 54 LINE",
"335 645 LINE",
"533 645 LINE SMOOTH",
"593 645 OFFCURVE",
"605 594 OFFCURVE",
"605 552 CURVE SMOOTH",
"605 536 OFFCURVE",
"603 521 OFFCURVE",
"602 511 CURVE",
"638 511 LINE",
"677 700 LINE",
"116 700 LINE",
"108 662 LINE",
"137 662 LINE SMOOTH",
"169 662 OFFCURVE",
"184 653 OFFCURVE",
"184 635 CURVE SMOOTH",
"184 631 OFFCURVE",
"184 628 OFFCURVE",
"183 624 CURVE SMOOTH",
"71 75 LINE SMOOTH",
"66 49 OFFCURVE",
"47 37 OFFCURVE",
"10 37 CURVE SMOOTH",
"-19 37 LINE",
"-26 0 LINE"
);
},
{
closed = 1;
nodes = (
"478 245 LINE",
"526 484 LINE",
"496 484 LINE",
"484 438 OFFCURVE",
"469 392 OFFCURVE",
"426 392 CURVE SMOOTH",
"225 392 LINE",
"213 337 LINE",
"415 337 LINE SMOOTH",
"444 337 OFFCURVE",
"451 316 OFFCURVE",
"451 288 CURVE SMOOTH",
"451 275 OFFCURVE",
"450 260 OFFCURVE",
"448 245 CURVE"
);
},
{
closed = 1;
nodes = (
"448 873 LINE SMOOTH",
"462 882 OFFCURVE",
"476 889 OFFCURVE",
"485 889 CURVE SMOOTH",
"493 889 OFFCURVE",
"503 882 OFFCURVE",
"513 873 CURVE SMOOTH",
"613 778 LINE",
"641 804 LINE",
"535 961 LINE",
"463 961 LINE",
"292 804 LINE",
"310 778 LINE"
);
}
);
width = 623;
}
);
note = Ecircumflex;
rightKerningGroup = E;
unicode = 00CA;
},
{
glyphname = Ecircumflexacute;
lastChange = "2015-12-01 12:25:41 +0000";
layers = (
{
layerId = "55173EE3-C87E-4AFC-850A-D9B4D5493314";
name = "Bold Italic";
paths = (
{
closed = 1;
nodes = (
"534 0 LINE",
"591 191 LINE",
"555 191 LINE",
"533 126 OFFCURVE",
"499 54 OFFCURVE",
"433 54 CURVE SMOOTH",
"214 54 LINE",
"335 645 LINE",
"533 645 LINE SMOOTH",
"593 645 OFFCURVE",
"605 594 OFFCURVE",
"605 552 CURVE SMOOTH",
"605 536 OFFCURVE",
"603 521 OFFCURVE",
"602 511 CURVE",
"638 511 LINE",
"677 700 LINE",
"116 700 LINE",
"108 662 LINE",
"137 662 LINE SMOOTH",
"169 662 OFFCURVE",
"184 653 OFFCURVE",
"184 635 CURVE SMOOTH",
"184 631 OFFCURVE",
"184 628 OFFCURVE",
"183 624 CURVE SMOOTH",
"71 75 LINE SMOOTH",
"66 49 OFFCURVE",
"47 37 OFFCURVE",
"10 37 CURVE SMOOTH",
"-19 37 LINE",
"-26 0 LINE"
);
},
{
closed = 1;
nodes = (
"478 245 LINE",
"526 484 LINE",
"496 484 LINE",
"484 438 OFFCURVE",
"469 392 OFFCURVE",
"426 392 CURVE SMOOTH",
"225 392 LINE",
"213 337 LINE",
"415 337 LINE SMOOTH",
"444 337 OFFCURVE",
"451 316 OFFCURVE",
"451 288 CURVE SMOOTH",
"451 275 OFFCURVE",
"450 260 OFFCURVE",
"448 245 CURVE"
);
},
{
closed = 1;
nodes = (
"428 867 LINE SMOOTH",
"444 878 OFFCURVE",
"458 888 OFFCURVE",
"468 888 CURVE SMOOTH",
"476 888 OFFCURVE",
"487 880 OFFCURVE",
"496 871 CURVE SMOOTH",
"592 777 LINE",
"619 803 LINE",
"518 960 LINE",
"447 960 LINE",
"281 803 LINE",
"298 777 LINE"
);
},
{
closed = 1;
nodes = (
"725 966 LINE SMOOTH",
"762 984 OFFCURVE",
"791 1009 OFFCURVE",
"791 1035 CURVE SMOOTH",
"791 1053 OFFCURVE",
"779 1072 OFFCURVE",
"752 1072 CURVE SMOOTH",
"724 1072 OFFCURVE",
"697 1048 OFFCURVE",
"682 1033 CURVE SMOOTH",
"583 939 LINE",
"599 906 LINE"
);
}
);
width = 623;
}
);
note = Ecircumflexacute;
rightKerningGroup = E;
unicode = 1EBE;
},
{
glyphname = Ecircumflexdotbelow;
lastChange = "2015-12-01 12:25:41 +0000";
layers = (
{
layerId = "55173EE3-C87E-4AFC-850A-D9B4D5493314";
name = "Bold Italic";
paths = (
{
closed = 1;
nodes = (
"534 0 LINE",
"591 191 LINE",
"555 191 LINE",
"533 126 OFFCURVE",
"499 54 OFFCURVE",
"433 54 CURVE SMOOTH",
"214 54 LINE",
"335 645 LINE",
"533 645 LINE SMOOTH",
"593 645 OFFCURVE",
"605 594 OFFCURVE",
"605 552 CURVE SMOOTH",
"605 536 OFFCURVE",
"603 521 OFFCURVE",
"602 511 CURVE",
"638 511 LINE",
"677 700 LINE",
"116 700 LINE",
"108 662 LINE",
"137 662 LINE SMOOTH",
"169 662 OFFCURVE",
"184 653 OFFCURVE",
"184 635 CURVE SMOOTH",
"184 631 OFFCURVE",
"184 628 OFFCURVE",
"183 624 CURVE SMOOTH",
"71 75 LINE SMOOTH",
"66 49 OFFCURVE",
"47 37 OFFCURVE",
"10 37 CURVE SMOOTH",
"-19 37 LINE",
"-26 0 LINE"
);
},
{
closed = 1;
nodes = (
"294 -188 OFFCURVE",
"326 -153 OFFCURVE",
"326 -112 CURVE SMOOTH",
"326 -84 OFFCURVE",
"309 -64 OFFCURVE",
"278 -64 CURVE SMOOTH",
"237 -64 OFFCURVE",
"205 -100 OFFCURVE",
"205 -141 CURVE SMOOTH",
"205 -168 OFFCURVE",
"222 -188 OFFCURVE",
"253 -188 CURVE SMOOTH"
);
},
{
closed = 1;
nodes = (
"478 245 LINE",
"526 484 LINE",
"496 484 LINE",
"484 438 OFFCURVE",
"469 392 OFFCURVE",
"426 392 CURVE SMOOTH",
"225 392 LINE",
"213 337 LINE",
"415 337 LINE SMOOTH",
"444 337 OFFCURVE",
"451 316 OFFCURVE",
"451 288 CURVE SMOOTH",
"451 275 OFFCURVE",
"450 260 OFFCURVE",
"448 245 CURVE"
);
},
{
closed = 1;
nodes = (
"430 873 LINE SMOOTH",
"444 882 OFFCURVE",
"458 889 OFFCURVE",
"467 889 CURVE SMOOTH",
"475 889 OFFCURVE",
"485 882 OFFCURVE",
"494 873 CURVE SMOOTH",
"595 778 LINE",
"623 804 LINE",
"516 961 LINE",
"444 961 LINE",
"274 804 LINE",
"292 778 LINE"
);
}
);
width = 623;
}
);
note = Ecircumflexdotbelow;
rightKerningGroup = E;
unicode = 1EC6;
},
{
glyphname = Ecircumflexgrave;
lastChange = "2015-12-01 12:25:41 +0000";
layers = (
{
layerId = "55173EE3-C87E-4AFC-850A-D9B4D5493314";
name = "Bold Italic";
paths = (
{
closed = 1;
nodes = (
"534 0 LINE",
"591 191 LINE",
"555 191 LINE",
"533 126 OFFCURVE",
"499 54 OFFCURVE",
"433 54 CURVE SMOOTH",
"214 54 LINE",
"335 645 LINE",
"533 645 LINE SMOOTH",
"593 645 OFFCURVE",
"605 594 OFFCURVE",
"605 552 CURVE SMOOTH",
"605 536 OFFCURVE",
"603 521 OFFCURVE",
"602 511 CURVE",
"638 511 LINE",
"677 700 LINE",
"116 700 LINE",
"108 662 LINE",
"137 662 LINE SMOOTH",
"169 662 OFFCURVE",
"184 653 OFFCURVE",
"184 635 CURVE SMOOTH",
"184 631 OFFCURVE",
"184 628 OFFCURVE",
"183 624 CURVE SMOOTH",
"71 75 LINE SMOOTH",
"66 49 OFFCURVE",
"47 37 OFFCURVE",
"10 37 CURVE SMOOTH",
"-19 37 LINE",
"-26 0 LINE"
);
},
{
closed = 1;
nodes = (
"478 245 LINE",
"526 484 LINE",
"496 484 LINE",
"484 438 OFFCURVE",
"469 392 OFFCURVE",
"426 392 CURVE SMOOTH",
"225 392 LINE",
"213 337 LINE",
"415 337 LINE SMOOTH",
"444 337 OFFCURVE",
"451 316 OFFCURVE",
"451 288 CURVE SMOOTH",
"451 275 OFFCURVE",
"450 260 OFFCURVE",
"448 245 CURVE"
);
},
{
closed = 1;
nodes = (
"376 939 LINE",
"313 1035 LINE SMOOTH",
"304 1049 OFFCURVE",
"288 1073 OFFCURVE",
"261 1073 CURVE SMOOTH",
"223 1073 OFFCURVE",
"203 1037 OFFCURVE",
"203 1021 CURVE SMOOTH",
"203 1001 OFFCURVE",
"218 982 OFFCURVE",
"243 968 CURVE SMOOTH",
"346 906 LINE"
);
},
{
closed = 1;
nodes = (
"428 867 LINE SMOOTH",
"444 878 OFFCURVE",
"458 888 OFFCURVE",
"468 888 CURVE SMOOTH",
"476 888 OFFCURVE",
"487 880 OFFCURVE",
"496 871 CURVE SMOOTH",
"592 777 LINE",
"619 803 LINE",
"518 960 LINE",
"447 960 LINE",
"281 803 LINE",
"298 777 LINE"
);
}
);
width = 623;
}
);
note = Ecircumflexgrave;
rightKerningGroup = E;
unicode = 1EC0;
},
{
glyphname = Ecircumflexhookabove;
lastChange = "2015-12-01 12:25:41 +0000";
layers = (
{
layerId = "55173EE3-C87E-4AFC-850A-D9B4D5493314";
name = "Bold Italic";
paths = (
{
closed = 1;
nodes = (
"534 0 LINE",
"591 191 LINE",
"555 191 LINE",
"533 126 OFFCURVE",
"499 54 OFFCURVE",
"433 54 CURVE SMOOTH",
"214 54 LINE",
"335 645 LINE",
"533 645 LINE SMOOTH",
"593 645 OFFCURVE",
"605 594 OFFCURVE",
"605 552 CURVE SMOOTH",
"605 536 OFFCURVE",
"603 521 OFFCURVE",
"602 511 CURVE",
"638 511 LINE",
"677 700 LINE",
"116 700 LINE",
"108 662 LINE",
"137 662 LINE SMOOTH",
"169 662 OFFCURVE",
"184 653 OFFCURVE",
"184 635 CURVE SMOOTH",
"184 631 OFFCURVE",
"184 628 OFFCURVE",
"183 624 CURVE SMOOTH",
"71 75 LINE SMOOTH",
"66 49 OFFCURVE",
"47 37 OFFCURVE",
"10 37 CURVE SMOOTH",
"-19 37 LINE",
"-26 0 LINE"
);
},
{
closed = 1;
nodes = (
"478 245 LINE",
"526 484 LINE",
"496 484 LINE",
"484 438 OFFCURVE",
"469 392 OFFCURVE",
"426 392 CURVE SMOOTH",
"225 392 LINE",
"213 337 LINE",
"415 337 LINE SMOOTH",
"444 337 OFFCURVE",
"451 316 OFFCURVE",
"451 288 CURVE SMOOTH",
"451 275 OFFCURVE",
"450 260 OFFCURVE",
"448 245 CURVE"
);
},
{
closed = 1;
nodes = (
"428 867 LINE SMOOTH",
"444 878 OFFCURVE",
"458 888 OFFCURVE",
"468 888 CURVE SMOOTH",
"476 888 OFFCURVE",
"487 880 OFFCURVE",
"496 871 CURVE SMOOTH",
"592 777 LINE",
"619 803 LINE",
"518 960 LINE",
"447 960 LINE",
"281 803 LINE",
"298 777 LINE"
);
},
{
closed = 1;
nodes = (
"661 921 LINE",
"649 925 OFFCURVE",
"639 928 OFFCURVE",
"639 940 CURVE SMOOTH",
"639 942 OFFCURVE",
"639 944 OFFCURVE",
"640 947 CURVE SMOOTH",
"647 984 OFFCURVE",
"749 992 OFFCURVE",
"749 1054 CURVE SMOOTH",
"749 1088 OFFCURVE",
"710 1104 OFFCURVE",
"667 1104 CURVE SMOOTH",
"614 1104 OFFCURVE",
"572 1080 OFFCURVE",
"572 1050 CURVE SMOOTH",
"572 1036 OFFCURVE",
"582 1029 OFFCURVE",
"592 1029 CURVE SMOOTH",
"626 1029 OFFCURVE",
"622 1078 OFFCURVE",
"665 1078 CURVE SMOOTH",
"684 1078 OFFCURVE",
"690 1063 OFFCURVE",
"687 1049 CURVE SMOOTH",
"676 998 OFFCURVE",
"589 990 OFFCURVE",
"589 940 CURVE SMOOTH",
"589 917 OFFCURVE",
"608 900 OFFCURVE",
"649 900 CURVE"
);
}
);
width = 623;
}
);
note = Ecircumflexhookabove;
rightKerningGroup = E;
unicode = 1EC2;
},
{
glyphname = Ecircumflextilde;
lastChange = "2015-12-01 12:25:42 +0000";
layers = (
{
layerId = "55173EE3-C87E-4AFC-850A-D9B4D5493314";
name = "Bold Italic";
paths = (
{
closed = 1;
nodes = (
"534 0 LINE",
"591 191 LINE",
"555 191 LINE",
"533 126 OFFCURVE",
"499 54 OFFCURVE",
"433 54 CURVE SMOOTH",
"214 54 LINE",
"335 645 LINE",
"533 645 LINE SMOOTH",
"593 645 OFFCURVE",
"605 594 OFFCURVE",
"605 552 CURVE SMOOTH",
"605 536 OFFCURVE",
"603 521 OFFCURVE",
"602 511 CURVE",
"638 511 LINE",
"677 700 LINE",
"116 700 LINE",
"108 662 LINE",
"137 662 LINE SMOOTH",
"169 662 OFFCURVE",
"184 653 OFFCURVE",
"184 635 CURVE SMOOTH",
"184 631 OFFCURVE",
"184 628 OFFCURVE",
"183 624 CURVE SMOOTH",
"71 75 LINE SMOOTH",
"66 49 OFFCURVE",
"47 37 OFFCURVE",
"10 37 CURVE SMOOTH",
"-19 37 LINE",
"-26 0 LINE"
);
},
{
closed = 1;
nodes = (
"478 245 LINE",
"526 484 LINE",
"496 484 LINE",
"484 438 OFFCURVE",
"469 392 OFFCURVE",
"426 392 CURVE SMOOTH",
"225 392 LINE",
"213 337 LINE",
"415 337 LINE SMOOTH",
"444 337 OFFCURVE",
"451 316 OFFCURVE",
"451 288 CURVE SMOOTH",
"451 275 OFFCURVE",
"450 260 OFFCURVE",
"448 245 CURVE"
);
},
{
closed = 1;
nodes = (
"428 867 LINE SMOOTH",
"444 878 OFFCURVE",
"458 888 OFFCURVE",
"468 888 CURVE SMOOTH",
"476 888 OFFCURVE",
"487 880 OFFCURVE",
"496 871 CURVE SMOOTH",
"592 777 LINE",
"619 803 LINE",
"518 960 LINE",
"447 960 LINE",
"281 803 LINE",
"298 777 LINE"
);
},
{
closed = 1;
nodes = (
"363 1019 OFFCURVE",
"382 1038 OFFCURVE",
"414 1038 CURVE SMOOTH",
"467 1038 OFFCURVE",
"505 989 OFFCURVE",
"556 989 CURVE SMOOTH",
"617 989 OFFCURVE",
"660 1055 OFFCURVE",
"684 1102 CURVE",
"662 1118 LINE",
"637 1077 OFFCURVE",
"619 1058 OFFCURVE",
"588 1058 CURVE SMOOTH",
"537 1058 OFFCURVE",
"497 1106 OFFCURVE",
"446 1106 CURVE SMOOTH",
"385 1106 OFFCURVE",
"341 1043 OFFCURVE",
"318 995 CURVE",
"339 980 LINE"
);
}
);
width = 623;
}
);
note = Ecircumflextilde;
rightKerningGroup = E;
unicode = 1EC4;
},
{
glyphname = Edieresis;
lastChange = "2015-12-01 12:25:41 +0000";
layers = (
{
layerId = "55173EE3-C87E-4AFC-850A-D9B4D5493314";
name = "Bold Italic";
paths = (
{
closed = 1;
nodes = (
"534 0 LINE",
"591 191 LINE",
"555 191 LINE",
"533 126 OFFCURVE",
"499 54 OFFCURVE",
"433 54 CURVE SMOOTH",
"214 54 LINE",
"335 645 LINE",
"533 645 LINE SMOOTH",
"593 645 OFFCURVE",
"605 594 OFFCURVE",
"605 552 CURVE SMOOTH",
"605 536 OFFCURVE",
"603 521 OFFCURVE",
"602 511 CURVE",
"638 511 LINE",
"677 700 LINE",
"116 700 LINE",
"108 662 LINE",
"137 662 LINE SMOOTH",
"169 662 OFFCURVE",
"184 653 OFFCURVE",
"184 635 CURVE SMOOTH",
"184 631 OFFCURVE",
"184 628 OFFCURVE",
"183 624 CURVE SMOOTH",
"71 75 LINE SMOOTH",
"66 49 OFFCURVE",
"47 37 OFFCURVE",
"10 37 CURVE SMOOTH",
"-19 37 LINE",
"-26 0 LINE"
);
},
{
closed = 1;
nodes = (
"478 245 LINE",
"526 484 LINE",
"496 484 LINE",
"484 438 OFFCURVE",
"469 392 OFFCURVE",
"426 392 CURVE SMOOTH",
"225 392 LINE",
"213 337 LINE",
"415 337 LINE SMOOTH",
"444 337 OFFCURVE",
"451 316 OFFCURVE",
"451 288 CURVE SMOOTH",
"451 275 OFFCURVE",
"450 260 OFFCURVE",
"448 245 CURVE"
);
},
{
closed = 1;
nodes = (
"396 778 OFFCURVE",
"424 804 OFFCURVE",
"432 838 CURVE",
"433 843 OFFCURVE",
"433 848 OFFCURVE",
"433 853 CURVE SMOOTH",
"433 881 OFFCURVE",
"416 900 OFFCURVE",
"385 900 CURVE SMOOTH",
"349 900 OFFCURVE",
"322 874 OFFCURVE",
"315 838 CURVE",
"314 832 OFFCURVE",
"313 827 OFFCURVE",
"313 822 CURVE SMOOTH",
"313 796 OFFCURVE",
"330 778 OFFCURVE",
"360 778 CURVE SMOOTH"
);
},
{
closed = 1;
nodes = (
"619 778 OFFCURVE",
"647 804 OFFCURVE",
"655 838 CURVE",
"656 843 OFFCURVE",
"656 847 OFFCURVE",
"656 852 CURVE SMOOTH",
"656 880 OFFCURVE",
"639 900 OFFCURVE",
"609 900 CURVE SMOOTH",
"571 900 OFFCURVE",
"543 874 OFFCURVE",
"537 838 CURVE",
"536 832 OFFCURVE",
"535 827 OFFCURVE",
"535 822 CURVE SMOOTH",
"535 796 OFFCURVE",
"552 778 OFFCURVE",
"584 778 CURVE SMOOTH"
);
}
);
width = 623;
}
);
note = Edieresis;
rightKerningGroup = E;
unicode = 00CB;
},
{
glyphname = Edotaccent;
lastChange = "2015-12-01 12:25:40 +0000";
layers = (
{
layerId = "55173EE3-C87E-4AFC-850A-D9B4D5493314";
name = "Bold Italic";
paths = (
{
closed = 1;
nodes = (
"534 0 LINE",
"591 191 LINE",
"555 191 LINE",
"533 126 OFFCURVE",
"499 54 OFFCURVE",
"433 54 CURVE SMOOTH",
"214 54 LINE",
"335 645 LINE",
"533 645 LINE SMOOTH",
"593 645 OFFCURVE",
"605 594 OFFCURVE",
"605 552 CURVE SMOOTH",
"605 536 OFFCURVE",
"603 521 OFFCURVE",
"602 511 CURVE",
"638 511 LINE",
"677 700 LINE",
"116 700 LINE",
"108 662 LINE",
"137 662 LINE SMOOTH",
"169 662 OFFCURVE",
"184 653 OFFCURVE",
"184 635 CURVE SMOOTH",
"184 631 OFFCURVE",
"184 628 OFFCURVE",
"183 624 CURVE SMOOTH",
"71 75 LINE SMOOTH",
"66 49 OFFCURVE",
"47 37 OFFCURVE",
"10 37 CURVE SMOOTH",
"-19 37 LINE",
"-26 0 LINE"
);
},
{
closed = 1;
nodes = (
"478 245 LINE",
"526 484 LINE",
"496 484 LINE",
"484 438 OFFCURVE",
"469 392 OFFCURVE",
"426 392 CURVE SMOOTH",
"225 392 LINE",
"213 337 LINE",
"415 337 LINE SMOOTH",
"444 337 OFFCURVE",
"451 316 OFFCURVE",
"451 288 CURVE SMOOTH",
"451 275 OFFCURVE",
"450 260 OFFCURVE",
"448 245 CURVE"
);
},
{
closed = 1;
nodes = (
"511 770 OFFCURVE",
"543 804 OFFCURVE",
"543 845 CURVE SMOOTH",
"543 872 OFFCURVE",
"526 892 OFFCURVE",
"495 892 CURVE SMOOTH",
"455 892 OFFCURVE",
"423 858 OFFCURVE",
"423 817 CURVE SMOOTH",
"423 789 OFFCURVE",
"439 770 OFFCURVE",
"470 770 CURVE SMOOTH"
);
}
);
width = 623;
}
);
note = Edotaccent;
rightKerningGroup = E;
unicode = 0116;
},
{
glyphname = Edotbelow;
lastChange = "2015-12-01 12:25:40 +0000";
layers = (
{
layerId = "55173EE3-C87E-4AFC-850A-D9B4D5493314";
name = "Bold Italic";
paths = (
{
closed = 1;
nodes = (
"534 0 LINE",
"591 191 LINE",
"555 191 LINE",
"533 126 OFFCURVE",
"499 54 OFFCURVE",
"433 54 CURVE SMOOTH",
"214 54 LINE",
"335 645 LINE",
"533 645 LINE SMOOTH",
"593 645 OFFCURVE",
"605 594 OFFCURVE",
"605 552 CURVE SMOOTH",
"605 536 OFFCURVE",
"603 521 OFFCURVE",
"602 511 CURVE",
"638 511 LINE",
"677 700 LINE",
"116 700 LINE",
"108 662 LINE",
"137 662 LINE SMOOTH",
"169 662 OFFCURVE",
"184 653 OFFCURVE",
"184 635 CURVE SMOOTH",
"184 631 OFFCURVE",
"184 628 OFFCURVE",
"183 624 CURVE SMOOTH",
"71 75 LINE SMOOTH",
"66 49 OFFCURVE",
"47 37 OFFCURVE",
"10 37 CURVE SMOOTH",
"-19 37 LINE",
"-26 0 LINE"
);
},
{
closed = 1;
nodes = (
"277 -188 OFFCURVE",
"305 -161 OFFCURVE",
"313 -127 CURVE SMOOTH",
"314 -122 OFFCURVE",
"314 -117 OFFCURVE",
"314 -112 CURVE SMOOTH",
"314 -85 OFFCURVE",
"297 -64 OFFCURVE",
"267 -64 CURVE SMOOTH",
"225 -64 OFFCURVE",
"193 -101 OFFCURVE",
"193 -142 CURVE SMOOTH",
"193 -169 OFFCURVE",
"211 -188 OFFCURVE",
"242 -188 CURVE SMOOTH"
);
},
{
closed = 1;
nodes = (
"478 245 LINE",
"526 484 LINE",
"496 484 LINE",
"484 438 OFFCURVE",
"469 392 OFFCURVE",
"426 392 CURVE SMOOTH",
"225 392 LINE",
"213 337 LINE",
"415 337 LINE SMOOTH",
"444 337 OFFCURVE",
"451 316 OFFCURVE",
"451 288 CURVE SMOOTH",
"451 275 OFFCURVE",
"450 260 OFFCURVE",
"448 245 CURVE"
);
}
);
width = 623;
}
);
note = Edotbelow;
rightKerningGroup = E;
unicode = 1EB8;
},
{
glyphname = Egrave;
lastChange = "2015-12-01 12:25:41 +0000";
layers = (
{
layerId = "55173EE3-C87E-4AFC-850A-D9B4D5493314";
name = "Bold Italic";
paths = (
{
closed = 1;
nodes = (
"534 0 LINE",
"591 191 LINE",
"555 191 LINE",
"533 126 OFFCURVE",
"499 54 OFFCURVE",
"433 54 CURVE SMOOTH",
"214 54 LINE",
"335 645 LINE",
"533 645 LINE SMOOTH",
"593 645 OFFCURVE",
"605 594 OFFCURVE",
"605 552 CURVE SMOOTH",
"605 536 OFFCURVE",
"603 521 OFFCURVE",
"602 511 CURVE",
"638 511 LINE",
"677 700 LINE",
"116 700 LINE",
"108 662 LINE",
"137 662 LINE SMOOTH",
"169 662 OFFCURVE",
"184 653 OFFCURVE",
"184 635 CURVE SMOOTH",
"184 631 OFFCURVE",
"184 628 OFFCURVE",
"183 624 CURVE SMOOTH",
"71 75 LINE SMOOTH",
"66 49 OFFCURVE",
"47 37 OFFCURVE",
"10 37 CURVE SMOOTH",
"-19 37 LINE",
"-26 0 LINE"
);
},
{
closed = 1;
nodes = (
"478 245 LINE",
"526 484 LINE",
"496 484 LINE",
"484 438 OFFCURVE",
"469 392 OFFCURVE",
"426 392 CURVE SMOOTH",
"225 392 LINE",
"213 337 LINE",
"415 337 LINE SMOOTH",
"444 337 OFFCURVE",
"451 316 OFFCURVE",
"451 288 CURVE SMOOTH",
"451 275 OFFCURVE",
"450 260 OFFCURVE",
"448 245 CURVE"
);
},
{
closed = 1;
nodes = (
"583 815 LINE",
"492 937 LINE",
"486 946 OFFCURVE",
"468 971 OFFCURVE",
"439 971 CURVE SMOOTH",
"400 971 OFFCURVE",
"383 940 OFFCURVE",
"383 919 CURVE SMOOTH",
"383 900 OFFCURVE",
"395 884 OFFCURVE",
"416 869 CURVE SMOOTH",
"549 777 LINE"
);
}
);
width = 623;
}
);
note = Egrave;
rightKerningGroup = E;
unicode = 00C8;
},
{
glyphname = Ehookabove;
lastChange = "2015-12-01 12:25:41 +0000";
layers = (
{
layerId = "55173EE3-C87E-4AFC-850A-D9B4D5493314";
name = "Bold Italic";
paths = (
{
closed = 1;
nodes = (
"534 0 LINE",
"591 191 LINE",
"555 191 LINE",
"533 126 OFFCURVE",
"499 54 OFFCURVE",
"433 54 CURVE SMOOTH",
"214 54 LINE",
"335 645 LINE",
"533 645 LINE SMOOTH",
"593 645 OFFCURVE",
"605 594 OFFCURVE",
"605 552 CURVE SMOOTH",
"605 536 OFFCURVE",
"603 521 OFFCURVE",
"602 511 CURVE",
"638 511 LINE",
"677 700 LINE",
"116 700 LINE",
"108 662 LINE",
"137 662 LINE SMOOTH",
"169 662 OFFCURVE",
"184 653 OFFCURVE",
"184 635 CURVE SMOOTH",
"184 631 OFFCURVE",
"184 628 OFFCURVE",
"183 624 CURVE SMOOTH",
"71 75 LINE SMOOTH",
"66 49 OFFCURVE",
"47 37 OFFCURVE",
"10 37 CURVE SMOOTH",
"-19 37 LINE",
"-26 0 LINE"
);
},
{
closed = 1;
nodes = (
"478 245 LINE",
"526 484 LINE",
"496 484 LINE",
"484 438 OFFCURVE",
"469 392 OFFCURVE",
"426 392 CURVE SMOOTH",
"225 392 LINE",
"213 337 LINE",
"415 337 LINE SMOOTH",
"444 337 OFFCURVE",
"451 316 OFFCURVE",
"451 288 CURVE SMOOTH",
"451 275 OFFCURVE",
"450 260 OFFCURVE",
"448 245 CURVE"
);
},
{
closed = 1;
nodes = (
"508 801 LINE",
"494 804 OFFCURVE",
"483 809 OFFCURVE",
"483 822 CURVE SMOOTH",
"483 871 OFFCURVE",
"607 878 OFFCURVE",
"607 954 CURVE SMOOTH",
"607 993 OFFCURVE",
"570 1013 OFFCURVE",
"518 1013 CURVE SMOOTH",
"447 1013 OFFCURVE",
"405 980 OFFCURVE",
"405 945 CURVE SMOOTH",
"405 929 OFFCURVE",
"416 922 OFFCURVE",
"429 922 CURVE SMOOTH",
"452 922 OFFCURVE",
"464 942 OFFCURVE",
"468 952 CURVE SMOOTH",
"475 973 OFFCURVE",
"495 979 OFFCURVE",
"512 979 CURVE SMOOTH",
"531 979 OFFCURVE",
"540 963 OFFCURVE",
"537 946 CURVE SMOOTH",
"525 888 OFFCURVE",
"426 880 OFFCURVE",
"426 820 CURVE SMOOTH",
"426 795 OFFCURVE",
"449 777 OFFCURVE",
"493 777 CURVE"
);
}
);
width = 623;
}
);
note = Ehookabove;
rightKerningGroup = E;
unicode = 1EBA;
},
{
glyphname = Emacron;
lastChange = "2015-12-01 12:25:41 +0000";
layers = (
{
layerId = "55173EE3-C87E-4AFC-850A-D9B4D5493314";
name = "Bold Italic";
paths = (
{
closed = 1;
nodes = (
"534 0 LINE",
"591 191 LINE",
"555 191 LINE",
"533 126 OFFCURVE",
"499 54 OFFCURVE",
"433 54 CURVE SMOOTH",
"214 54 LINE",
"335 645 LINE",
"533 645 LINE SMOOTH",
"593 645 OFFCURVE",
"605 594 OFFCURVE",
"605 552 CURVE SMOOTH",
"605 536 OFFCURVE",
"603 521 OFFCURVE",
"602 511 CURVE",
"638 511 LINE",
"677 700 LINE",
"116 700 LINE",
"108 662 LINE",
"137 662 LINE SMOOTH",
"169 662 OFFCURVE",
"184 653 OFFCURVE",
"184 635 CURVE SMOOTH",
"184 631 OFFCURVE",
"184 628 OFFCURVE",
"183 624 CURVE SMOOTH",
"71 75 LINE SMOOTH",
"66 49 OFFCURVE",
"47 37 OFFCURVE",
"10 37 CURVE SMOOTH",
"-19 37 LINE",
"-26 0 LINE"
);
},
{
closed = 1;
nodes = (
"478 245 LINE",
"526 484 LINE",
"496 484 LINE",
"484 438 OFFCURVE",
"469 392 OFFCURVE",
"426 392 CURVE SMOOTH",
"225 392 LINE",
"213 337 LINE",
"415 337 LINE SMOOTH",
"444 337 OFFCURVE",
"451 316 OFFCURVE",
"451 288 CURVE SMOOTH",
"451 275 OFFCURVE",
"450 260 OFFCURVE",
"448 245 CURVE"
);
},
{
closed = 1;
nodes = (
"646 778 LINE",
"658 837 LINE",
"293 837 LINE",
"281 778 LINE"
);
}
);
width = 623;
}
);
note = Emacron;
rightKerningGroup = E;
unicode = 0112;
},
{
glyphname = Eogonek;
lastChange = "2015-12-01 12:25:41 +0000";
layers = (
{
layerId = "55173EE3-C87E-4AFC-850A-D9B4D5493314";
name = "Bold Italic";
paths = (
{
closed = 1;
nodes = (
"534 0 LINE",
"591 191 LINE",
"555 191 LINE",
"533 126 OFFCURVE",
"499 54 OFFCURVE",
"433 54 CURVE SMOOTH",
"214 54 LINE",
"335 645 LINE",
"533 645 LINE SMOOTH",
"593 645 OFFCURVE",
"605 594 OFFCURVE",
"605 552 CURVE SMOOTH",
"605 536 OFFCURVE",
"603 521 OFFCURVE",
"602 511 CURVE",
"638 511 LINE",
"677 700 LINE",
"116 700 LINE",
"108 662 LINE",
"137 662 LINE SMOOTH",
"169 662 OFFCURVE",
"184 653 OFFCURVE",
"184 635 CURVE SMOOTH",
"184 631 OFFCURVE",
"184 628 OFFCURVE",
"183 624 CURVE SMOOTH",
"71 75 LINE SMOOTH",
"66 49 OFFCURVE",
"47 37 OFFCURVE",
"10 37 CURVE SMOOTH",
"-19 37 LINE",
"-26 0 LINE"
);
},
{
closed = 1;
nodes = (
"433 -220 OFFCURVE",
"469 -209 OFFCURVE",
"504 -185 CURVE",
"498 -161 LINE",
"484 -168 OFFCURVE",
"464 -173 OFFCURVE",
"451 -173 CURVE SMOOTH",
"423 -173 OFFCURVE",
"403 -159 OFFCURVE",
"403 -129 CURVE SMOOTH",
"403 -124 OFFCURVE",
"404 -119 OFFCURVE",
"405 -113 CURVE SMOOTH",
"414 -72 OFFCURVE",
"445 -30 OFFCURVE",
"501 8 CURVE",
"450 8 LINE",
"387 -23 OFFCURVE",
"328 -72 OFFCURVE",
"318 -127 CURVE SMOOTH",
"317 -133 OFFCURVE",
"316 -141 OFFCURVE",
"316 -148 CURVE SMOOTH",
"316 -182 OFFCURVE",
"334 -220 OFFCURVE",
"405 -220 CURVE SMOOTH"
);
},
{
closed = 1;
nodes = (
"478 245 LINE",
"526 484 LINE",
"496 484 LINE",
"484 438 OFFCURVE",
"469 392 OFFCURVE",
"426 392 CURVE SMOOTH",
"225 392 LINE",
"213 337 LINE",
"415 337 LINE SMOOTH",
"444 337 OFFCURVE",
"451 316 OFFCURVE",
"451 288 CURVE SMOOTH",
"451 275 OFFCURVE",
"450 260 OFFCURVE",
"448 245 CURVE"
);
}
);
width = 623;
}
);
note = Eogonek;
rightKerningGroup = E;
unicode = 0118;
},
{
glyphname = Etilde;
lastChange = "2015-12-01 12:25:39 +0000";
layers = (
{
layerId = "55173EE3-C87E-4AFC-850A-D9B4D5493314";
name = "Bold Italic";
paths = (
{
closed = 1;
nodes = (
"534 0 LINE",
"591 191 LINE",
"555 191 LINE",
"533 126 OFFCURVE",
"499 54 OFFCURVE",
"433 54 CURVE SMOOTH",
"214 54 LINE",
"335 645 LINE",
"533 645 LINE SMOOTH",
"593 645 OFFCURVE",
"605 594 OFFCURVE",
"605 552 CURVE SMOOTH",
"605 536 OFFCURVE",
"603 521 OFFCURVE",
"602 511 CURVE",
"638 511 LINE",
"677 700 LINE",
"116 700 LINE",
"108 662 LINE",
"137 662 LINE SMOOTH",
"169 662 OFFCURVE",
"184 653 OFFCURVE",
"184 635 CURVE SMOOTH",
"184 631 OFFCURVE",
"184 628 OFFCURVE",
"183 624 CURVE SMOOTH",
"71 75 LINE SMOOTH",
"66 49 OFFCURVE",
"47 37 OFFCURVE",
"10 37 CURVE SMOOTH",
"-19 37 LINE",
"-26 0 LINE"
);
},
{
closed = 1;
nodes = (
"478 245 LINE",
"526 484 LINE",
"496 484 LINE",
"484 438 OFFCURVE",
"469 392 OFFCURVE",
"426 392 CURVE SMOOTH",
"225 392 LINE",
"213 337 LINE",
"415 337 LINE SMOOTH",
"444 337 OFFCURVE",
"451 316 OFFCURVE",
"451 288 CURVE SMOOTH",
"451 275 OFFCURVE",
"450 260 OFFCURVE",
"448 245 CURVE"
);
},
{
closed = 1;
nodes = (
"325 813 OFFCURVE",
"346 832 OFFCURVE",
"380 832 CURVE SMOOTH",
"437 832 OFFCURVE",
"478 783 OFFCURVE",
"534 783 CURVE SMOOTH",
"602 783 OFFCURVE",
"646 848 OFFCURVE",
"671 896 CURVE",
"647 911 LINE",
"621 871 OFFCURVE",
"603 852 OFFCURVE",
"567 852 CURVE SMOOTH",
"512 852 OFFCURVE",
"468 900 OFFCURVE",
"413 900 CURVE SMOOTH",
"347 900 OFFCURVE",
"300 837 OFFCURVE",
"275 789 CURVE",
"299 774 LINE"
);
}
);
width = 623;
}
);
note = Etilde;
rightKerningGroup = E;
unicode = 1EBC;
},
{
glyphname = F;
lastChange = "2015-12-01 12:25:40 +0000";
layers = (
{
layerId = "55173EE3-C87E-4AFC-850A-D9B4D5493314";
name = "Bold Italic";
paths = (
{
closed = 1;
nodes = (
"287 0 LINE",
"294 37 LINE",
"265 37 LINE SMOOTH",
"233 37 OFFCURVE",
"218 46 OFFCURVE",
"218 66 CURVE SMOOTH",
"218 68 OFFCURVE",
"218 72 OFFCURVE",
"219 75 CURVE SMOOTH",
"336 645 LINE",
"534 645 LINE SMOOTH",
"594 645 OFFCURVE",
"605 593 OFFCURVE",
"605 550 CURVE SMOOTH",
"605 535 OFFCURVE",
"604 521 OFFCURVE",
"603 511 CURVE",
"639 511 LINE",
"678 700 LINE",
"116 700 LINE",
"108 662 LINE",
"138 662 LINE SMOOTH",
"170 662 OFFCURVE",
"185 653 OFFCURVE",
"185 634 CURVE SMOOTH",
"185 631 OFFCURVE",
"185 628 OFFCURVE",
"184 624 CURVE SMOOTH",
"72 75 LINE SMOOTH",
"67 49 OFFCURVE",
"47 37 OFFCURVE",
"11 37 CURVE SMOOTH",
"-19 37 LINE",
"-26 0 LINE"
);
},
{
closed = 1;
nodes = (
"467 213 LINE",
"515 451 LINE",
"484 451 LINE",
"471 405 OFFCURVE",
"457 359 OFFCURVE",
"414 359 CURVE SMOOTH",
"221 359 LINE",
"209 305 LINE",
"402 305 LINE SMOOTH",
"432 305 OFFCURVE",
"439 283 OFFCURVE",
"439 254 CURVE SMOOTH",
"439 241 OFFCURVE",
"438 227 OFFCURVE",
"436 213 CURVE"
);
}
);
width = 608;
}
);
note = F;
unicode = 0046;
},
{
glyphname = G;
lastChange = "2015-12-01 12:25:35 +0000";
layers = (
{
layerId = "55173EE3-C87E-4AFC-850A-D9B4D5493314";
name = "Bold Italic";
paths = (
{
closed = 1;
nodes = (
"442 -10 OFFCURVE",
"527 8 OFFCURVE",
"628 66 CURVE",
"666 255 LINE SMOOTH",
"677 307 OFFCURVE",
"693 324 OFFCURVE",
"734 324 CURVE",
"744 331 LINE",
"748 349 LINE",
"462 349 LINE",
"455 318 LINE",
"468 318 LINE SMOOTH",
"511 318 OFFCURVE",
"529 303 OFFCURVE",
"529 280 CURVE SMOOTH",
"529 276 OFFCURVE",
"528 272 OFFCURVE",
"527 268 CURVE SMOOTH",
"488 75 LINE",
"448 52 OFFCURVE",
"397 46 OFFCURVE",
"361 46 CURVE SMOOTH",
"255 46 OFFCURVE",
"203 116 OFFCURVE",
"203 235 CURVE SMOOTH",
"203 269 OFFCURVE",
"207 308 OFFCURVE",
"216 350 CURVE SMOOTH",
"254 537 OFFCURVE",
"364 653 OFFCURVE",
"502 653 CURVE SMOOTH",
"585 653 OFFCURVE",
"663 613 OFFCURVE",
"663 515 CURVE SMOOTH",
"663 510 OFFCURVE",
"662 505 OFFCURVE",
"662 499 CURVE",
"704 499 LINE",
"745 705 LINE",
"696 705 LINE",
"687 660 LINE",
"685 652 OFFCURVE",
"681 649 OFFCURVE",
"675 649 CURVE SMOOTH",
"672 649 OFFCURVE",
"670 650 OFFCURVE",
"667 652 CURVE",
"632 687 OFFCURVE",
"559 710 OFFCURVE",
"481 710 CURVE SMOOTH",
"259 710 OFFCURVE",
"111 568 OFFCURVE",
"67 350 CURVE SMOOTH",
"59 312 OFFCURVE",
"55 277 OFFCURVE",
"55 244 CURVE SMOOTH",
"55 86 OFFCURVE",
"145 -10 OFFCURVE",
"330 -10 CURVE SMOOTH"
);
}
);
width = 722;
}
);
leftKerningGroup = G;
note = G;
rightKerningGroup = G;
unicode = 0047;
},
{
glyphname = Gbreve;
lastChange = "2015-12-01 12:25:40 +0000";
layers = (
{
layerId = "55173EE3-C87E-4AFC-850A-D9B4D5493314";
name = "Bold Italic";
paths = (
{
closed = 1;
nodes = (
"442 -10 OFFCURVE",
"527 8 OFFCURVE",
"628 66 CURVE",
"666 255 LINE SMOOTH",
"677 307 OFFCURVE",
"693 324 OFFCURVE",
"734 324 CURVE",
"744 331 LINE",
"748 349 LINE",
"462 349 LINE",
"455 318 LINE",
"468 318 LINE SMOOTH",
"511 318 OFFCURVE",
"529 303 OFFCURVE",
"529 280 CURVE SMOOTH",
"529 276 OFFCURVE",
"528 272 OFFCURVE",
"527 268 CURVE SMOOTH",
"488 75 LINE",
"448 52 OFFCURVE",
"397 46 OFFCURVE",
"361 46 CURVE SMOOTH",
"255 46 OFFCURVE",
"203 116 OFFCURVE",
"203 235 CURVE SMOOTH",
"203 269 OFFCURVE",
"207 308 OFFCURVE",
"216 350 CURVE SMOOTH",
"254 537 OFFCURVE",
"364 653 OFFCURVE",
"502 653 CURVE SMOOTH",
"585 653 OFFCURVE",
"663 613 OFFCURVE",
"663 515 CURVE SMOOTH",
"663 510 OFFCURVE",
"662 505 OFFCURVE",
"662 499 CURVE",
"704 499 LINE",
"745 705 LINE",
"696 705 LINE",
"687 660 LINE",
"685 652 OFFCURVE",
"681 649 OFFCURVE",
"675 649 CURVE SMOOTH",
"672 649 OFFCURVE",
"670 650 OFFCURVE",
"667 652 CURVE",
"632 687 OFFCURVE",
"559 710 OFFCURVE",
"481 710 CURVE SMOOTH",
"259 710 OFFCURVE",
"111 568 OFFCURVE",
"67 350 CURVE SMOOTH",
"59 312 OFFCURVE",
"55 277 OFFCURVE",
"55 244 CURVE SMOOTH",
"55 86 OFFCURVE",
"145 -10 OFFCURVE",
"330 -10 CURVE SMOOTH"
);
},
{
closed = 1;
nodes = (
"612 784 OFFCURVE",
"660 857 OFFCURVE",
"677 930 CURVE",
"638 930 LINE",
"626 888 OFFCURVE",
"588 849 OFFCURVE",
"507 849 CURVE SMOOTH",
"425 849 OFFCURVE",
"403 888 OFFCURVE",
"407 930 CURVE",
"371 930 LINE",
"368 916 OFFCURVE",
"367 902 OFFCURVE",
"367 888 CURVE SMOOTH",
"367 830 OFFCURVE",
"397 784 OFFCURVE",
"494 784 CURVE SMOOTH"
);
}
);
width = 722;
}
);
leftKerningGroup = G;
note = Gbreve;
rightKerningGroup = G;
unicode = 011E;
},
{
glyphname = Gcaron;
lastChange = "2015-12-01 12:25:41 +0000";
layers = (
{
layerId = "55173EE3-C87E-4AFC-850A-D9B4D5493314";
name = "Bold Italic";
paths = (
{
closed = 1;
nodes = (
"442 -10 OFFCURVE",
"527 8 OFFCURVE",
"628 66 CURVE",
"666 255 LINE SMOOTH",
"677 307 OFFCURVE",
"693 324 OFFCURVE",
"734 324 CURVE",
"744 331 LINE",
"748 349 LINE",
"462 349 LINE",
"455 318 LINE",
"468 318 LINE SMOOTH",
"511 318 OFFCURVE",
"529 303 OFFCURVE",
"529 280 CURVE SMOOTH",
"529 276 OFFCURVE",
"528 272 OFFCURVE",
"527 268 CURVE SMOOTH",
"488 75 LINE",
"448 52 OFFCURVE",
"397 46 OFFCURVE",
"361 46 CURVE SMOOTH",
"255 46 OFFCURVE",
"203 116 OFFCURVE",
"203 235 CURVE SMOOTH",
"203 269 OFFCURVE",
"207 308 OFFCURVE",
"216 350 CURVE SMOOTH",
"254 537 OFFCURVE",
"364 653 OFFCURVE",
"502 653 CURVE SMOOTH",
"585 653 OFFCURVE",
"663 613 OFFCURVE",
"663 515 CURVE SMOOTH",
"663 510 OFFCURVE",
"662 505 OFFCURVE",
"662 499 CURVE",
"704 499 LINE",
"745 705 LINE",
"696 705 LINE",
"687 660 LINE",
"685 652 OFFCURVE",
"681 649 OFFCURVE",
"675 649 CURVE SMOOTH",
"672 649 OFFCURVE",
"670 650 OFFCURVE",
"667 652 CURVE",
"632 687 OFFCURVE",
"559 710 OFFCURVE",
"481 710 CURVE SMOOTH",
"259 710 OFFCURVE",
"111 568 OFFCURVE",
"67 350 CURVE SMOOTH",
"59 312 OFFCURVE",
"55 277 OFFCURVE",
"55 244 CURVE SMOOTH",
"55 86 OFFCURVE",
"145 -10 OFFCURVE",
"330 -10 CURVE SMOOTH"
);
},
{
closed = 1;
nodes = (
"553 778 LINE",
"724 935 LINE",
"707 961 LINE",
"567 866 LINE SMOOTH",
"554 857 OFFCURVE",
"540 850 OFFCURVE",
"532 850 CURVE SMOOTH",
"523 850 OFFCURVE",
"514 857 OFFCURVE",
"503 866 CURVE",
"402 961 LINE",
"374 935 LINE",
"481 778 LINE"
);
}
);
width = 722;
}
);
leftKerningGroup = G;
note = Gcaron;
rightKerningGroup = G;
unicode = 01E6;
},
{
glyphname = Gcircumflex;
lastChange = "2015-12-01 12:25:39 +0000";
layers = (
{
layerId = "55173EE3-C87E-4AFC-850A-D9B4D5493314";
name = "Bold Italic";
paths = (
{
closed = 1;
nodes = (
"442 -10 OFFCURVE",
"527 8 OFFCURVE",
"628 66 CURVE",
"666 255 LINE SMOOTH",
"677 307 OFFCURVE",
"693 324 OFFCURVE",
"734 324 CURVE",
"744 331 LINE",
"748 349 LINE",
"462 349 LINE",
"455 318 LINE",
"468 318 LINE SMOOTH",
"511 318 OFFCURVE",
"529 303 OFFCURVE",
"529 280 CURVE SMOOTH",
"529 276 OFFCURVE",
"528 272 OFFCURVE",
"527 268 CURVE SMOOTH",
"488 75 LINE",
"448 52 OFFCURVE",
"397 46 OFFCURVE",
"361 46 CURVE SMOOTH",
"255 46 OFFCURVE",
"203 116 OFFCURVE",
"203 235 CURVE SMOOTH",
"203 269 OFFCURVE",
"207 308 OFFCURVE",
"216 350 CURVE SMOOTH",
"254 537 OFFCURVE",
"364 653 OFFCURVE",
"502 653 CURVE SMOOTH",
"585 653 OFFCURVE",
"663 613 OFFCURVE",
"663 515 CURVE SMOOTH",
"663 510 OFFCURVE",
"662 505 OFFCURVE",
"662 499 CURVE",
"704 499 LINE",
"745 705 LINE",
"696 705 LINE",
"687 660 LINE",
"685 652 OFFCURVE",
"681 649 OFFCURVE",
"675 649 CURVE SMOOTH",
"672 649 OFFCURVE",
"670 650 OFFCURVE",
"667 652 CURVE",
"632 687 OFFCURVE",
"559 710 OFFCURVE",
"481 710 CURVE SMOOTH",
"259 710 OFFCURVE",
"111 568 OFFCURVE",
"67 350 CURVE SMOOTH",
"59 312 OFFCURVE",
"55 277 OFFCURVE",
"55 244 CURVE SMOOTH",
"55 86 OFFCURVE",
"145 -10 OFFCURVE",
"330 -10 CURVE SMOOTH"
);
},
{
closed = 1;
nodes = (
"489 881 LINE SMOOTH",
"502 890 OFFCURVE",
"516 897 OFFCURVE",
"525 897 CURVE SMOOTH",
"534 897 OFFCURVE",
"543 890 OFFCURVE",
"553 881 CURVE SMOOTH",
"654 786 LINE",
"682 812 LINE",
"575 969 LINE",
"503 969 LINE",
"332 812 LINE",
"350 786 LINE"
);
}
);
width = 722;
}
);
leftKerningGroup = G;
note = Gcircumflex;
rightKerningGroup = G;
unicode = 011C;
},
{
glyphname = Gcommaaccent;
lastChange = "2015-12-01 12:25:41 +0000";
layers = (
{
layerId = "55173EE3-C87E-4AFC-850A-D9B4D5493314";
name = "Bold Italic";
paths = (
{
closed = 1;
nodes = (
"442 -10 OFFCURVE",
"527 8 OFFCURVE",
"628 66 CURVE",
"666 255 LINE SMOOTH",
"677 307 OFFCURVE",
"693 324 OFFCURVE",
"734 324 CURVE",
"744 331 LINE",
"748 349 LINE",
"462 349 LINE",
"455 318 LINE",
"468 318 LINE SMOOTH",
"511 318 OFFCURVE",
"529 303 OFFCURVE",
"529 280 CURVE SMOOTH",
"529 276 OFFCURVE",
"528 272 OFFCURVE",
"527 268 CURVE SMOOTH",
"488 75 LINE",
"448 52 OFFCURVE",
"397 46 OFFCURVE",
"361 46 CURVE SMOOTH",
"255 46 OFFCURVE",
"203 116 OFFCURVE",
"203 235 CURVE SMOOTH",
"203 269 OFFCURVE",
"207 308 OFFCURVE",
"216 350 CURVE SMOOTH",
"254 537 OFFCURVE",
"364 653 OFFCURVE",
"502 653 CURVE SMOOTH",
"585 653 OFFCURVE",
"663 613 OFFCURVE",
"663 515 CURVE SMOOTH",
"663 510 OFFCURVE",
"662 505 OFFCURVE",
"662 499 CURVE",
"704 499 LINE",
"745 705 LINE",
"696 705 LINE",
"687 660 LINE",
"685 652 OFFCURVE",
"681 649 OFFCURVE",
"675 649 CURVE SMOOTH",
"672 649 OFFCURVE",
"670 650 OFFCURVE",
"667 652 CURVE",
"632 687 OFFCURVE",
"559 710 OFFCURVE",
"481 710 CURVE SMOOTH",
"259 710 OFFCURVE",
"111 568 OFFCURVE",
"67 350 CURVE SMOOTH",
"59 312 OFFCURVE",
"55 277 OFFCURVE",
"55 244 CURVE SMOOTH",
"55 86 OFFCURVE",
"145 -10 OFFCURVE",
"330 -10 CURVE SMOOTH"
);
},
{
closed = 1;
nodes = (
"303 -306 OFFCURVE",
"390 -218 OFFCURVE",
"390 -134 CURVE SMOOTH",
"390 -93 OFFCURVE",
"367 -72 OFFCURVE",
"336 -72 CURVE SMOOTH",
"295 -72 OFFCURVE",
"263 -104 OFFCURVE",
"263 -140 CURVE SMOOTH",
"263 -168 OFFCURVE",
"285 -182 OFFCURVE",
"285 -210 CURVE SMOOTH",
"285 -214 OFFCURVE",
"285 -218 OFFCURVE",
"284 -222 CURVE SMOOTH",
"276 -263 OFFCURVE",
"244 -300 OFFCURVE",
"207 -332 CURVE",
"226 -354 LINE"
);
}
);
width = 722;
}
);
leftKerningGroup = G;
note = Gcommaaccent;
rightKerningGroup = G;
unicode = 0122;
},
{
glyphname = Gdotaccent;
lastChange = "2015-12-01 12:25:41 +0000";
layers = (
{
layerId = "55173EE3-C87E-4AFC-850A-D9B4D5493314";
name = "Bold Italic";
paths = (
{
closed = 1;
nodes = (
"442 -10 OFFCURVE",
"527 8 OFFCURVE",
"628 66 CURVE",
"666 255 LINE SMOOTH",
"677 307 OFFCURVE",
"693 324 OFFCURVE",
"734 324 CURVE",
"744 331 LINE",
"748 349 LINE",
"462 349 LINE",
"455 318 LINE",
"468 318 LINE SMOOTH",
"511 318 OFFCURVE",
"529 303 OFFCURVE",
"529 280 CURVE SMOOTH",
"529 276 OFFCURVE",
"528 272 OFFCURVE",
"527 268 CURVE SMOOTH",
"488 75 LINE",
"448 52 OFFCURVE",
"397 46 OFFCURVE",
"361 46 CURVE SMOOTH",
"255 46 OFFCURVE",
"203 116 OFFCURVE",
"203 235 CURVE SMOOTH",
"203 269 OFFCURVE",
"207 308 OFFCURVE",
"216 350 CURVE SMOOTH",
"254 537 OFFCURVE",
"364 653 OFFCURVE",
"502 653 CURVE SMOOTH",
"585 653 OFFCURVE",
"663 613 OFFCURVE",
"663 515 CURVE SMOOTH",
"663 510 OFFCURVE",
"662 505 OFFCURVE",
"662 499 CURVE",
"704 499 LINE",
"745 705 LINE",
"696 705 LINE",
"687 660 LINE",
"685 652 OFFCURVE",
"681 649 OFFCURVE",
"675 649 CURVE SMOOTH",
"672 649 OFFCURVE",
"670 650 OFFCURVE",
"667 652 CURVE",
"632 687 OFFCURVE",
"559 710 OFFCURVE",
"481 710 CURVE SMOOTH",
"259 710 OFFCURVE",
"111 568 OFFCURVE",
"67 350 CURVE SMOOTH",
"59 312 OFFCURVE",
"55 277 OFFCURVE",
"55 244 CURVE SMOOTH",
"55 86 OFFCURVE",
"145 -10 OFFCURVE",
"330 -10 CURVE SMOOTH"
);
},
{
closed = 1;
nodes = (
"545 778 OFFCURVE",
"577 812 OFFCURVE",
"577 852 CURVE SMOOTH",
"577 880 OFFCURVE",
"560 900 OFFCURVE",
"530 900 CURVE SMOOTH",
"488 900 OFFCURVE",
"457 865 OFFCURVE",
"457 823 CURVE SMOOTH",
"457 797 OFFCURVE",
"474 778 OFFCURVE",
"505 778 CURVE SMOOTH"
);
}
);
width = 722;
}
);
leftKerningGroup = G;
note = Gdotaccent;
rightKerningGroup = G;
unicode = 0120;
},
{
glyphname = Gmacron;
lastChange = "2015-12-01 12:25:40 +0000";
layers = (
{
layerId = "55173EE3-C87E-4AFC-850A-D9B4D5493314";
name = "Bold Italic";
paths = (
{
closed = 1;
nodes = (
"442 -10 OFFCURVE",
"527 8 OFFCURVE",
"628 66 CURVE",
"666 255 LINE SMOOTH",
"677 307 OFFCURVE",
"693 324 OFFCURVE",
"734 324 CURVE",
"744 331 LINE",
"748 349 LINE",
"462 349 LINE",
"455 318 LINE",
"468 318 LINE SMOOTH",
"511 318 OFFCURVE",
"529 303 OFFCURVE",
"529 280 CURVE SMOOTH",
"529 276 OFFCURVE",
"528 272 OFFCURVE",
"527 268 CURVE SMOOTH",
"488 75 LINE",
"448 52 OFFCURVE",
"397 46 OFFCURVE",
"361 46 CURVE SMOOTH",
"255 46 OFFCURVE",
"203 116 OFFCURVE",
"203 235 CURVE SMOOTH",
"203 269 OFFCURVE",
"207 308 OFFCURVE",
"216 350 CURVE SMOOTH",
"254 537 OFFCURVE",
"364 653 OFFCURVE",
"502 653 CURVE SMOOTH",
"585 653 OFFCURVE",
"663 613 OFFCURVE",
"663 515 CURVE SMOOTH",
"663 510 OFFCURVE",
"662 505 OFFCURVE",
"662 499 CURVE",
"704 499 LINE",
"745 705 LINE",
"696 705 LINE",
"687 660 LINE",
"685 652 OFFCURVE",
"681 649 OFFCURVE",
"675 649 CURVE SMOOTH",
"672 649 OFFCURVE",
"670 650 OFFCURVE",
"667 652 CURVE",
"632 687 OFFCURVE",
"559 710 OFFCURVE",
"481 710 CURVE SMOOTH",
"259 710 OFFCURVE",
"111 568 OFFCURVE",
"67 350 CURVE SMOOTH",
"59 312 OFFCURVE",
"55 277 OFFCURVE",
"55 244 CURVE SMOOTH",
"55 86 OFFCURVE",
"145 -10 OFFCURVE",
"330 -10 CURVE SMOOTH"
);
},
{
closed = 1;
nodes = (
"675 796 LINE",
"686 855 LINE",
"322 855 LINE",
"310 796 LINE"
);
}
);
width = 722;
}
);
leftKerningGroup = G;
note = Gmacron;
rightKerningGroup = G;
unicode = 1E20;
},
{
glyphname = H;
lastChange = "2015-12-01 12:25:39 +0000";
layers = (
{
layerId = "55173EE3-C87E-4AFC-850A-D9B4D5493314";
name = "Bold Italic";
paths = (
{
closed = 1;
nodes = (
"730 0 LINE",
"736 37 LINE",
"707 37 LINE SMOOTH",
"674 37 OFFCURVE",
"659 47 OFFCURVE",
"659 67 CURVE SMOOTH",
"659 69 OFFCURVE",
"660 72 OFFCURVE",
"660 75 CURVE SMOOTH",
"773 624 LINE SMOOTH",
"779 650 OFFCURVE",
"798 662 OFFCURVE",
"834 662 CURVE SMOOTH",
"864 662 LINE",
"872 700 LINE",
"558 700 LINE",
"550 662 LINE",
"579 662 LINE SMOOTH",
"611 662 OFFCURVE",
"627 653 OFFCURVE",
"627 634 CURVE SMOOTH",
"627 631 OFFCURVE",
"627 628 OFFCURVE",
"626 624 CURVE SMOOTH",
"514 75 LINE SMOOTH",
"509 49 OFFCURVE",
"489 37 OFFCURVE",
"451 37 CURVE SMOOTH",
"422 37 LINE",
"416 0 LINE"
);
},
{
closed = 1;
nodes = (
"290 0 LINE",
"297 37 LINE",
"267 37 LINE SMOOTH",
"235 37 OFFCURVE",
"221 46 OFFCURVE",
"221 65 CURVE SMOOTH",
"221 68 OFFCURVE",
"221 71 OFFCURVE",
"222 75 CURVE SMOOTH",
"334 624 LINE SMOOTH",
"340 650 OFFCURVE",
"358 662 OFFCURVE",
"395 662 CURVE SMOOTH",
"424 662 LINE",
"432 700 LINE",
"119 700 LINE",
"111 662 LINE",
"140 662 LINE SMOOTH",
"173 662 OFFCURVE",
"188 653 OFFCURVE",
"188 634 CURVE SMOOTH",
"188 631 OFFCURVE",
"188 628 OFFCURVE",
"187 624 CURVE SMOOTH",
"75 75 LINE SMOOTH",
"70 49 OFFCURVE",
"50 37 OFFCURVE",
"12 37 CURVE SMOOTH",
"-16 37 LINE",
"-23 0 LINE"
);
},
{
closed = 1;
nodes = (
"631 334 LINE",
"642 389 LINE",
"212 389 LINE",
"201 334 LINE"
);
}
);
width = 783;
}
);
note = H;
unicode = 0048;
},
{
glyphname = Hbar;
lastChange = "2015-12-01 12:25:39 +0000";
layers = (
{
layerId = "55173EE3-C87E-4AFC-850A-D9B4D5493314";
name = "Bold Italic";
paths = (
{
closed = 1;
nodes = (
"730 0 LINE",
"736 37 LINE",
"707 37 LINE SMOOTH",
"674 37 OFFCURVE",
"659 47 OFFCURVE",
"659 67 CURVE SMOOTH",
"659 69 OFFCURVE",
"660 72 OFFCURVE",
"660 75 CURVE SMOOTH",
"773 624 LINE SMOOTH",
"779 650 OFFCURVE",
"798 662 OFFCURVE",
"834 662 CURVE SMOOTH",
"864 662 LINE",
"872 700 LINE",
"558 700 LINE",
"550 662 LINE",
"579 662 LINE SMOOTH",
"611 662 OFFCURVE",
"627 653 OFFCURVE",
"627 634 CURVE SMOOTH",
"627 631 OFFCURVE",
"627 628 OFFCURVE",
"626 624 CURVE SMOOTH",
"514 75 LINE SMOOTH",
"509 49 OFFCURVE",
"489 37 OFFCURVE",
"451 37 CURVE SMOOTH",
"422 37 LINE",
"416 0 LINE"
);
},
{
closed = 1;
nodes = (
"290 0 LINE",
"297 37 LINE",
"267 37 LINE SMOOTH",
"235 37 OFFCURVE",
"221 46 OFFCURVE",
"221 65 CURVE SMOOTH",
"221 68 OFFCURVE",
"221 71 OFFCURVE",
"222 75 CURVE SMOOTH",
"334 624 LINE SMOOTH",
"340 650 OFFCURVE",
"358 662 OFFCURVE",
"395 662 CURVE SMOOTH",
"424 662 LINE",
"432 700 LINE",
"119 700 LINE",
"111 662 LINE",
"140 662 LINE SMOOTH",
"173 662 OFFCURVE",
"188 653 OFFCURVE",
"188 634 CURVE SMOOTH",
"188 631 OFFCURVE",
"188 628 OFFCURVE",
"187 624 CURVE SMOOTH",
"75 75 LINE SMOOTH",
"70 49 OFFCURVE",
"50 37 OFFCURVE",
"12 37 CURVE SMOOTH",
"-16 37 LINE",
"-23 0 LINE"
);
},
{
closed = 1;
nodes = (
"631 334 LINE",
"642 389 LINE",
"212 389 LINE",
"201 334 LINE"
);
},
{
closed = 1;
nodes = (
"802 492 LINE",
"813 546 LINE",
"109 546 LINE",
"98 492 LINE"
);
}
);
width = 783;
}
);
note = Hbar;
unicode = 0126;
},
{
glyphname = Hbrevebelow;
lastChange = "2015-12-01 12:25:39 +0000";
layers = (
{
layerId = "55173EE3-C87E-4AFC-850A-D9B4D5493314";
name = "Bold Italic";
paths = (
{
closed = 1;
nodes = (
"730 0 LINE",
"736 37 LINE",
"707 37 LINE SMOOTH",
"674 37 OFFCURVE",
"659 47 OFFCURVE",
"659 67 CURVE SMOOTH",
"659 69 OFFCURVE",
"660 72 OFFCURVE",
"660 75 CURVE SMOOTH",
"773 624 LINE SMOOTH",
"779 650 OFFCURVE",
"798 662 OFFCURVE",
"834 662 CURVE SMOOTH",
"864 662 LINE",
"872 700 LINE",
"558 700 LINE",
"550 662 LINE",
"579 662 LINE SMOOTH",
"611 662 OFFCURVE",
"627 653 OFFCURVE",
"627 634 CURVE SMOOTH",
"627 631 OFFCURVE",
"627 628 OFFCURVE",
"626 624 CURVE SMOOTH",
"514 75 LINE SMOOTH",
"509 49 OFFCURVE",
"489 37 OFFCURVE",
"451 37 CURVE SMOOTH",
"422 37 LINE",
"416 0 LINE"
);
},
{
closed = 1;
nodes = (
"426 -198 OFFCURVE",
"474 -126 OFFCURVE",
"491 -53 CURVE",
"452 -53 LINE",
"441 -94 OFFCURVE",
"403 -133 OFFCURVE",
"323 -133 CURVE SMOOTH",
"241 -133 OFFCURVE",
"219 -94 OFFCURVE",
"222 -53 CURVE",
"184 -53 LINE",
"182 -66 OFFCURVE",
"180 -80 OFFCURVE",
"180 -92 CURVE SMOOTH",
"180 -152 OFFCURVE",
"210 -198 OFFCURVE",
"309 -198 CURVE SMOOTH"
);
},
{
closed = 1;
nodes = (
"290 0 LINE",
"297 37 LINE",
"267 37 LINE SMOOTH",
"235 37 OFFCURVE",
"221 46 OFFCURVE",
"221 65 CURVE SMOOTH",
"221 68 OFFCURVE",
"221 71 OFFCURVE",
"222 75 CURVE SMOOTH",
"334 624 LINE SMOOTH",
"340 650 OFFCURVE",
"358 662 OFFCURVE",
"395 662 CURVE SMOOTH",
"424 662 LINE",
"432 700 LINE",
"119 700 LINE",
"111 662 LINE",
"140 662 LINE SMOOTH",
"173 662 OFFCURVE",
"188 653 OFFCURVE",
"188 634 CURVE SMOOTH",
"188 631 OFFCURVE",
"188 628 OFFCURVE",
"187 624 CURVE SMOOTH",
"75 75 LINE SMOOTH",
"70 49 OFFCURVE",
"50 37 OFFCURVE",
"12 37 CURVE SMOOTH",
"-16 37 LINE",
"-23 0 LINE"
);
},
{
closed = 1;
nodes = (
"631 334 LINE",
"642 389 LINE",
"212 389 LINE",
"201 334 LINE"
);
}
);
width = 783;
}
);
note = Hbrevebelow;
unicode = 1E2A;
},
{
glyphname = Hcircumflex;
lastChange = "2015-12-01 12:25:40 +0000";
layers = (
{
layerId = "55173EE3-C87E-4AFC-850A-D9B4D5493314";
name = "Bold Italic";
paths = (
{
closed = 1;
nodes = (
"730 0 LINE",
"736 37 LINE",
"707 37 LINE SMOOTH",
"674 37 OFFCURVE",
"659 47 OFFCURVE",
"659 67 CURVE SMOOTH",
"659 69 OFFCURVE",
"660 72 OFFCURVE",
"660 75 CURVE SMOOTH",
"773 624 LINE SMOOTH",
"779 650 OFFCURVE",
"798 662 OFFCURVE",
"834 662 CURVE SMOOTH",
"864 662 LINE",
"872 700 LINE",
"558 700 LINE",
"550 662 LINE",
"579 662 LINE SMOOTH",
"611 662 OFFCURVE",
"627 653 OFFCURVE",
"627 634 CURVE SMOOTH",
"627 631 OFFCURVE",
"627 628 OFFCURVE",
"626 624 CURVE SMOOTH",
"514 75 LINE SMOOTH",
"509 49 OFFCURVE",
"489 37 OFFCURVE",
"451 37 CURVE SMOOTH",
"422 37 LINE",
"416 0 LINE"
);
},
{
closed = 1;
nodes = (
"290 0 LINE",
"297 37 LINE",
"267 37 LINE SMOOTH",
"235 37 OFFCURVE",
"221 46 OFFCURVE",
"221 65 CURVE SMOOTH",
"221 68 OFFCURVE",
"221 71 OFFCURVE",
"222 75 CURVE SMOOTH",
"334 624 LINE SMOOTH",
"340 650 OFFCURVE",
"358 662 OFFCURVE",
"395 662 CURVE SMOOTH",
"424 662 LINE",
"432 700 LINE",
"119 700 LINE",
"111 662 LINE",
"140 662 LINE SMOOTH",
"173 662 OFFCURVE",
"188 653 OFFCURVE",
"188 634 CURVE SMOOTH",
"188 631 OFFCURVE",
"188 628 OFFCURVE",
"187 624 CURVE SMOOTH",
"75 75 LINE SMOOTH",
"70 49 OFFCURVE",
"50 37 OFFCURVE",
"12 37 CURVE SMOOTH",
"-16 37 LINE",
"-23 0 LINE"
);
},
{
closed = 1;
nodes = (
"631 334 LINE",
"642 389 LINE",
"212 389 LINE",
"201 334 LINE"
);
},
{
closed = 1;
nodes = (
"496 873 LINE SMOOTH",
"510 882 OFFCURVE",
"524 889 OFFCURVE",
"533 889 CURVE SMOOTH",
"541 889 OFFCURVE",
"551 882 OFFCURVE",
"561 873 CURVE SMOOTH",
"661 778 LINE",
"689 804 LINE",
"583 961 LINE",
"511 961 LINE",
"340 804 LINE",
"358 778 LINE"
);
}
);
width = 783;
}
);
note = Hcircumflex;
unicode = 0124;
},
{
glyphname = Hdotbelow;
lastChange = "2015-12-01 12:25:40 +0000";
layers = (
{
layerId = "55173EE3-C87E-4AFC-850A-D9B4D5493314";
name = "Bold Italic";
paths = (
{
closed = 1;
nodes = (
"730 0 LINE",
"736 37 LINE",
"707 37 LINE SMOOTH",
"674 37 OFFCURVE",
"659 47 OFFCURVE",
"659 67 CURVE SMOOTH",
"659 69 OFFCURVE",
"660 72 OFFCURVE",
"660 75 CURVE SMOOTH",
"773 624 LINE SMOOTH",
"779 650 OFFCURVE",
"798 662 OFFCURVE",
"834 662 CURVE SMOOTH",
"864 662 LINE",
"872 700 LINE",
"558 700 LINE",
"550 662 LINE",
"579 662 LINE SMOOTH",
"611 662 OFFCURVE",
"627 653 OFFCURVE",
"627 634 CURVE SMOOTH",
"627 631 OFFCURVE",
"627 628 OFFCURVE",
"626 624 CURVE SMOOTH",
"514 75 LINE SMOOTH",
"509 49 OFFCURVE",
"489 37 OFFCURVE",
"451 37 CURVE SMOOTH",
"422 37 LINE",
"416 0 LINE"
);
},
{
closed = 1;
nodes = (
"349 -188 OFFCURVE",
"377 -161 OFFCURVE",
"385 -127 CURVE SMOOTH",
"386 -122 OFFCURVE",
"386 -117 OFFCURVE",
"386 -112 CURVE SMOOTH",
"386 -85 OFFCURVE",
"369 -64 OFFCURVE",
"339 -64 CURVE SMOOTH",
"297 -64 OFFCURVE",
"265 -101 OFFCURVE",
"265 -142 CURVE SMOOTH",
"265 -169 OFFCURVE",
"283 -188 OFFCURVE",
"314 -188 CURVE SMOOTH"
);
},
{
closed = 1;
nodes = (
"290 0 LINE",
"297 37 LINE",
"267 37 LINE SMOOTH",
"235 37 OFFCURVE",
"221 46 OFFCURVE",
"221 65 CURVE SMOOTH",
"221 68 OFFCURVE",
"221 71 OFFCURVE",
"222 75 CURVE SMOOTH",
"334 624 LINE SMOOTH",
"340 650 OFFCURVE",
"358 662 OFFCURVE",
"395 662 CURVE SMOOTH",
"424 662 LINE",
"432 700 LINE",
"119 700 LINE",
"111 662 LINE",
"140 662 LINE SMOOTH",
"173 662 OFFCURVE",
"188 653 OFFCURVE",
"188 634 CURVE SMOOTH",
"188 631 OFFCURVE",
"188 628 OFFCURVE",
"187 624 CURVE SMOOTH",
"75 75 LINE SMOOTH",
"70 49 OFFCURVE",
"50 37 OFFCURVE",
"12 37 CURVE SMOOTH",
"-16 37 LINE",
"-23 0 LINE"
);
},
{
closed = 1;
nodes = (
"631 334 LINE",
"642 389 LINE",
"212 389 LINE",
"201 334 LINE"
);
}
);
width = 783;
}
);
note = Hdotbelow;
unicode = 1E24;
},
{
glyphname = I;
lastChange = "2015-12-01 12:25:35 +0000";
layers = (
{
layerId = "55173EE3-C87E-4AFC-850A-D9B4D5493314";
name = "Bold Italic";
paths = (
{
closed = 1;
nodes = (
"295 0 LINE",
"301 37 LINE",
"273 37 LINE SMOOTH",
"240 37 OFFCURVE",
"225 46 OFFCURVE",
"225 66 CURVE SMOOTH",
"225 69 OFFCURVE",
"225 72 OFFCURVE",
"226 75 CURVE SMOOTH",
"338 624 LINE SMOOTH",
"344 650 OFFCURVE",
"363 662 OFFCURVE",
"400 662 CURVE SMOOTH",
"429 662 LINE",
"437 700 LINE",
"124 700 LINE",
"116 662 LINE",
"145 662 LINE SMOOTH",
"176 662 OFFCURVE",
"192 653 OFFCURVE",
"192 634 CURVE SMOOTH",
"192 631 OFFCURVE",
"192 628 OFFCURVE",
"191 624 CURVE SMOOTH",
"79 75 LINE SMOOTH",
"74 49 OFFCURVE",
"54 37 OFFCURVE",
"17 37 CURVE SMOOTH",
"-12 37 LINE",
"-18 0 LINE"
);
}
);
width = 353;
}
);
note = I;
unicode = 0049;
},
{
glyphname = IJ;
lastChange = "2015-12-01 12:25:40 +0000";
layers = (
{
layerId = "55173EE3-C87E-4AFC-850A-D9B4D5493314";
name = "Bold Italic";
paths = (
{
closed = 1;
nodes = (
"472 -114 OFFCURVE",
"595 -42 OFFCURVE",
"627 116 CURVE SMOOTH",
"731 624 LINE SMOOTH",
"736 650 OFFCURVE",
"755 662 OFFCURVE",
"791 662 CURVE SMOOTH",
"821 662 LINE",
"828 700 LINE",
"516 700 LINE",
"508 662 LINE",
"537 662 LINE SMOOTH",
"569 662 OFFCURVE",
"585 653 OFFCURVE",
"585 633 CURVE SMOOTH",
"585 630 OFFCURVE",
"585 627 OFFCURVE",
"584 624 CURVE SMOOTH",
"481 118 LINE SMOOTH",
"460 16 OFFCURVE",
"420 -63 OFFCURVE",
"323 -88 CURVE",
"323 -114 LINE"
);
},
{
closed = 1;
nodes = (
"295 0 LINE",
"301 37 LINE",
"273 37 LINE SMOOTH",
"240 37 OFFCURVE",
"225 46 OFFCURVE",
"225 66 CURVE SMOOTH",
"225 69 OFFCURVE",
"225 72 OFFCURVE",
"226 75 CURVE SMOOTH",
"338 624 LINE SMOOTH",
"344 650 OFFCURVE",
"363 662 OFFCURVE",
"400 662 CURVE SMOOTH",
"429 662 LINE",
"437 700 LINE",
"124 700 LINE",
"116 662 LINE",
"145 662 LINE SMOOTH",
"176 662 OFFCURVE",
"192 653 OFFCURVE",
"192 634 CURVE SMOOTH",
"192 631 OFFCURVE",
"192 628 OFFCURVE",
"191 624 CURVE SMOOTH",
"79 75 LINE SMOOTH",
"74 49 OFFCURVE",
"54 37 OFFCURVE",
"17 37 CURVE SMOOTH",
"-12 37 LINE",
"-18 0 LINE"
);
}
);
width = 745;
}
);
note = IJ;
unicode = 0132;
},
{
glyphname = Iacute;
lastChange = "2015-12-01 12:25:41 +0000";
layers = (
{
layerId = "55173EE3-C87E-4AFC-850A-D9B4D5493314";
name = "Bold Italic";
paths = (
{
closed = 1;
nodes = (
"295 0 LINE",
"301 37 LINE",
"273 37 LINE SMOOTH",
"240 37 OFFCURVE",
"225 46 OFFCURVE",
"225 66 CURVE SMOOTH",
"225 69 OFFCURVE",
"225 72 OFFCURVE",
"226 75 CURVE SMOOTH",
"338 624 LINE SMOOTH",
"344 650 OFFCURVE",
"363 662 OFFCURVE",
"400 662 CURVE SMOOTH",
"429 662 LINE",
"437 700 LINE",
"124 700 LINE",
"116 662 LINE",
"145 662 LINE SMOOTH",
"176 662 OFFCURVE",
"192 653 OFFCURVE",
"192 634 CURVE SMOOTH",
"192 631 OFFCURVE",
"192 628 OFFCURVE",
"191 624 CURVE SMOOTH",
"79 75 LINE SMOOTH",
"74 49 OFFCURVE",
"54 37 OFFCURVE",
"17 37 CURVE SMOOTH",
"-12 37 LINE",
"-18 0 LINE"
);
},
{
closed = 1;
nodes = (
"380 869 LINE SMOOTH",
"417 889 OFFCURVE",
"439 909 OFFCURVE",
"439 937 CURVE SMOOTH",
"439 954 OFFCURVE",
"428 971 OFFCURVE",
"400 971 CURVE SMOOTH",
"371 971 OFFCURVE",
"344 946 OFFCURVE",
"335 938 CURVE SMOOTH",
"193 815 LINE",
"211 777 LINE"
);
}
);
width = 353;
}
);
note = Iacute;
unicode = 00CD;
},
{
glyphname = Ibreve;
lastChange = "2015-12-01 12:25:39 +0000";
layers = (
{
layerId = "55173EE3-C87E-4AFC-850A-D9B4D5493314";
name = "Bold Italic";
paths = (
{
closed = 1;
nodes = (
"295 0 LINE",
"301 37 LINE",
"273 37 LINE SMOOTH",
"240 37 OFFCURVE",
"225 46 OFFCURVE",
"225 66 CURVE SMOOTH",
"225 69 OFFCURVE",
"225 72 OFFCURVE",
"226 75 CURVE SMOOTH",
"338 624 LINE SMOOTH",
"344 650 OFFCURVE",
"363 662 OFFCURVE",
"400 662 CURVE SMOOTH",
"429 662 LINE",
"437 700 LINE",
"124 700 LINE",
"116 662 LINE",
"145 662 LINE SMOOTH",
"176 662 OFFCURVE",
"192 653 OFFCURVE",
"192 634 CURVE SMOOTH",
"192 631 OFFCURVE",
"192 628 OFFCURVE",
"191 624 CURVE SMOOTH",
"79 75 LINE SMOOTH",
"74 49 OFFCURVE",
"54 37 OFFCURVE",
"17 37 CURVE SMOOTH",
"-12 37 LINE",
"-18 0 LINE"
);
},
{
closed = 1;
nodes = (
"414 776 OFFCURVE",
"461 849 OFFCURVE",
"478 922 CURVE",
"440 922 LINE",
"427 880 OFFCURVE",
"390 841 OFFCURVE",
"308 841 CURVE SMOOTH",
"227 841 OFFCURVE",
"204 880 OFFCURVE",
"208 922 CURVE",
"172 922 LINE",
"169 908 OFFCURVE",
"168 894 OFFCURVE",
"168 881 CURVE SMOOTH",
"168 822 OFFCURVE",
"199 776 OFFCURVE",
"296 776 CURVE SMOOTH"
);
}
);
width = 353;
}
);
note = Ibreve;
unicode = 012C;
},
{
glyphname = Icaron;
lastChange = "2015-12-01 12:26:30 +0000";
layers = (
{
layerId = "55173EE3-C87E-4AFC-850A-D9B4D5493314";
name = "Bold Italic";
paths = (
{
closed = 1;
nodes = (
"295 0 LINE",
"301 37 LINE",
"273 37 LINE SMOOTH",
"240 37 OFFCURVE",
"225 46 OFFCURVE",
"225 66 CURVE SMOOTH",
"225 69 OFFCURVE",
"225 72 OFFCURVE",
"226 75 CURVE SMOOTH",
"338 624 LINE SMOOTH",
"344 650 OFFCURVE",
"363 662 OFFCURVE",
"400 662 CURVE SMOOTH",
"429 662 LINE",
"437 700 LINE",
"124 700 LINE",
"116 662 LINE",
"145 662 LINE SMOOTH",
"176 662 OFFCURVE",
"192 653 OFFCURVE",
"192 634 CURVE SMOOTH",
"192 631 OFFCURVE",
"192 628 OFFCURVE",
"191 624 CURVE SMOOTH",
"79 75 LINE SMOOTH",
"74 49 OFFCURVE",
"54 37 OFFCURVE",
"17 37 CURVE SMOOTH",
"-12 37 LINE",
"-18 0 LINE"
);
},
{
closed = 1;
nodes = (
"331 778 LINE",
"502 935 LINE",
"485 961 LINE",
"346 866 LINE SMOOTH",
"332 857 OFFCURVE",
"319 850 OFFCURVE",
"310 850 CURVE SMOOTH",
"301 850 OFFCURVE",
"292 857 OFFCURVE",
"281 866 CURVE",
"180 961 LINE",
"153 935 LINE",
"259 778 LINE"
);
}
);
width = 353;
}
);
note = Icaron;
unicode = 01CF;
},
{
glyphname = Icircumflex;
lastChange = "2015-12-01 12:25:39 +0000";
layers = (
{
layerId = "55173EE3-C87E-4AFC-850A-D9B4D5493314";
name = "Bold Italic";
paths = (
{
closed = 1;
nodes = (
"295 0 LINE",
"301 37 LINE",
"273 37 LINE SMOOTH",
"240 37 OFFCURVE",
"225 46 OFFCURVE",
"225 66 CURVE SMOOTH",
"225 69 OFFCURVE",
"225 72 OFFCURVE",
"226 75 CURVE SMOOTH",
"338 624 LINE SMOOTH",
"344 650 OFFCURVE",
"363 662 OFFCURVE",
"400 662 CURVE SMOOTH",
"429 662 LINE",
"437 700 LINE",
"124 700 LINE",
"116 662 LINE",
"145 662 LINE SMOOTH",
"176 662 OFFCURVE",
"192 653 OFFCURVE",
"192 634 CURVE SMOOTH",
"192 631 OFFCURVE",
"192 628 OFFCURVE",
"191 624 CURVE SMOOTH",
"79 75 LINE SMOOTH",
"74 49 OFFCURVE",
"54 37 OFFCURVE",
"17 37 CURVE SMOOTH",
"-12 37 LINE",
"-18 0 LINE"
);
},
{
closed = 1;
nodes = (
"282 873 LINE SMOOTH",
"296 882 OFFCURVE",
"310 889 OFFCURVE",
"319 889 CURVE SMOOTH",
"327 889 OFFCURVE",
"337 882 OFFCURVE",
"347 873 CURVE SMOOTH",
"447 778 LINE",
"475 804 LINE",
"369 961 LINE",
"297 961 LINE",
"126 804 LINE",
"144 778 LINE"
);
}
);
width = 353;
}
);
note = Icircumflex;
unicode = 00CE;
},
{
glyphname = Idieresis;
lastChange = "2015-12-01 12:25:39 +0000";
layers = (
{
layerId = "55173EE3-C87E-4AFC-850A-D9B4D5493314";
name = "Bold Italic";
paths = (
{
closed = 1;
nodes = (
"295 0 LINE",
"301 37 LINE",
"273 37 LINE SMOOTH",
"240 37 OFFCURVE",
"225 46 OFFCURVE",
"225 66 CURVE SMOOTH",
"225 69 OFFCURVE",
"225 72 OFFCURVE",
"226 75 CURVE SMOOTH",
"338 624 LINE SMOOTH",
"344 650 OFFCURVE",
"363 662 OFFCURVE",
"400 662 CURVE SMOOTH",
"429 662 LINE",
"437 700 LINE",
"124 700 LINE",
"116 662 LINE",
"145 662 LINE SMOOTH",
"176 662 OFFCURVE",
"192 653 OFFCURVE",
"192 634 CURVE SMOOTH",
"192 631 OFFCURVE",
"192 628 OFFCURVE",
"191 624 CURVE SMOOTH",
"79 75 LINE SMOOTH",
"74 49 OFFCURVE",
"54 37 OFFCURVE",
"17 37 CURVE SMOOTH",
"-12 37 LINE",
"-18 0 LINE"
);
},
{
closed = 1;
nodes = (
"220 778 OFFCURVE",
"248 804 OFFCURVE",
"255 838 CURVE",
"256 843 OFFCURVE",
"257 848 OFFCURVE",
"257 853 CURVE SMOOTH",
"257 881 OFFCURVE",
"240 900 OFFCURVE",
"208 900 CURVE SMOOTH",
"173 900 OFFCURVE",
"145 874 OFFCURVE",
"138 838 CURVE",
"137 833 OFFCURVE",
"136 828 OFFCURVE",
"136 823 CURVE SMOOTH",
"136 797 OFFCURVE",
"153 778 OFFCURVE",
"183 778 CURVE SMOOTH"
);
},
{
closed = 1;
nodes = (
"443 778 OFFCURVE",
"470 804 OFFCURVE",
"478 838 CURVE",
"479 843 OFFCURVE",
"480 848 OFFCURVE",
"480 853 CURVE SMOOTH",
"480 881 OFFCURVE",
"463 900 OFFCURVE",
"432 900 CURVE SMOOTH",
"395 900 OFFCURVE",
"367 874 OFFCURVE",
"360 838 CURVE",
"359 833 OFFCURVE",
"358 828 OFFCURVE",
"358 823 CURVE SMOOTH",
"358 796 OFFCURVE",
"376 778 OFFCURVE",
"407 778 CURVE SMOOTH"
);
}
);
width = 353;
}
);
note = Idieresis;
unicode = 00CF;
},
{
glyphname = Idotaccent;
lastChange = "2015-12-01 12:25:40 +0000";
layers = (
{
layerId = "55173EE3-C87E-4AFC-850A-D9B4D5493314";
name = "Bold Italic";
paths = (
{
closed = 1;
nodes = (
"295 0 LINE",
"301 37 LINE",
"273 37 LINE SMOOTH",
"240 37 OFFCURVE",
"225 46 OFFCURVE",
"225 66 CURVE SMOOTH",
"225 69 OFFCURVE",
"225 72 OFFCURVE",
"226 75 CURVE SMOOTH",
"338 624 LINE SMOOTH",
"344 650 OFFCURVE",
"363 662 OFFCURVE",
"400 662 CURVE SMOOTH",
"429 662 LINE",
"437 700 LINE",
"124 700 LINE",
"116 662 LINE",
"145 662 LINE SMOOTH",
"176 662 OFFCURVE",
"192 653 OFFCURVE",
"192 634 CURVE SMOOTH",
"192 631 OFFCURVE",
"192 628 OFFCURVE",
"191 624 CURVE SMOOTH",
"79 75 LINE SMOOTH",
"74 49 OFFCURVE",
"54 37 OFFCURVE",
"17 37 CURVE SMOOTH",
"-12 37 LINE",
"-18 0 LINE"
);
},
{
closed = 1;
nodes = (
"333 770 OFFCURVE",
"365 804 OFFCURVE",
"365 844 CURVE SMOOTH",
"365 872 OFFCURVE",
"348 892 OFFCURVE",
"318 892 CURVE SMOOTH",
"276 892 OFFCURVE",
"245 857 OFFCURVE",
"245 815 CURVE SMOOTH",
"245 789 OFFCURVE",
"262 770 OFFCURVE",
"293 770 CURVE SMOOTH"
);
}
);
width = 353;
}
);
note = Idotaccent;
unicode = 0130;
},
{
glyphname = Idotbelow;
lastChange = "2015-12-01 12:26:30 +0000";
layers = (
{
layerId = "55173EE3-C87E-4AFC-850A-D9B4D5493314";
name = "Bold Italic";
paths = (
{
closed = 1;
nodes = (
"295 0 LINE",
"301 37 LINE",
"273 37 LINE SMOOTH",
"240 37 OFFCURVE",
"225 46 OFFCURVE",
"225 66 CURVE SMOOTH",
"225 69 OFFCURVE",
"225 72 OFFCURVE",
"226 75 CURVE SMOOTH",
"338 624 LINE SMOOTH",
"344 650 OFFCURVE",
"363 662 OFFCURVE",
"400 662 CURVE SMOOTH",
"429 662 LINE",
"437 700 LINE",
"124 700 LINE",
"116 662 LINE",
"145 662 LINE SMOOTH",
"176 662 OFFCURVE",
"192 653 OFFCURVE",
"192 634 CURVE SMOOTH",
"192 631 OFFCURVE",
"192 628 OFFCURVE",
"191 624 CURVE SMOOTH",
"79 75 LINE SMOOTH",
"74 49 OFFCURVE",
"54 37 OFFCURVE",
"17 37 CURVE SMOOTH",
"-12 37 LINE",
"-18 0 LINE"
);
},
{
closed = 1;
nodes = (
"136 -188 OFFCURVE",
"164 -161 OFFCURVE",
"172 -127 CURVE SMOOTH",
"173 -122 OFFCURVE",
"173 -117 OFFCURVE",
"173 -112 CURVE SMOOTH",
"173 -85 OFFCURVE",
"156 -64 OFFCURVE",
"126 -64 CURVE SMOOTH",
"84 -64 OFFCURVE",
"52 -101 OFFCURVE",
"52 -142 CURVE SMOOTH",
"52 -169 OFFCURVE",
"70 -188 OFFCURVE",
"101 -188 CURVE SMOOTH"
);
}
);
width = 353;
}
);
note = Idotbelow;
unicode = 1ECA;
},
{
glyphname = Igrave;
lastChange = "2015-12-01 12:25:39 +0000";
layers = (
{
layerId = "55173EE3-C87E-4AFC-850A-D9B4D5493314";
name = "Bold Italic";
paths = (
{
closed = 1;
nodes = (
"295 0 LINE",
"301 37 LINE",
"273 37 LINE SMOOTH",
"240 37 OFFCURVE",
"225 46 OFFCURVE",
"225 66 CURVE SMOOTH",
"225 69 OFFCURVE",
"225 72 OFFCURVE",
"226 75 CURVE SMOOTH",
"338 624 LINE SMOOTH",
"344 650 OFFCURVE",
"363 662 OFFCURVE",
"400 662 CURVE SMOOTH",
"429 662 LINE",
"437 700 LINE",
"124 700 LINE",
"116 662 LINE",
"145 662 LINE SMOOTH",
"176 662 OFFCURVE",
"192 653 OFFCURVE",
"192 634 CURVE SMOOTH",
"192 631 OFFCURVE",
"192 628 OFFCURVE",
"191 624 CURVE SMOOTH",
"79 75 LINE SMOOTH",
"74 49 OFFCURVE",
"54 37 OFFCURVE",
"17 37 CURVE SMOOTH",
"-12 37 LINE",
"-18 0 LINE"
);
},
{
closed = 1;
nodes = (
"415 815 LINE",
"324 937 LINE",
"318 946 OFFCURVE",
"300 971 OFFCURVE",
"271 971 CURVE SMOOTH",
"232 971 OFFCURVE",
"215 940 OFFCURVE",
"215 919 CURVE SMOOTH",
"215 900 OFFCURVE",
"227 884 OFFCURVE",
"248 869 CURVE SMOOTH",
"381 777 LINE"
);
}
);
width = 353;
}
);
note = Igrave;
unicode = 00CC;
},
{
glyphname = Ihookabove;
lastChange = "2015-12-01 12:26:30 +0000";
layers = (
{
layerId = "55173EE3-C87E-4AFC-850A-D9B4D5493314";
name = "Bold Italic";
paths = (
{
closed = 1;
nodes = (
"295 0 LINE",
"301 37 LINE",
"273 37 LINE SMOOTH",
"240 37 OFFCURVE",
"225 46 OFFCURVE",
"225 66 CURVE SMOOTH",
"225 69 OFFCURVE",
"225 72 OFFCURVE",
"226 75 CURVE SMOOTH",
"338 624 LINE SMOOTH",
"344 650 OFFCURVE",
"363 662 OFFCURVE",
"400 662 CURVE SMOOTH",
"429 662 LINE",
"437 700 LINE",
"124 700 LINE",
"116 662 LINE",
"145 662 LINE SMOOTH",
"176 662 OFFCURVE",
"192 653 OFFCURVE",
"192 634 CURVE SMOOTH",
"192 631 OFFCURVE",
"192 628 OFFCURVE",
"191 624 CURVE SMOOTH",
"79 75 LINE SMOOTH",
"74 49 OFFCURVE",
"54 37 OFFCURVE",
"17 37 CURVE SMOOTH",
"-12 37 LINE",
"-18 0 LINE"
);
},
{
closed = 1;
nodes = (
"339 801 LINE",
"326 805 OFFCURVE",
"314 810 OFFCURVE",
"314 823 CURVE SMOOTH",
"314 871 OFFCURVE",
"438 878 OFFCURVE",
"438 954 CURVE SMOOTH",
"438 993 OFFCURVE",
"401 1013 OFFCURVE",
"349 1013 CURVE SMOOTH",
"278 1013 OFFCURVE",
"236 980 OFFCURVE",
"236 945 CURVE SMOOTH",
"236 929 OFFCURVE",
"247 922 OFFCURVE",
"260 922 CURVE SMOOTH",
"283 922 OFFCURVE",
"295 942 OFFCURVE",
"299 952 CURVE SMOOTH",
"306 973 OFFCURVE",
"326 979 OFFCURVE",
"343 979 CURVE SMOOTH",
"362 979 OFFCURVE",
"372 963 OFFCURVE",
"368 946 CURVE SMOOTH",
"356 889 OFFCURVE",
"257 880 OFFCURVE",
"257 821 CURVE SMOOTH",
"257 795 OFFCURVE",
"279 777 OFFCURVE",
"324 777 CURVE"
);
}
);
width = 353;
}
);
note = Ihookabove;
unicode = 1EC8;
},
{
glyphname = Imacron;
lastChange = "2015-12-01 12:25:41 +0000";
layers = (
{
layerId = "55173EE3-C87E-4AFC-850A-D9B4D5493314";
name = "Bold Italic";
paths = (
{
closed = 1;
nodes = (
"295 0 LINE",
"301 37 LINE",
"273 37 LINE SMOOTH",
"240 37 OFFCURVE",
"225 46 OFFCURVE",
"225 66 CURVE SMOOTH",
"225 69 OFFCURVE",
"225 72 OFFCURVE",
"226 75 CURVE SMOOTH",
"338 624 LINE SMOOTH",
"344 650 OFFCURVE",
"363 662 OFFCURVE",
"400 662 CURVE SMOOTH",
"429 662 LINE",
"437 700 LINE",
"124 700 LINE",
"116 662 LINE",
"145 662 LINE SMOOTH",
"176 662 OFFCURVE",
"192 653 OFFCURVE",
"192 634 CURVE SMOOTH",
"192 631 OFFCURVE",
"192 628 OFFCURVE",
"191 624 CURVE SMOOTH",
"79 75 LINE SMOOTH",
"74 49 OFFCURVE",
"54 37 OFFCURVE",
"17 37 CURVE SMOOTH",
"-12 37 LINE",
"-18 0 LINE"
);
},
{
closed = 1;
nodes = (
"508 787 LINE",
"521 853 LINE",
"108 853 LINE",
"94 787 LINE"
);
}
);
width = 353;
}
);
note = Imacron;
unicode = 012A;
},
{
glyphname = Iogonek;
lastChange = "2015-12-01 12:25:41 +0000";
layers = (
{
layerId = "55173EE3-C87E-4AFC-850A-D9B4D5493314";
name = "Bold Italic";
paths = (
{
closed = 1;
nodes = (
"295 0 LINE",
"301 37 LINE",
"273 37 LINE SMOOTH",
"240 37 OFFCURVE",
"225 46 OFFCURVE",
"225 66 CURVE SMOOTH",
"225 69 OFFCURVE",
"225 72 OFFCURVE",
"226 75 CURVE SMOOTH",
"338 624 LINE SMOOTH",
"344 650 OFFCURVE",
"363 662 OFFCURVE",
"400 662 CURVE SMOOTH",
"429 662 LINE",
"437 700 LINE",
"124 700 LINE",
"116 662 LINE",
"145 662 LINE SMOOTH",
"176 662 OFFCURVE",
"192 653 OFFCURVE",
"192 634 CURVE SMOOTH",
"192 631 OFFCURVE",
"192 628 OFFCURVE",
"191 624 CURVE SMOOTH",
"79 75 LINE SMOOTH",
"74 49 OFFCURVE",
"54 37 OFFCURVE",
"17 37 CURVE SMOOTH",
"-12 37 LINE",
"-18 0 LINE"
);
},
{
closed = 1;
nodes = (
"163 -220 OFFCURVE",
"200 -209 OFFCURVE",
"234 -185 CURVE",
"228 -161 LINE",
"214 -168 OFFCURVE",
"194 -173 OFFCURVE",
"181 -173 CURVE SMOOTH",
"153 -173 OFFCURVE",
"134 -159 OFFCURVE",
"134 -128 CURVE SMOOTH",
"134 -123 OFFCURVE",
"134 -118 OFFCURVE",
"135 -113 CURVE SMOOTH",
"144 -72 OFFCURVE",
"176 -30 OFFCURVE",
"231 8 CURVE",
"180 8 LINE",
"109 -27 OFFCURVE",
"46 -85 OFFCURVE",
"46 -148 CURVE SMOOTH",
"46 -182 OFFCURVE",
"64 -220 OFFCURVE",
"135 -220 CURVE SMOOTH"
);
}
);
width = 353;
}
);
note = Iogonek;
unicode = 012E;
},
{
glyphname = Itilde;
lastChange = "2015-12-01 12:25:40 +0000";
layers = (
{
layerId = "55173EE3-C87E-4AFC-850A-D9B4D5493314";
name = "Bold Italic";
paths = (
{
closed = 1;
nodes = (
"295 0 LINE",
"301 37 LINE",
"273 37 LINE SMOOTH",
"240 37 OFFCURVE",
"225 46 OFFCURVE",
"225 66 CURVE SMOOTH",
"225 69 OFFCURVE",
"225 72 OFFCURVE",
"226 75 CURVE SMOOTH",
"338 624 LINE SMOOTH",
"344 650 OFFCURVE",
"363 662 OFFCURVE",
"400 662 CURVE SMOOTH",
"429 662 LINE",
"437 700 LINE",
"124 700 LINE",
"116 662 LINE",
"145 662 LINE SMOOTH",
"176 662 OFFCURVE",
"192 653 OFFCURVE",
"192 634 CURVE SMOOTH",
"192 631 OFFCURVE",
"192 628 OFFCURVE",
"191 624 CURVE SMOOTH",
"79 75 LINE SMOOTH",
"74 49 OFFCURVE",
"54 37 OFFCURVE",
"17 37 CURVE SMOOTH",
"-12 37 LINE",
"-18 0 LINE"
);
},
{
closed = 1;
nodes = (
"170 814 OFFCURVE",
"190 833 OFFCURVE",
"225 833 CURVE SMOOTH",
"281 833 OFFCURVE",
"323 784 OFFCURVE",
"378 784 CURVE SMOOTH",
"446 784 OFFCURVE",
"491 849 OFFCURVE",
"516 897 CURVE",
"492 912 LINE",
"466 872 OFFCURVE",
"447 853 OFFCURVE",
"412 853 CURVE SMOOTH",
"356 853 OFFCURVE",
"313 901 OFFCURVE",
"257 901 CURVE SMOOTH",
"191 901 OFFCURVE",
"145 838 OFFCURVE",
"119 790 CURVE",
"143 775 LINE"
);
}
);
width = 353;
}
);
note = Itilde;
unicode = 0128;
},
{
glyphname = J;
lastChange = "2015-12-01 12:25:36 +0000";
layers = (
{
layerId = "55173EE3-C87E-4AFC-850A-D9B4D5493314";
name = "Bold Italic";
paths = (
{
closed = 1;
nodes = (
"132 -114 OFFCURVE",
"255 -42 OFFCURVE",
"287 116 CURVE SMOOTH",
"391 624 LINE SMOOTH",
"396 650 OFFCURVE",
"415 662 OFFCURVE",
"451 662 CURVE SMOOTH",
"481 662 LINE",
"489 700 LINE",
"176 700 LINE",
"168 662 LINE",
"197 662 LINE SMOOTH",
"229 662 OFFCURVE",
"245 653 OFFCURVE",
"245 634 CURVE SMOOTH",
"245 631 OFFCURVE",
"245 628 OFFCURVE",
"244 624 CURVE SMOOTH",
"141 118 LINE SMOOTH",
"120 16 OFFCURVE",
"81 -63 OFFCURVE",
"-17 -88 CURVE",
"-17 -114 LINE"
);
}
);
width = 405;
}
);
note = J;
unicode = 004A;
},
{
glyphname = Jcircumflex;
lastChange = "2015-12-01 12:25:40 +0000";
layers = (
{
layerId = "55173EE3-C87E-4AFC-850A-D9B4D5493314";
name = "Bold Italic";
paths = (
{
closed = 1;
nodes = (
"132 -114 OFFCURVE",
"255 -42 OFFCURVE",
"287 116 CURVE SMOOTH",
"391 624 LINE SMOOTH",
"396 650 OFFCURVE",
"415 662 OFFCURVE",
"451 662 CURVE SMOOTH",
"481 662 LINE",
"489 700 LINE",
"176 700 LINE",
"168 662 LINE",
"197 662 LINE SMOOTH",
"229 662 OFFCURVE",
"245 653 OFFCURVE",
"245 634 CURVE SMOOTH",
"245 631 OFFCURVE",
"245 628 OFFCURVE",
"244 624 CURVE SMOOTH",
"141 118 LINE SMOOTH",
"120 16 OFFCURVE",
"81 -63 OFFCURVE",
"-17 -88 CURVE",
"-17 -114 LINE"
);
},
{
closed = 1;
nodes = (
"333 881 LINE SMOOTH",
"347 890 OFFCURVE",
"361 897 OFFCURVE",
"370 897 CURVE SMOOTH",
"378 897 OFFCURVE",
"388 890 OFFCURVE",
"397 881 CURVE SMOOTH",
"498 786 LINE",
"526 812 LINE",
"420 969 LINE",
"348 969 LINE",
"177 812 LINE",
"195 786 LINE"
);
}
);
width = 405;
}
);
note = Jcircumflex;
unicode = 0134;
},
{
glyphname = K;
lastChange = "2015-12-01 12:25:40 +0000";
layers = (
{
layerId = "55173EE3-C87E-4AFC-850A-D9B4D5493314";
name = "Bold Italic";
paths = (
{
closed = 1;
nodes = (
"290 0 LINE",
"297 37 LINE",
"267 37 LINE SMOOTH",
"235 37 OFFCURVE",
"221 46 OFFCURVE",
"221 65 CURVE SMOOTH",
"221 68 OFFCURVE",
"221 71 OFFCURVE",
"222 75 CURVE SMOOTH",
"334 624 LINE SMOOTH",
"340 650 OFFCURVE",
"358 662 OFFCURVE",
"395 662 CURVE SMOOTH",
"424 662 LINE",
"432 700 LINE",
"119 700 LINE",
"111 662 LINE",
"140 662 LINE SMOOTH",
"173 662 OFFCURVE",
"188 653 OFFCURVE",
"188 634 CURVE SMOOTH",
"188 631 OFFCURVE",
"188 628 OFFCURVE",
"187 624 CURVE SMOOTH",
"75 75 LINE SMOOTH",
"70 49 OFFCURVE",
"50 37 OFFCURVE",
"12 37 CURVE SMOOTH",
"-16 37 LINE",
"-23 0 LINE"
);
},
{
closed = 1;
nodes = (
"689 0 LINE",
"696 37 LINE",
"667 37 LINE SMOOTH",
"633 37 OFFCURVE",
"609 63 OFFCURVE",
"589 89 CURVE SMOOTH",
"374 395 LINE",
"262 309 LINE",
"482 0 LINE"
);
},
{
closed = 1;
nodes = (
"698 641 LINE SMOOTH",
"712 653 OFFCURVE",
"732 662 OFFCURVE",
"755 662 CURVE SMOOTH",
"779 662 LINE",
"786 700 LINE",
"566 700 LINE",
"559 662 LINE",
"573 662 LINE SMOOTH",
"589 662 OFFCURVE",
"604 656 OFFCURVE",
"604 645 CURVE SMOOTH",
"604 640 OFFCURVE",
"601 634 OFFCURVE",
"593 627 CURVE",
"278 383 LINE",
"261 299 LINE"
);
}
);
width = 739;
}
);
leftKerningGroup = K;
note = K;
rightKerningGroup = K;
unicode = 004B;
},
{
glyphname = Kcommaaccent;
lastChange = "2015-12-01 12:25:39 +0000";
layers = (
{
layerId = "55173EE3-C87E-4AFC-850A-D9B4D5493314";
name = "Bold Italic";
paths = (
{
closed = 1;
nodes = (
"290 0 LINE",
"297 37 LINE",
"267 37 LINE SMOOTH",
"235 37 OFFCURVE",
"221 46 OFFCURVE",
"221 65 CURVE SMOOTH",
"221 68 OFFCURVE",
"221 71 OFFCURVE",
"222 75 CURVE SMOOTH",
"334 624 LINE SMOOTH",
"340 650 OFFCURVE",
"358 662 OFFCURVE",
"395 662 CURVE SMOOTH",
"424 662 LINE",
"432 700 LINE",
"119 700 LINE",
"111 662 LINE",
"140 662 LINE SMOOTH",
"173 662 OFFCURVE",
"188 653 OFFCURVE",
"188 634 CURVE SMOOTH",
"188 631 OFFCURVE",
"188 628 OFFCURVE",
"187 624 CURVE SMOOTH",
"75 75 LINE SMOOTH",
"70 49 OFFCURVE",
"50 37 OFFCURVE",
"12 37 CURVE SMOOTH",
"-16 37 LINE",
"-23 0 LINE"
);
},
{
closed = 1;
nodes = (
"300 -306 OFFCURVE",
"386 -218 OFFCURVE",
"386 -132 CURVE SMOOTH",
"386 -93 OFFCURVE",
"364 -72 OFFCURVE",
"332 -72 CURVE SMOOTH",
"291 -72 OFFCURVE",
"259 -104 OFFCURVE",
"259 -140 CURVE SMOOTH",
"259 -168 OFFCURVE",
"281 -182 OFFCURVE",
"281 -210 CURVE SMOOTH",
"281 -214 OFFCURVE",
"281 -218 OFFCURVE",
"280 -222 CURVE SMOOTH",
"273 -263 OFFCURVE",
"240 -300 OFFCURVE",
"204 -332 CURVE",
"222 -354 LINE"
);
},
{
closed = 1;
nodes = (
"689 0 LINE",
"696 37 LINE",
"667 37 LINE SMOOTH",
"633 37 OFFCURVE",
"609 63 OFFCURVE",
"589 89 CURVE SMOOTH",
"374 395 LINE",
"262 309 LINE",
"482 0 LINE"
);
},
{
closed = 1;
nodes = (
"698 641 LINE SMOOTH",
"712 653 OFFCURVE",
"732 662 OFFCURVE",
"755 662 CURVE SMOOTH",
"779 662 LINE",
"786 700 LINE",
"566 700 LINE",
"559 662 LINE",
"573 662 LINE SMOOTH",
"589 662 OFFCURVE",
"604 656 OFFCURVE",
"604 645 CURVE SMOOTH",
"604 640 OFFCURVE",
"601 634 OFFCURVE",
"593 627 CURVE",
"278 383 LINE",
"261 299 LINE"
);
}
);
width = 739;
}
);
leftKerningGroup = K;
note = Kcommaaccent;
rightKerningGroup = K;
unicode = 0136;
},
{
glyphname = L;
lastChange = "2015-12-01 12:25:36 +0000";
layers = (
{
layerId = "55173EE3-C87E-4AFC-850A-D9B4D5493314";
name = "Bold Italic";
paths = (
{
closed = 1;
nodes = (
"554 0 LINE",
"614 203 LINE",
"575 203 LINE",
"561 161 OFFCURVE",
"514 54 OFFCURVE",
"450 54 CURVE SMOOTH",
"278 54 LINE SMOOTH",
"247 54 OFFCURVE",
"230 65 OFFCURVE",
"230 89 CURVE SMOOTH",
"230 93 OFFCURVE",
"230 97 OFFCURVE",
"231 101 CURVE SMOOTH",
"338 624 LINE SMOOTH",
"344 650 OFFCURVE",
"363 662 OFFCURVE",
"399 662 CURVE SMOOTH",
"428 662 LINE",
"436 700 LINE",
"123 700 LINE",
"115 662 LINE",
"144 662 LINE SMOOTH",
"176 662 OFFCURVE",
"192 653 OFFCURVE",
"192 634 CURVE SMOOTH",
"192 631 OFFCURVE",
"192 628 OFFCURVE",
"191 624 CURVE SMOOTH",
"79 75 LINE SMOOTH",
"74 49 OFFCURVE",
"54 37 OFFCURVE",
"16 37 CURVE SMOOTH",
"-12 37 LINE",
"-19 0 LINE"
);
}
);
width = 631;
}
);
note = L;
rightKerningGroup = L;
unicode = 004C;
},
{
glyphname = Lacute;
lastChange = "2015-12-01 12:25:41 +0000";
layers = (
{
layerId = "55173EE3-C87E-4AFC-850A-D9B4D5493314";
name = "Bold Italic";
paths = (
{
closed = 1;
nodes = (
"554 0 LINE",
"614 203 LINE",
"575 203 LINE",
"561 161 OFFCURVE",
"514 54 OFFCURVE",
"450 54 CURVE SMOOTH",
"278 54 LINE SMOOTH",
"247 54 OFFCURVE",
"230 65 OFFCURVE",
"230 89 CURVE SMOOTH",
"230 93 OFFCURVE",
"230 97 OFFCURVE",
"231 101 CURVE SMOOTH",
"338 624 LINE SMOOTH",
"344 650 OFFCURVE",
"363 662 OFFCURVE",
"399 662 CURVE SMOOTH",
"428 662 LINE",
"436 700 LINE",
"123 700 LINE",
"115 662 LINE",
"144 662 LINE SMOOTH",
"176 662 OFFCURVE",
"192 653 OFFCURVE",
"192 634 CURVE SMOOTH",
"192 631 OFFCURVE",
"192 628 OFFCURVE",
"191 624 CURVE SMOOTH",
"79 75 LINE SMOOTH",
"74 49 OFFCURVE",
"54 37 OFFCURVE",
"16 37 CURVE SMOOTH",
"-12 37 LINE",
"-19 0 LINE"
);
},
{
closed = 1;
nodes = (
"413 869 LINE SMOOTH",
"449 889 OFFCURVE",
"471 910 OFFCURVE",
"471 937 CURVE SMOOTH",
"471 955 OFFCURVE",
"461 971 OFFCURVE",
"433 971 CURVE SMOOTH",
"403 971 OFFCURVE",
"376 946 OFFCURVE",
"368 938 CURVE SMOOTH",
"226 815 LINE",
"244 777 LINE"
);
}
);
width = 631;
}
);
note = Lacute;
rightKerningGroup = L;
unicode = 0139;
},
{
glyphname = Lcaron;
lastChange = "2015-12-01 12:25:40 +0000";
layers = (
{
layerId = "55173EE3-C87E-4AFC-850A-D9B4D5493314";
name = "Bold Italic";
paths = (
{
closed = 1;
nodes = (
"554 0 LINE",
"614 203 LINE",
"575 203 LINE",
"561 161 OFFCURVE",
"514 54 OFFCURVE",
"450 54 CURVE SMOOTH",
"278 54 LINE SMOOTH",
"247 54 OFFCURVE",
"230 65 OFFCURVE",
"230 89 CURVE SMOOTH",
"230 93 OFFCURVE",
"230 97 OFFCURVE",
"231 101 CURVE SMOOTH",
"338 624 LINE SMOOTH",
"344 650 OFFCURVE",
"363 662 OFFCURVE",
"399 662 CURVE SMOOTH",
"428 662 LINE",
"436 700 LINE",
"123 700 LINE",
"115 662 LINE",
"144 662 LINE SMOOTH",
"176 662 OFFCURVE",
"192 653 OFFCURVE",
"192 634 CURVE SMOOTH",
"192 631 OFFCURVE",
"192 628 OFFCURVE",
"191 624 CURVE SMOOTH",
"79 75 LINE SMOOTH",
"74 49 OFFCURVE",
"54 37 OFFCURVE",
"16 37 CURVE SMOOTH",
"-12 37 LINE",
"-19 0 LINE"
);
},
{
closed = 1;
nodes = (
"550 474 OFFCURVE",
"639 563 OFFCURVE",
"639 647 CURVE SMOOTH",
"639 687 OFFCURVE",
"616 708 OFFCURVE",
"585 708 CURVE SMOOTH",
"543 708 OFFCURVE",
"512 676 OFFCURVE",
"512 640 CURVE SMOOTH",
"512 613 OFFCURVE",
"533 598 OFFCURVE",
"533 570 CURVE SMOOTH",
"533 566 OFFCURVE",
"533 562 OFFCURVE",
"532 558 CURVE SMOOTH",
"523 517 OFFCURVE",
"492 480 OFFCURVE",
"456 449 CURVE",
"473 426 LINE"
);
}
);
width = 631;
}
);
note = Lcaron;
rightKerningGroup = L;
unicode = 013D;
},
{
glyphname = Lcommaaccent;
lastChange = "2015-12-01 12:25:39 +0000";
layers = (
{
layerId = "55173EE3-C87E-4AFC-850A-D9B4D5493314";
name = "Bold Italic";
paths = (
{
closed = 1;
nodes = (
"554 0 LINE",
"614 203 LINE",
"575 203 LINE",
"561 161 OFFCURVE",
"514 54 OFFCURVE",
"450 54 CURVE SMOOTH",
"278 54 LINE SMOOTH",
"247 54 OFFCURVE",
"230 65 OFFCURVE",
"230 89 CURVE SMOOTH",
"230 93 OFFCURVE",
"230 97 OFFCURVE",
"231 101 CURVE SMOOTH",
"338 624 LINE SMOOTH",
"344 650 OFFCURVE",
"363 662 OFFCURVE",
"399 662 CURVE SMOOTH",
"428 662 LINE",
"436 700 LINE",
"123 700 LINE",
"115 662 LINE",
"144 662 LINE SMOOTH",
"176 662 OFFCURVE",
"192 653 OFFCURVE",
"192 634 CURVE SMOOTH",
"192 631 OFFCURVE",
"192 628 OFFCURVE",
"191 624 CURVE SMOOTH",
"79 75 LINE SMOOTH",
"74 49 OFFCURVE",
"54 37 OFFCURVE",
"16 37 CURVE SMOOTH",
"-12 37 LINE",
"-19 0 LINE"
);
},
{
closed = 1;
nodes = (
"225 -306 OFFCURVE",
"311 -218 OFFCURVE",
"311 -132 CURVE SMOOTH",
"311 -93 OFFCURVE",
"289 -72 OFFCURVE",
"257 -72 CURVE SMOOTH",
"220 -72 OFFCURVE",
"192 -98 OFFCURVE",
"185 -129 CURVE SMOOTH",
"184 -133 OFFCURVE",
"184 -136 OFFCURVE",
"184 -139 CURVE SMOOTH",
"184 -167 OFFCURVE",
"206 -182 OFFCURVE",
"206 -209 CURVE SMOOTH",
"206 -255 OFFCURVE",
"169 -297 OFFCURVE",
"129 -332 CURVE",
"147 -354 LINE"
);
}
);
width = 631;
}
);
note = Lcommaaccent;
rightKerningGroup = L;
unicode = 013B;
},
{
glyphname = Ldot;
lastChange = "2015-12-01 12:25:39 +0000";
layers = (
{
layerId = "55173EE3-C87E-4AFC-850A-D9B4D5493314";
name = "Bold Italic";
paths = (
{
closed = 1;
nodes = (
"554 0 LINE",
"614 203 LINE",
"575 203 LINE",
"561 161 OFFCURVE",
"514 54 OFFCURVE",
"450 54 CURVE SMOOTH",
"278 54 LINE SMOOTH",
"247 54 OFFCURVE",
"230 65 OFFCURVE",
"230 89 CURVE SMOOTH",
"230 93 OFFCURVE",
"230 97 OFFCURVE",
"231 101 CURVE SMOOTH",
"338 624 LINE SMOOTH",
"344 650 OFFCURVE",
"363 662 OFFCURVE",
"399 662 CURVE SMOOTH",
"428 662 LINE",
"436 700 LINE",
"123 700 LINE",
"115 662 LINE",
"144 662 LINE SMOOTH",
"176 662 OFFCURVE",
"192 653 OFFCURVE",
"192 634 CURVE SMOOTH",
"192 631 OFFCURVE",
"192 628 OFFCURVE",
"191 624 CURVE SMOOTH",
"79 75 LINE SMOOTH",
"74 49 OFFCURVE",
"54 37 OFFCURVE",
"16 37 CURVE SMOOTH",
"-12 37 LINE",
"-19 0 LINE"
);
},
{
closed = 1;
nodes = (
"490 316 OFFCURVE",
"517 342 OFFCURVE",
"525 377 CURVE SMOOTH",
"526 382 OFFCURVE",
"527 387 OFFCURVE",
"527 392 CURVE SMOOTH",
"527 419 OFFCURVE",
"510 439 OFFCURVE",
"478 439 CURVE SMOOTH",
"438 439 OFFCURVE",
"406 403 OFFCURVE",
"406 361 CURVE SMOOTH",
"406 334 OFFCURVE",
"424 316 OFFCURVE",
"453 316 CURVE SMOOTH"
);
}
);
width = 631;
}
);
note = Ldot;
rightKerningGroup = L;
unicode = 013F;
},
{
glyphname = Ldotbelow;
lastChange = "2015-12-01 12:25:41 +0000";
layers = (
{
layerId = "55173EE3-C87E-4AFC-850A-D9B4D5493314";
name = "Bold Italic";
paths = (
{
closed = 1;
nodes = (
"554 0 LINE",
"614 203 LINE",
"575 203 LINE",
"561 161 OFFCURVE",
"514 54 OFFCURVE",
"450 54 CURVE SMOOTH",
"278 54 LINE SMOOTH",
"247 54 OFFCURVE",
"230 65 OFFCURVE",
"230 89 CURVE SMOOTH",
"230 93 OFFCURVE",
"230 97 OFFCURVE",
"231 101 CURVE SMOOTH",
"338 624 LINE SMOOTH",
"344 650 OFFCURVE",
"363 662 OFFCURVE",
"399 662 CURVE SMOOTH",
"428 662 LINE",
"436 700 LINE",
"123 700 LINE",
"115 662 LINE",
"144 662 LINE SMOOTH",
"176 662 OFFCURVE",
"192 653 OFFCURVE",
"192 634 CURVE SMOOTH",
"192 631 OFFCURVE",
"192 628 OFFCURVE",
"191 624 CURVE SMOOTH",
"79 75 LINE SMOOTH",
"74 49 OFFCURVE",
"54 37 OFFCURVE",
"16 37 CURVE SMOOTH",
"-12 37 LINE",
"-19 0 LINE"
);
},
{
closed = 1;
nodes = (
"290 -184 OFFCURVE",
"323 -150 OFFCURVE",
"323 -108 CURVE SMOOTH",
"323 -81 OFFCURVE",
"306 -61 OFFCURVE",
"276 -61 CURVE SMOOTH",
"235 -61 OFFCURVE",
"202 -98 OFFCURVE",
"202 -138 CURVE SMOOTH",
"202 -165 OFFCURVE",
"219 -184 OFFCURVE",
"250 -184 CURVE SMOOTH"
);
}
);
width = 631;
}
);
note = Ldotbelow;
rightKerningGroup = L;
unicode = 1E36;
},
{
glyphname = Ldotbelowmacron;
lastChange = "2015-12-01 12:25:40 +0000";
layers = (
{
layerId = "55173EE3-C87E-4AFC-850A-D9B4D5493314";
name = "Bold Italic";
paths = (
{
closed = 1;
nodes = (
"554 0 LINE",
"614 203 LINE",
"575 203 LINE",
"561 161 OFFCURVE",
"514 54 OFFCURVE",
"450 54 CURVE SMOOTH",
"278 54 LINE SMOOTH",
"247 54 OFFCURVE",
"230 65 OFFCURVE",
"230 89 CURVE SMOOTH",
"230 93 OFFCURVE",
"230 97 OFFCURVE",
"231 101 CURVE SMOOTH",
"338 624 LINE SMOOTH",
"344 650 OFFCURVE",
"363 662 OFFCURVE",
"399 662 CURVE SMOOTH",
"428 662 LINE",
"436 700 LINE",
"123 700 LINE",
"115 662 LINE",
"144 662 LINE SMOOTH",
"176 662 OFFCURVE",
"192 653 OFFCURVE",
"192 634 CURVE SMOOTH",
"192 631 OFFCURVE",
"192 628 OFFCURVE",
"191 624 CURVE SMOOTH",
"79 75 LINE SMOOTH",
"74 49 OFFCURVE",
"54 37 OFFCURVE",
"16 37 CURVE SMOOTH",
"-12 37 LINE",
"-19 0 LINE"
);
},
{
closed = 1;
nodes = (
"290 -184 OFFCURVE",
"323 -150 OFFCURVE",
"323 -108 CURVE SMOOTH",
"323 -81 OFFCURVE",
"306 -61 OFFCURVE",
"276 -61 CURVE SMOOTH",
"235 -61 OFFCURVE",
"202 -98 OFFCURVE",
"202 -138 CURVE SMOOTH",
"202 -165 OFFCURVE",
"219 -184 OFFCURVE",
"250 -184 CURVE SMOOTH"
);
},
{
closed = 1;
nodes = (
"500 777 LINE",
"512 836 LINE",
"145 836 LINE",
"133 777 LINE"
);
}
);
width = 631;
}
);
note = Ldotbelowmacron;
rightKerningGroup = L;
unicode = 1E38;
},
{
glyphname = Llinebelow;
lastChange = "2015-12-01 12:25:40 +0000";
layers = (
{
layerId = "55173EE3-C87E-4AFC-850A-D9B4D5493314";
name = "Bold Italic";
paths = (
{
closed = 1;
nodes = (
"554 0 LINE",
"614 203 LINE",
"575 203 LINE",
"561 161 OFFCURVE",
"514 54 OFFCURVE",
"450 54 CURVE SMOOTH",
"278 54 LINE SMOOTH",
"247 54 OFFCURVE",
"230 65 OFFCURVE",
"230 89 CURVE SMOOTH",
"230 93 OFFCURVE",
"230 97 OFFCURVE",
"231 101 CURVE SMOOTH",
"338 624 LINE SMOOTH",
"344 650 OFFCURVE",
"363 662 OFFCURVE",
"399 662 CURVE SMOOTH",
"428 662 LINE",
"436 700 LINE",
"123 700 LINE",
"115 662 LINE",
"144 662 LINE SMOOTH",
"176 662 OFFCURVE",
"192 653 OFFCURVE",
"192 634 CURVE SMOOTH",
"192 631 OFFCURVE",
"192 628 OFFCURVE",
"191 624 CURVE SMOOTH",
"79 75 LINE SMOOTH",
"74 49 OFFCURVE",
"54 37 OFFCURVE",
"16 37 CURVE SMOOTH",
"-12 37 LINE",
"-19 0 LINE"
);
},
{
closed = 1;
nodes = (
"424 -120 LINE",
"435 -68 LINE",
"70 -68 LINE",
"60 -120 LINE"
);
}
);
width = 631;
}
);
note = Llinebelow;
rightKerningGroup = L;
unicode = 1E3A;
},
{
glyphname = Lslash;
lastChange = "2015-12-01 12:25:40 +0000";
layers = (
{
layerId = "55173EE3-C87E-4AFC-850A-D9B4D5493314";
name = "Bold Italic";
paths = (
{
closed = 1;
nodes = (
"554 0 LINE",
"614 203 LINE",
"575 203 LINE",
"561 161 OFFCURVE",
"514 54 OFFCURVE",
"450 54 CURVE SMOOTH",
"278 54 LINE SMOOTH",
"247 54 OFFCURVE",
"230 65 OFFCURVE",
"230 89 CURVE SMOOTH",
"230 93 OFFCURVE",
"230 97 OFFCURVE",
"231 101 CURVE SMOOTH",
"338 624 LINE SMOOTH",
"344 650 OFFCURVE",
"363 662 OFFCURVE",
"399 662 CURVE SMOOTH",
"428 662 LINE",
"436 700 LINE",
"123 700 LINE",
"115 662 LINE",
"144 662 LINE SMOOTH",
"176 662 OFFCURVE",
"192 653 OFFCURVE",
"192 634 CURVE SMOOTH",
"192 631 OFFCURVE",
"192 628 OFFCURVE",
"191 624 CURVE SMOOTH",
"79 75 LINE SMOOTH",
"74 49 OFFCURVE",
"54 37 OFFCURVE",
"16 37 CURVE SMOOTH",
"-12 37 LINE",
"-19 0 LINE"
);
},
{
closed = 1;
nodes = (
"479 375 LINE",
"493 446 LINE",
"54 294 LINE",
"39 222 LINE"
);
}
);
width = 631;
}
);
note = Lslash;
rightKerningGroup = L;
unicode = 0141;
},
{
glyphname = M;
lastChange = "2015-12-01 12:26:48 +0000";
layers = (
{
layerId = "55173EE3-C87E-4AFC-850A-D9B4D5493314";
name = "Bold Italic";
paths = (
{
closed = 1;
nodes = (
"205 0 LINE",
"212 37 LINE",
"182 37 LINE SMOOTH",
"151 37 OFFCURVE",
"136 46 OFFCURVE",
"136 66 CURVE SMOOTH",
"136 68 OFFCURVE",
"136 72 OFFCURVE",
"137 75 CURVE SMOOTH",
"240 574 LINE",
"345 75 LINE",
"431 75 LINE",
"747 578 LINE",
"644 75 LINE SMOOTH",
"639 49 OFFCURVE",
"619 37 OFFCURVE",
"582 37 CURVE SMOOTH",
"553 37 LINE",
"546 0 LINE",
"859 0 LINE",
"866 37 LINE",
"837 37 LINE SMOOTH",
"805 37 OFFCURVE",
"790 46 OFFCURVE",
"790 66 CURVE SMOOTH",
"790 69 OFFCURVE",
"790 72 OFFCURVE",
"791 75 CURVE SMOOTH",
"903 624 LINE SMOOTH",
"909 650 OFFCURVE",
"928 662 OFFCURVE",
"965 662 CURVE SMOOTH",
"994 662 LINE",
"1001 700 LINE",
"758 700 LINE",
"448 200 LINE",
"347 700 LINE",
"119 700 LINE",
"111 662 LINE",
"140 662 LINE SMOOTH",
"173 662 OFFCURVE",
"188 653 OFFCURVE",
"188 634 CURVE SMOOTH",
"188 631 OFFCURVE",
"188 628 OFFCURVE",
"187 624 CURVE SMOOTH",
"75 75 LINE SMOOTH",
"70 49 OFFCURVE",
"50 37 OFFCURVE",
"12 37 CURVE SMOOTH",
"-16 37 LINE",
"-23 0 LINE"
);
}
);
width = 914;
}
);
note = M;
unicode = 004D;
},
{
glyphname = Mdotbelow;
lastChange = "2015-12-01 12:26:50 +0000";
layers = (
{
layerId = "55173EE3-C87E-4AFC-850A-D9B4D5493314";
name = "Bold Italic";
paths = (
{
closed = 1;
nodes = (
"205 0 LINE",
"212 37 LINE",
"182 37 LINE SMOOTH",
"151 37 OFFCURVE",
"136 46 OFFCURVE",
"136 66 CURVE SMOOTH",
"136 68 OFFCURVE",
"136 72 OFFCURVE",
"137 75 CURVE SMOOTH",
"240 574 LINE",
"345 75 LINE",
"431 75 LINE",
"747 578 LINE",
"644 75 LINE SMOOTH",
"639 49 OFFCURVE",
"619 37 OFFCURVE",
"582 37 CURVE SMOOTH",
"553 37 LINE",
"546 0 LINE",
"859 0 LINE",
"866 37 LINE",
"837 37 LINE SMOOTH",
"805 37 OFFCURVE",
"790 46 OFFCURVE",
"790 66 CURVE SMOOTH",
"790 69 OFFCURVE",
"790 72 OFFCURVE",
"791 75 CURVE SMOOTH",
"903 624 LINE SMOOTH",
"909 650 OFFCURVE",
"928 662 OFFCURVE",
"965 662 CURVE SMOOTH",
"994 662 LINE",
"1001 700 LINE",
"758 700 LINE",
"448 200 LINE",
"347 700 LINE",
"119 700 LINE",
"111 662 LINE",
"140 662 LINE SMOOTH",
"173 662 OFFCURVE",
"188 653 OFFCURVE",
"188 634 CURVE SMOOTH",
"188 631 OFFCURVE",
"188 628 OFFCURVE",
"187 624 CURVE SMOOTH",
"75 75 LINE SMOOTH",
"70 49 OFFCURVE",
"50 37 OFFCURVE",
"12 37 CURVE SMOOTH",
"-16 37 LINE",
"-23 0 LINE"
);
},
{
closed = 1;
nodes = (
"421 -188 OFFCURVE",
"453 -153 OFFCURVE",
"453 -112 CURVE SMOOTH",
"453 -84 OFFCURVE",
"436 -64 OFFCURVE",
"405 -64 CURVE SMOOTH",
"364 -64 OFFCURVE",
"331 -100 OFFCURVE",
"331 -142 CURVE SMOOTH",
"331 -169 OFFCURVE",
"349 -188 OFFCURVE",
"380 -188 CURVE SMOOTH"
);
}
);
width = 914;
}
);
note = Mdotbelow;
unicode = 1E42;
},
{
glyphname = N;
lastChange = "2015-12-01 12:25:36 +0000";
layers = (
{
layerId = "55173EE3-C87E-4AFC-850A-D9B4D5493314";
name = "Bold Italic";
paths = (
{
closed = 1;
nodes = (
"205 0 LINE",
"212 37 LINE",
"182 37 LINE SMOOTH",
"151 37 OFFCURVE",
"136 46 OFFCURVE",
"136 66 CURVE SMOOTH",
"136 68 OFFCURVE",
"136 72 OFFCURVE",
"137 75 CURVE SMOOTH",
"247 611 LINE",
"533 0 LINE",
"611 0 LINE",
"737 624 LINE SMOOTH",
"743 650 OFFCURVE",
"762 662 OFFCURVE",
"799 662 CURVE SMOOTH",
"828 662 LINE",
"836 700 LINE",
"607 700 LINE",
"599 662 LINE",
"629 662 LINE SMOOTH",
"660 662 OFFCURVE",
"676 653 OFFCURVE",
"676 634 CURVE SMOOTH",
"676 631 OFFCURVE",
"676 628 OFFCURVE",
"675 624 CURVE SMOOTH",
"586 188 LINE",
"349 700 LINE",
"119 700 LINE",
"111 662 LINE",
"140 662 LINE SMOOTH",
"173 662 OFFCURVE",
"188 653 OFFCURVE",
"188 634 CURVE SMOOTH",
"188 631 OFFCURVE",
"188 628 OFFCURVE",
"187 624 CURVE SMOOTH",
"75 75 LINE SMOOTH",
"70 49 OFFCURVE",
"50 37 OFFCURVE",
"12 37 CURVE SMOOTH",
"-16 37 LINE",
"-23 0 LINE"
);
}
);
width = 748;
}
);
note = N;
unicode = 004E;
},
{
glyphname = Nacute;
lastChange = "2015-12-01 12:25:40 +0000";
layers = (
{
layerId = "55173EE3-C87E-4AFC-850A-D9B4D5493314";
name = "Bold Italic";
paths = (
{
closed = 1;
nodes = (
"205 0 LINE",
"212 37 LINE",
"182 37 LINE SMOOTH",
"151 37 OFFCURVE",
"136 46 OFFCURVE",
"136 66 CURVE SMOOTH",
"136 68 OFFCURVE",
"136 72 OFFCURVE",
"137 75 CURVE SMOOTH",
"247 611 LINE",
"533 0 LINE",
"611 0 LINE",
"737 624 LINE SMOOTH",
"743 650 OFFCURVE",
"762 662 OFFCURVE",
"799 662 CURVE SMOOTH",
"828 662 LINE",
"836 700 LINE",
"607 700 LINE",
"599 662 LINE",
"629 662 LINE SMOOTH",
"660 662 OFFCURVE",
"676 653 OFFCURVE",
"676 634 CURVE SMOOTH",
"676 631 OFFCURVE",
"676 628 OFFCURVE",
"675 624 CURVE SMOOTH",
"586 188 LINE",
"349 700 LINE",
"119 700 LINE",
"111 662 LINE",
"140 662 LINE SMOOTH",
"173 662 OFFCURVE",
"188 653 OFFCURVE",
"188 634 CURVE SMOOTH",
"188 631 OFFCURVE",
"188 628 OFFCURVE",
"187 624 CURVE SMOOTH",
"75 75 LINE SMOOTH",
"70 49 OFFCURVE",
"50 37 OFFCURVE",
"12 37 CURVE SMOOTH",
"-16 37 LINE",
"-23 0 LINE"
);
},
{
closed = 1;
nodes = (
"603 869 LINE SMOOTH",
"640 889 OFFCURVE",
"661 910 OFFCURVE",
"661 937 CURVE SMOOTH",
"661 955 OFFCURVE",
"651 971 OFFCURVE",
"623 971 CURVE SMOOTH",
"593 971 OFFCURVE",
"566 946 OFFCURVE",
"558 938 CURVE SMOOTH",
"416 815 LINE",
"434 777 LINE"
);
}
);
width = 748;
}
);
note = Nacute;
unicode = 0143;
},
{
glyphname = Ncaron;
lastChange = "2015-12-01 12:25:41 +0000";
layers = (
{
layerId = "55173EE3-C87E-4AFC-850A-D9B4D5493314";
name = "Bold Italic";
paths = (
{
closed = 1;
nodes = (
"205 0 LINE",
"212 37 LINE",
"182 37 LINE SMOOTH",
"151 37 OFFCURVE",
"136 46 OFFCURVE",
"136 66 CURVE SMOOTH",
"136 68 OFFCURVE",
"136 72 OFFCURVE",
"137 75 CURVE SMOOTH",
"247 611 LINE",
"533 0 LINE",
"611 0 LINE",
"737 624 LINE SMOOTH",
"743 650 OFFCURVE",
"762 662 OFFCURVE",
"799 662 CURVE SMOOTH",
"828 662 LINE",
"836 700 LINE",
"607 700 LINE",
"599 662 LINE",
"629 662 LINE SMOOTH",
"660 662 OFFCURVE",
"676 653 OFFCURVE",
"676 634 CURVE SMOOTH",
"676 631 OFFCURVE",
"676 628 OFFCURVE",
"675 624 CURVE SMOOTH",
"586 188 LINE",
"349 700 LINE",
"119 700 LINE",
"111 662 LINE",
"140 662 LINE SMOOTH",
"173 662 OFFCURVE",
"188 653 OFFCURVE",
"188 634 CURVE SMOOTH",
"188 631 OFFCURVE",
"188 628 OFFCURVE",
"187 624 CURVE SMOOTH",
"75 75 LINE SMOOTH",
"70 49 OFFCURVE",
"50 37 OFFCURVE",
"12 37 CURVE SMOOTH",
"-16 37 LINE",
"-23 0 LINE"
);
},
{
closed = 1;
nodes = (
"522 778 LINE",
"693 935 LINE",
"676 961 LINE",
"537 866 LINE SMOOTH",
"523 857 OFFCURVE",
"510 850 OFFCURVE",
"501 850 CURVE SMOOTH",
"492 850 OFFCURVE",
"483 857 OFFCURVE",
"472 866 CURVE",
"372 961 LINE",
"344 935 LINE",
"450 778 LINE"
);
}
);
width = 748;
}
);
note = Ncaron;
unicode = 0147;
},
{
glyphname = Ncommaaccent;
lastChange = "2015-12-01 12:25:39 +0000";
layers = (
{
layerId = "55173EE3-C87E-4AFC-850A-D9B4D5493314";
name = "Bold Italic";
paths = (
{
closed = 1;
nodes = (
"205 0 LINE",
"212 37 LINE",
"182 37 LINE SMOOTH",
"151 37 OFFCURVE",
"136 46 OFFCURVE",
"136 66 CURVE SMOOTH",
"136 68 OFFCURVE",
"136 72 OFFCURVE",
"137 75 CURVE SMOOTH",
"247 611 LINE",
"533 0 LINE",
"611 0 LINE",
"737 624 LINE SMOOTH",
"743 650 OFFCURVE",
"762 662 OFFCURVE",
"799 662 CURVE SMOOTH",
"828 662 LINE",
"836 700 LINE",
"607 700 LINE",
"599 662 LINE",
"629 662 LINE SMOOTH",
"660 662 OFFCURVE",
"676 653 OFFCURVE",
"676 634 CURVE SMOOTH",
"676 631 OFFCURVE",
"676 628 OFFCURVE",
"675 624 CURVE SMOOTH",
"586 188 LINE",
"349 700 LINE",
"119 700 LINE",
"111 662 LINE",
"140 662 LINE SMOOTH",
"173 662 OFFCURVE",
"188 653 OFFCURVE",
"188 634 CURVE SMOOTH",
"188 631 OFFCURVE",
"188 628 OFFCURVE",
"187 624 CURVE SMOOTH",
"75 75 LINE SMOOTH",
"70 49 OFFCURVE",
"50 37 OFFCURVE",
"12 37 CURVE SMOOTH",
"-16 37 LINE",
"-23 0 LINE"
);
},
{
closed = 1;
nodes = (
"276 -306 OFFCURVE",
"363 -218 OFFCURVE",
"363 -133 CURVE SMOOTH",
"363 -93 OFFCURVE",
"341 -72 OFFCURVE",
"309 -72 CURVE SMOOTH",
"268 -72 OFFCURVE",
"236 -104 OFFCURVE",
"236 -140 CURVE SMOOTH",
"236 -168 OFFCURVE",
"258 -182 OFFCURVE",
"258 -210 CURVE SMOOTH",
"258 -214 OFFCURVE",
"258 -218 OFFCURVE",
"257 -222 CURVE SMOOTH",
"250 -263 OFFCURVE",
"217 -300 OFFCURVE",
"180 -332 CURVE",
"199 -354 LINE"
);
}
);
width = 748;
}
);
note = Ncommaaccent;
unicode = 0145;
},
{
glyphname = Ndotaccent;
lastChange = "2015-12-01 12:25:39 +0000";
layers = (
{
layerId = "55173EE3-C87E-4AFC-850A-D9B4D5493314";
name = "Bold Italic";
paths = (
{
closed = 1;
nodes = (
"205 0 LINE",
"212 37 LINE",
"182 37 LINE SMOOTH",
"151 37 OFFCURVE",
"136 46 OFFCURVE",
"136 66 CURVE SMOOTH",
"136 68 OFFCURVE",
"136 72 OFFCURVE",
"137 75 CURVE SMOOTH",
"247 611 LINE",
"533 0 LINE",
"611 0 LINE",
"737 624 LINE SMOOTH",
"743 650 OFFCURVE",
"762 662 OFFCURVE",
"799 662 CURVE SMOOTH",
"828 662 LINE",
"836 700 LINE",
"607 700 LINE",
"599 662 LINE",
"629 662 LINE SMOOTH",
"660 662 OFFCURVE",
"676 653 OFFCURVE",
"676 634 CURVE SMOOTH",
"676 631 OFFCURVE",
"676 628 OFFCURVE",
"675 624 CURVE SMOOTH",
"586 188 LINE",
"349 700 LINE",
"119 700 LINE",
"111 662 LINE",
"140 662 LINE SMOOTH",
"173 662 OFFCURVE",
"188 653 OFFCURVE",
"188 634 CURVE SMOOTH",
"188 631 OFFCURVE",
"188 628 OFFCURVE",
"187 624 CURVE SMOOTH",
"75 75 LINE SMOOTH",
"70 49 OFFCURVE",
"50 37 OFFCURVE",
"12 37 CURVE SMOOTH",
"-16 37 LINE",
"-23 0 LINE"
);
},
{
closed = 1;
nodes = (
"530 770 OFFCURVE",
"563 803 OFFCURVE",
"563 843 CURVE SMOOTH",
"563 872 OFFCURVE",
"546 892 OFFCURVE",
"516 892 CURVE SMOOTH",
"474 892 OFFCURVE",
"443 858 OFFCURVE",
"443 817 CURVE SMOOTH",
"443 789 OFFCURVE",
"459 770 OFFCURVE",
"491 770 CURVE SMOOTH"
);
}
);
width = 748;
}
);
note = Ndotaccent;
unicode = 1E44;
},
{
glyphname = Ndotbelow;
lastChange = "2015-12-01 12:26:57 +0000";
layers = (
{
layerId = "55173EE3-C87E-4AFC-850A-D9B4D5493314";
name = "Bold Italic";
paths = (
{
closed = 1;
nodes = (
"205 0 LINE",
"212 37 LINE",
"182 37 LINE SMOOTH",
"151 37 OFFCURVE",
"136 46 OFFCURVE",
"136 66 CURVE SMOOTH",
"136 68 OFFCURVE",
"136 72 OFFCURVE",
"137 75 CURVE SMOOTH",
"247 611 LINE",
"533 0 LINE",
"611 0 LINE",
"737 624 LINE SMOOTH",
"743 650 OFFCURVE",
"762 662 OFFCURVE",
"799 662 CURVE SMOOTH",
"828 662 LINE",
"836 700 LINE",
"607 700 LINE",
"599 662 LINE",
"629 662 LINE SMOOTH",
"660 662 OFFCURVE",
"676 653 OFFCURVE",
"676 634 CURVE SMOOTH",
"676 631 OFFCURVE",
"676 628 OFFCURVE",
"675 624 CURVE SMOOTH",
"586 188 LINE",
"349 700 LINE",
"119 700 LINE",
"111 662 LINE",
"140 662 LINE SMOOTH",
"173 662 OFFCURVE",
"188 653 OFFCURVE",
"188 634 CURVE SMOOTH",
"188 631 OFFCURVE",
"188 628 OFFCURVE",
"187 624 CURVE SMOOTH",
"75 75 LINE SMOOTH",
"70 49 OFFCURVE",
"50 37 OFFCURVE",
"12 37 CURVE SMOOTH",
"-16 37 LINE",
"-23 0 LINE"
);
},
{
closed = 1;
nodes = (
"343 -188 OFFCURVE",
"375 -153 OFFCURVE",
"375 -112 CURVE SMOOTH",
"375 -84 OFFCURVE",
"358 -64 OFFCURVE",
"327 -64 CURVE SMOOTH",
"286 -64 OFFCURVE",
"254 -100 OFFCURVE",
"254 -141 CURVE SMOOTH",
"254 -168 OFFCURVE",
"271 -188 OFFCURVE",
"302 -188 CURVE SMOOTH"
);
}
);
width = 748;
}
);
note = uni1E46;
unicode = 1E46;
},
{
glyphname = Eng;
lastChange = "2015-12-01 12:25:36 +0000";
layers = (
{
layerId = "55173EE3-C87E-4AFC-850A-D9B4D5493314";
name = "Bold Italic";
paths = (
{
closed = 1;
nodes = (
"460 -290 OFFCURVE",
"566 -215 OFFCURVE",
"600 -51 CURVE SMOOTH",
"737 624 LINE SMOOTH",
"743 650 OFFCURVE",
"762 662 OFFCURVE",
"799 662 CURVE SMOOTH",
"828 662 LINE",
"836 700 LINE",
"607 700 LINE",
"599 662 LINE",
"629 662 LINE SMOOTH",
"660 662 OFFCURVE",
"676 653 OFFCURVE",
"676 634 CURVE SMOOTH",
"676 631 OFFCURVE",
"676 628 OFFCURVE",
"675 624 CURVE SMOOTH",
"586 188 LINE",
"349 700 LINE",
"119 700 LINE",
"111 662 LINE",
"140 662 LINE SMOOTH",
"173 662 OFFCURVE",
"188 653 OFFCURVE",
"188 634 CURVE SMOOTH",
"188 631 OFFCURVE",
"188 628 OFFCURVE",
"187 624 CURVE SMOOTH",
"76 78 LINE SMOOTH",
"71 52 OFFCURVE",
"55 37 OFFCURVE",
"12 37 CURVE SMOOTH",
"-16 37 LINE",
"-23 0 LINE",
"205 0 LINE",
"212 37 LINE",
"182 37 LINE SMOOTH",
"151 37 OFFCURVE",
"136 46 OFFCURVE",
"136 66 CURVE SMOOTH",
"136 68 OFFCURVE",
"136 72 OFFCURVE",
"137 75 CURVE SMOOTH",
"248 614 LINE",
"533 0 LINE",
"515 -86 LINE SMOOTH",
"494 -188 OFFCURVE",
"390 -261 OFFCURVE",
"294 -264 CURVE",
"293 -296 LINE"
);
}
);
width = 748;
}
);
note = Eng;
unicode = 014A;
},
{
glyphname = Nlinebelow;
lastChange = "2015-12-01 12:25:41 +0000";
layers = (
{
layerId = "55173EE3-C87E-4AFC-850A-D9B4D5493314";
name = "Bold Italic";
paths = (
{
closed = 1;
nodes = (
"205 0 LINE",
"212 37 LINE",
"182 37 LINE SMOOTH",
"151 37 OFFCURVE",
"136 46 OFFCURVE",
"136 66 CURVE SMOOTH",
"136 68 OFFCURVE",
"136 72 OFFCURVE",
"137 75 CURVE SMOOTH",
"247 611 LINE",
"533 0 LINE",
"611 0 LINE",
"737 624 LINE SMOOTH",
"743 650 OFFCURVE",
"762 662 OFFCURVE",
"799 662 CURVE SMOOTH",
"828 662 LINE",
"836 700 LINE",
"607 700 LINE",
"599 662 LINE",
"629 662 LINE SMOOTH",
"660 662 OFFCURVE",
"676 653 OFFCURVE",
"676 634 CURVE SMOOTH",
"676 631 OFFCURVE",
"676 628 OFFCURVE",
"675 624 CURVE SMOOTH",
"586 188 LINE",
"349 700 LINE",
"119 700 LINE",
"111 662 LINE",
"140 662 LINE SMOOTH",
"173 662 OFFCURVE",
"188 653 OFFCURVE",
"188 634 CURVE SMOOTH",
"188 631 OFFCURVE",
"188 628 OFFCURVE",
"187 624 CURVE SMOOTH",
"75 75 LINE SMOOTH",
"70 49 OFFCURVE",
"50 37 OFFCURVE",
"12 37 CURVE SMOOTH",
"-16 37 LINE",
"-23 0 LINE"
);
},
{
closed = 1;
nodes = (
"492 -120 LINE",
"502 -68 LINE",
"137 -68 LINE",
"127 -120 LINE"
);
}
);
width = 748;
}
);
note = Nlinebelow;
unicode = 1E48;
},
{
glyphname = Ntilde;
lastChange = "2015-12-01 12:25:39 +0000";
layers = (
{
layerId = "55173EE3-C87E-4AFC-850A-D9B4D5493314";
name = "Bold Italic";
paths = (
{
closed = 1;
nodes = (
"205 0 LINE",
"212 37 LINE",
"182 37 LINE SMOOTH",
"151 37 OFFCURVE",
"136 46 OFFCURVE",
"136 66 CURVE SMOOTH",
"136 68 OFFCURVE",
"136 72 OFFCURVE",
"137 75 CURVE SMOOTH",
"247 611 LINE",
"533 0 LINE",
"611 0 LINE",
"737 624 LINE SMOOTH",
"743 650 OFFCURVE",
"762 662 OFFCURVE",
"799 662 CURVE SMOOTH",
"828 662 LINE",
"836 700 LINE",
"607 700 LINE",
"599 662 LINE",
"629 662 LINE SMOOTH",
"660 662 OFFCURVE",
"676 653 OFFCURVE",
"676 634 CURVE SMOOTH",
"676 631 OFFCURVE",
"676 628 OFFCURVE",
"675 624 CURVE SMOOTH",
"586 188 LINE",
"349 700 LINE",
"119 700 LINE",
"111 662 LINE",
"140 662 LINE SMOOTH",
"173 662 OFFCURVE",
"188 653 OFFCURVE",
"188 634 CURVE SMOOTH",
"188 631 OFFCURVE",
"188 628 OFFCURVE",
"187 624 CURVE SMOOTH",
"75 75 LINE SMOOTH",
"70 49 OFFCURVE",
"50 37 OFFCURVE",
"12 37 CURVE SMOOTH",
"-16 37 LINE",
"-23 0 LINE"
);
},
{
closed = 1;
nodes = (
"371 814 OFFCURVE",
"391 833 OFFCURVE",
"425 833 CURVE SMOOTH",
"482 833 OFFCURVE",
"523 784 OFFCURVE",
"579 784 CURVE SMOOTH",
"647 784 OFFCURVE",
"691 849 OFFCURVE",
"716 897 CURVE",
"692 912 LINE",
"666 872 OFFCURVE",
"648 853 OFFCURVE",
"612 853 CURVE SMOOTH",
"557 853 OFFCURVE",
"514 901 OFFCURVE",
"458 901 CURVE SMOOTH",
"392 901 OFFCURVE",
"346 838 OFFCURVE",
"320 790 CURVE",
"344 775 LINE"
);
}
);
width = 748;
}
);
note = Ntilde;
unicode = 00D1;
},
{
glyphname = O;
lastChange = "2015-12-01 12:25:40 +0000";
layers = (
{
layerId = "55173EE3-C87E-4AFC-850A-D9B4D5493314";
name = "Bold Italic";
paths = (
{
closed = 1;
nodes = (
"581 -10 OFFCURVE",
"721 131 OFFCURVE",
"766 350 CURVE SMOOTH",
"774 387 OFFCURVE",
"777 422 OFFCURVE",
"777 455 CURVE SMOOTH",
"777 612 OFFCURVE",
"687 710 OFFCURVE",
"488 710 CURVE SMOOTH",
"249 710 OFFCURVE",
"108 568 OFFCURVE",
"64 350 CURVE SMOOTH",
"56 312 OFFCURVE",
"52 277 OFFCURVE",
"52 244 CURVE SMOOTH",
"52 87 OFFCURVE",
"143 -10 OFFCURVE",
"341 -10 CURVE SMOOTH"
);
},
{
closed = 1;
nodes = (
"250 47 OFFCURVE",
"200 116 OFFCURVE",
"200 233 CURVE SMOOTH",
"200 268 OFFCURVE",
"204 307 OFFCURVE",
"213 350 CURVE SMOOTH",
"252 537 OFFCURVE",
"345 654 OFFCURVE",
"476 654 CURVE SMOOTH",
"579 654 OFFCURVE",
"630 584 OFFCURVE",
"630 467 CURVE SMOOTH",
"630 432 OFFCURVE",
"626 393 OFFCURVE",
"617 350 CURVE SMOOTH",
"579 162 OFFCURVE",
"485 47 OFFCURVE",
"351 47 CURVE SMOOTH"
);
}
);
width = 765;
}
);
leftKerningGroup = O;
note = O;
rightKerningGroup = O;
unicode = 004F;
},
{
glyphname = Oacute;
lastChange = "2015-12-01 12:25:41 +0000";
layers = (
{
layerId = "55173EE3-C87E-4AFC-850A-D9B4D5493314";
name = "Bold Italic";
paths = (
{
closed = 1;
nodes = (
"581 -10 OFFCURVE",
"721 131 OFFCURVE",
"766 350 CURVE SMOOTH",
"774 387 OFFCURVE",
"777 422 OFFCURVE",
"777 455 CURVE SMOOTH",
"777 612 OFFCURVE",
"687 710 OFFCURVE",
"488 710 CURVE SMOOTH",
"249 710 OFFCURVE",
"108 568 OFFCURVE",
"64 350 CURVE SMOOTH",
"56 312 OFFCURVE",
"52 277 OFFCURVE",
"52 244 CURVE SMOOTH",
"52 87 OFFCURVE",
"143 -10 OFFCURVE",
"341 -10 CURVE SMOOTH"
);
},
{
closed = 1;
nodes = (
"250 47 OFFCURVE",
"200 116 OFFCURVE",
"200 233 CURVE SMOOTH",
"200 268 OFFCURVE",
"204 307 OFFCURVE",
"213 350 CURVE SMOOTH",
"252 537 OFFCURVE",
"345 654 OFFCURVE",
"476 654 CURVE SMOOTH",
"579 654 OFFCURVE",
"630 584 OFFCURVE",
"630 467 CURVE SMOOTH",
"630 432 OFFCURVE",
"626 393 OFFCURVE",
"617 350 CURVE SMOOTH",
"579 162 OFFCURVE",
"485 47 OFFCURVE",
"351 47 CURVE SMOOTH"
);
},
{
closed = 1;
nodes = (
"586 869 LINE SMOOTH",
"622 889 OFFCURVE",
"644 909 OFFCURVE",
"644 937 CURVE SMOOTH",
"644 954 OFFCURVE",
"633 971 OFFCURVE",
"606 971 CURVE SMOOTH",
"576 971 OFFCURVE",
"549 946 OFFCURVE",
"540 938 CURVE SMOOTH",
"398 815 LINE",
"417 777 LINE"
);
}
);
width = 765;
}
);
leftKerningGroup = O;
note = Oacute;
rightKerningGroup = O;
unicode = 00D3;
},
{
glyphname = Obreve;
lastChange = "2015-12-01 12:25:39 +0000";
layers = (
{
layerId = "55173EE3-C87E-4AFC-850A-D9B4D5493314";
name = "Bold Italic";
paths = (
{
closed = 1;
nodes = (
"581 -10 OFFCURVE",
"721 131 OFFCURVE",
"766 350 CURVE SMOOTH",
"774 387 OFFCURVE",
"777 422 OFFCURVE",
"777 455 CURVE SMOOTH",
"777 612 OFFCURVE",
"687 710 OFFCURVE",
"488 710 CURVE SMOOTH",
"249 710 OFFCURVE",
"108 568 OFFCURVE",
"64 350 CURVE SMOOTH",
"56 312 OFFCURVE",
"52 277 OFFCURVE",
"52 244 CURVE SMOOTH",
"52 87 OFFCURVE",
"143 -10 OFFCURVE",
"341 -10 CURVE SMOOTH"
);
},
{
closed = 1;
nodes = (
"250 47 OFFCURVE",
"200 116 OFFCURVE",
"200 233 CURVE SMOOTH",
"200 268 OFFCURVE",
"204 307 OFFCURVE",
"213 350 CURVE SMOOTH",
"252 537 OFFCURVE",
"345 654 OFFCURVE",
"476 654 CURVE SMOOTH",
"579 654 OFFCURVE",
"630 584 OFFCURVE",
"630 467 CURVE SMOOTH",
"630 432 OFFCURVE",
"626 393 OFFCURVE",
"617 350 CURVE SMOOTH",
"579 162 OFFCURVE",
"485 47 OFFCURVE",
"351 47 CURVE SMOOTH"
);
},
{
closed = 1;
nodes = (
"619 775 OFFCURVE",
"666 848 OFFCURVE",
"684 921 CURVE",
"645 921 LINE",
"633 879 OFFCURVE",
"595 840 OFFCURVE",
"514 840 CURVE SMOOTH",
"432 840 OFFCURVE",
"410 879 OFFCURVE",
"414 921 CURVE",
"377 921 LINE",
"374 907 OFFCURVE",
"373 894 OFFCURVE",
"373 881 CURVE SMOOTH",
"373 821 OFFCURVE",
"403 775 OFFCURVE",
"501 775 CURVE SMOOTH"
);
}
);
width = 765;
}
);
leftKerningGroup = O;
note = Obreve;
rightKerningGroup = O;
unicode = 014E;
},
{
glyphname = Ocaron;
lastChange = "2015-12-01 12:25:40 +0000";
layers = (
{
layerId = "55173EE3-C87E-4AFC-850A-D9B4D5493314";
name = "Bold Italic";
paths = (
{
closed = 1;
nodes = (
"581 -10 OFFCURVE",
"721 131 OFFCURVE",
"766 350 CURVE SMOOTH",
"774 387 OFFCURVE",
"777 422 OFFCURVE",
"777 455 CURVE SMOOTH",
"777 612 OFFCURVE",
"687 710 OFFCURVE",
"488 710 CURVE SMOOTH",
"249 710 OFFCURVE",
"108 568 OFFCURVE",
"64 350 CURVE SMOOTH",
"56 312 OFFCURVE",
"52 277 OFFCURVE",
"52 244 CURVE SMOOTH",
"52 87 OFFCURVE",
"143 -10 OFFCURVE",
"341 -10 CURVE SMOOTH"
);
},
{
closed = 1;
nodes = (
"250 47 OFFCURVE",
"200 116 OFFCURVE",
"200 233 CURVE SMOOTH",
"200 268 OFFCURVE",
"204 307 OFFCURVE",
"213 350 CURVE SMOOTH",
"252 537 OFFCURVE",
"345 654 OFFCURVE",
"476 654 CURVE SMOOTH",
"579 654 OFFCURVE",
"630 584 OFFCURVE",
"630 467 CURVE SMOOTH",
"630 432 OFFCURVE",
"626 393 OFFCURVE",
"617 350 CURVE SMOOTH",
"579 162 OFFCURVE",
"485 47 OFFCURVE",
"351 47 CURVE SMOOTH"
);
},
{
closed = 1;
nodes = (
"537 778 LINE",
"708 935 LINE",
"690 961 LINE",
"551 866 LINE SMOOTH",
"538 857 OFFCURVE",
"524 850 OFFCURVE",
"516 850 CURVE SMOOTH",
"507 850 OFFCURVE",
"497 857 OFFCURVE",
"487 866 CURVE",
"386 961 LINE",
"358 935 LINE",
"465 778 LINE"
);
}
);
width = 765;
}
);
leftKerningGroup = O;
note = Ocaron;
rightKerningGroup = O;
unicode = 01D1;
},
{
glyphname = Ocircumflex;
lastChange = "2015-12-01 12:25:39 +0000";
layers = (
{
layerId = "55173EE3-C87E-4AFC-850A-D9B4D5493314";
name = "Bold Italic";
paths = (
{
closed = 1;
nodes = (
"581 -10 OFFCURVE",
"721 131 OFFCURVE",
"766 350 CURVE SMOOTH",
"774 387 OFFCURVE",
"777 422 OFFCURVE",
"777 455 CURVE SMOOTH",
"777 612 OFFCURVE",
"687 710 OFFCURVE",
"488 710 CURVE SMOOTH",
"249 710 OFFCURVE",
"108 568 OFFCURVE",
"64 350 CURVE SMOOTH",
"56 312 OFFCURVE",
"52 277 OFFCURVE",
"52 244 CURVE SMOOTH",
"52 87 OFFCURVE",
"143 -10 OFFCURVE",
"341 -10 CURVE SMOOTH"
);
},
{
closed = 1;
nodes = (
"250 47 OFFCURVE",
"200 116 OFFCURVE",
"200 233 CURVE SMOOTH",
"200 268 OFFCURVE",
"204 307 OFFCURVE",
"213 350 CURVE SMOOTH",
"252 537 OFFCURVE",
"345 654 OFFCURVE",
"476 654 CURVE SMOOTH",
"579 654 OFFCURVE",
"630 584 OFFCURVE",
"630 467 CURVE SMOOTH",
"630 432 OFFCURVE",
"626 393 OFFCURVE",
"617 350 CURVE SMOOTH",
"579 162 OFFCURVE",
"485 47 OFFCURVE",
"351 47 CURVE SMOOTH"
);
},
{
closed = 1;
nodes = (
"488 873 LINE SMOOTH",
"501 882 OFFCURVE",
"516 889 OFFCURVE",
"524 889 CURVE SMOOTH",
"533 889 OFFCURVE",
"542 882 OFFCURVE",
"552 873 CURVE SMOOTH",
"653 778 LINE",
"681 804 LINE",
"574 961 LINE",
"502 961 LINE",
"331 804 LINE",
"349 778 LINE"
);
}
);
width = 765;
}
);
leftKerningGroup = O;
note = Ocircumflex;
rightKerningGroup = O;
unicode = 00D4;
},
{
glyphname = Ocircumflexacute;
lastChange = "2015-12-01 12:25:40 +0000";
layers = (
{
layerId = "55173EE3-C87E-4AFC-850A-D9B4D5493314";
name = "Bold Italic";
paths = (
{
closed = 1;
nodes = (
"581 -10 OFFCURVE",
"721 131 OFFCURVE",
"766 350 CURVE SMOOTH",
"774 387 OFFCURVE",
"777 422 OFFCURVE",
"777 455 CURVE SMOOTH",
"777 612 OFFCURVE",
"687 710 OFFCURVE",
"488 710 CURVE SMOOTH",
"249 710 OFFCURVE",
"108 568 OFFCURVE",
"64 350 CURVE SMOOTH",
"56 312 OFFCURVE",
"52 277 OFFCURVE",
"52 244 CURVE SMOOTH",
"52 87 OFFCURVE",
"143 -10 OFFCURVE",
"341 -10 CURVE SMOOTH"
);
},
{
closed = 1;
nodes = (
"250 47 OFFCURVE",
"200 116 OFFCURVE",
"200 233 CURVE SMOOTH",
"200 268 OFFCURVE",
"204 307 OFFCURVE",
"213 350 CURVE SMOOTH",
"252 537 OFFCURVE",
"345 654 OFFCURVE",
"476 654 CURVE SMOOTH",
"579 654 OFFCURVE",
"630 584 OFFCURVE",
"630 467 CURVE SMOOTH",
"630 432 OFFCURVE",
"626 393 OFFCURVE",
"617 350 CURVE SMOOTH",
"579 162 OFFCURVE",
"485 47 OFFCURVE",
"351 47 CURVE SMOOTH"
);
},
{
closed = 1;
nodes = (
"484 866 LINE SMOOTH",
"499 877 OFFCURVE",
"514 887 OFFCURVE",
"523 887 CURVE SMOOTH",
"532 887 OFFCURVE",
"542 879 OFFCURVE",
"552 870 CURVE SMOOTH",
"648 776 LINE",
"675 802 LINE",
"574 959 LINE",
"503 959 LINE",
"337 802 LINE",
"353 776 LINE"
);
},
{
closed = 1;
nodes = (
"780 965 LINE SMOOTH",
"818 983 OFFCURVE",
"847 1008 OFFCURVE",
"847 1034 CURVE SMOOTH",
"847 1052 OFFCURVE",
"835 1071 OFFCURVE",
"807 1071 CURVE SMOOTH",
"780 1071 OFFCURVE",
"753 1047 OFFCURVE",
"737 1032 CURVE SMOOTH",
"638 938 LINE",
"655 905 LINE"
);
}
);
width = 765;
}
);
leftKerningGroup = O;
note = Ocircumflexacute;
rightKerningGroup = O;
unicode = 1ED0;
},
{
glyphname = Ocircumflexdotbelow;
lastChange = "2015-12-01 12:27:05 +0000";
layers = (
{
layerId = "55173EE3-C87E-4AFC-850A-D9B4D5493314";
name = "Bold Italic";
paths = (
{
closed = 1;
nodes = (
"52 87 OFFCURVE",
"143 -10 OFFCURVE",
"341 -10 CURVE SMOOTH",
"581 -10 OFFCURVE",
"721 131 OFFCURVE",
"766 350 CURVE SMOOTH",
"774 387 OFFCURVE",
"777 422 OFFCURVE",
"777 455 CURVE SMOOTH",
"777 612 OFFCURVE",
"687 710 OFFCURVE",
"488 710 CURVE SMOOTH",
"249 710 OFFCURVE",
"108 568 OFFCURVE",
"64 350 CURVE SMOOTH",
"56 312 OFFCURVE",
"52 277 OFFCURVE",
"52 244 CURVE SMOOTH"
);
},
{
closed = 1;
nodes = (
"200 268 OFFCURVE",
"204 307 OFFCURVE",
"213 350 CURVE SMOOTH",
"252 537 OFFCURVE",
"345 654 OFFCURVE",
"476 654 CURVE SMOOTH",
"579 654 OFFCURVE",
"630 584 OFFCURVE",
"630 467 CURVE SMOOTH",
"630 432 OFFCURVE",
"626 393 OFFCURVE",
"617 350 CURVE SMOOTH",
"579 162 OFFCURVE",
"485 47 OFFCURVE",
"351 47 CURVE SMOOTH",
"250 47 OFFCURVE",
"200 116 OFFCURVE",
"200 233 CURVE SMOOTH"
);
},
{
closed = 1;
nodes = (
"243 -169 OFFCURVE",
"261 -188 OFFCURVE",
"292 -188 CURVE SMOOTH",
"327 -188 OFFCURVE",
"355 -161 OFFCURVE",
"363 -127 CURVE SMOOTH",
"364 -122 OFFCURVE",
"364 -117 OFFCURVE",
"364 -112 CURVE SMOOTH",
"364 -85 OFFCURVE",
"347 -64 OFFCURVE",
"317 -64 CURVE SMOOTH",
"275 -64 OFFCURVE",
"243 -101 OFFCURVE",
"243 -142 CURVE SMOOTH"
);
},
{
closed = 1;
nodes = (
"349 778 LINE",
"488 873 LINE SMOOTH",
"501 882 OFFCURVE",
"516 889 OFFCURVE",
"524 889 CURVE SMOOTH",
"533 889 OFFCURVE",
"542 882 OFFCURVE",
"552 873 CURVE SMOOTH",
"653 778 LINE",
"681 804 LINE",
"574 961 LINE",
"502 961 LINE",
"331 804 LINE"
);
}
);
width = 765;
}
);
leftKerningGroup = O;
note = Ocircumflexdotbelow;
rightKerningGroup = O;
unicode = 1ED8;
},
{
glyphname = Ocircumflexgrave;
lastChange = "2015-12-01 12:25:41 +0000";
layers = (
{
layerId = "55173EE3-C87E-4AFC-850A-D9B4D5493314";
name = "Bold Italic";
paths = (
{
closed = 1;
nodes = (
"581 -10 OFFCURVE",
"721 131 OFFCURVE",
"766 350 CURVE SMOOTH",
"774 387 OFFCURVE",
"777 422 OFFCURVE",
"777 455 CURVE SMOOTH",
"777 612 OFFCURVE",
"687 710 OFFCURVE",
"488 710 CURVE SMOOTH",
"249 710 OFFCURVE",
"108 568 OFFCURVE",
"64 350 CURVE SMOOTH",
"56 312 OFFCURVE",
"52 277 OFFCURVE",
"52 244 CURVE SMOOTH",
"52 87 OFFCURVE",
"143 -10 OFFCURVE",
"341 -10 CURVE SMOOTH"
);
},
{
closed = 1;
nodes = (
"250 47 OFFCURVE",
"200 116 OFFCURVE",
"200 233 CURVE SMOOTH",
"200 268 OFFCURVE",
"204 307 OFFCURVE",
"213 350 CURVE SMOOTH",
"252 537 OFFCURVE",
"345 654 OFFCURVE",
"476 654 CURVE SMOOTH",
"579 654 OFFCURVE",
"630 584 OFFCURVE",
"630 467 CURVE SMOOTH",
"630 432 OFFCURVE",
"626 393 OFFCURVE",
"617 350 CURVE SMOOTH",
"579 162 OFFCURVE",
"485 47 OFFCURVE",
"351 47 CURVE SMOOTH"
);
},
{
closed = 1;
nodes = (
"432 938 LINE",
"369 1034 LINE SMOOTH",
"360 1048 OFFCURVE",
"344 1072 OFFCURVE",
"317 1072 CURVE SMOOTH",
"277 1072 OFFCURVE",
"259 1035 OFFCURVE",
"259 1019 CURVE SMOOTH",
"259 999 OFFCURVE",
"274 981 OFFCURVE",
"299 967 CURVE SMOOTH",
"401 905 LINE"
);
},
{
closed = 1;
nodes = (
"484 866 LINE SMOOTH",
"499 877 OFFCURVE",
"514 887 OFFCURVE",
"523 887 CURVE SMOOTH",
"532 887 OFFCURVE",
"542 879 OFFCURVE",
"552 870 CURVE SMOOTH",
"648 776 LINE",
"675 802 LINE",
"574 959 LINE",
"503 959 LINE",
"337 802 LINE",
"353 776 LINE"
);
}
);
width = 765;
}
);
leftKerningGroup = O;
note = Ocircumflexgrave;
rightKerningGroup = O;
unicode = 1ED2;
},
{
glyphname = Ocircumflexhookabove;
lastChange = "2015-12-01 12:25:39 +0000";
layers = (
{
layerId = "55173EE3-C87E-4AFC-850A-D9B4D5493314";
name = "Bold Italic";
paths = (
{
closed = 1;
nodes = (
"581 -10 OFFCURVE",
"721 131 OFFCURVE",
"766 350 CURVE SMOOTH",
"774 387 OFFCURVE",
"777 422 OFFCURVE",
"777 455 CURVE SMOOTH",
"777 612 OFFCURVE",
"687 710 OFFCURVE",
"488 710 CURVE SMOOTH",
"249 710 OFFCURVE",
"108 568 OFFCURVE",
"64 350 CURVE SMOOTH",
"56 312 OFFCURVE",
"52 277 OFFCURVE",
"52 244 CURVE SMOOTH",
"52 87 OFFCURVE",
"143 -10 OFFCURVE",
"341 -10 CURVE SMOOTH"
);
},
{
closed = 1;
nodes = (
"250 47 OFFCURVE",
"200 116 OFFCURVE",
"200 233 CURVE SMOOTH",
"200 268 OFFCURVE",
"204 307 OFFCURVE",
"213 350 CURVE SMOOTH",
"252 537 OFFCURVE",
"345 654 OFFCURVE",
"476 654 CURVE SMOOTH",
"579 654 OFFCURVE",
"630 584 OFFCURVE",
"630 467 CURVE SMOOTH",
"630 432 OFFCURVE",
"626 393 OFFCURVE",
"617 350 CURVE SMOOTH",
"579 162 OFFCURVE",
"485 47 OFFCURVE",
"351 47 CURVE SMOOTH"
);
},
{
closed = 1;
nodes = (
"484 867 LINE SMOOTH",
"499 878 OFFCURVE",
"514 888 OFFCURVE",
"523 888 CURVE SMOOTH",
"532 888 OFFCURVE",
"542 880 OFFCURVE",
"552 871 CURVE SMOOTH",
"648 777 LINE",
"675 803 LINE",
"574 960 LINE",
"503 960 LINE",
"337 803 LINE",
"353 777 LINE"
);
},
{
closed = 1;
nodes = (
"717 921 LINE",
"705 925 OFFCURVE",
"695 928 OFFCURVE",
"695 940 CURVE SMOOTH",
"695 942 OFFCURVE",
"695 944 OFFCURVE",
"696 947 CURVE SMOOTH",
"703 984 OFFCURVE",
"805 992 OFFCURVE",
"805 1054 CURVE SMOOTH",
"805 1088 OFFCURVE",
"766 1104 OFFCURVE",
"723 1104 CURVE SMOOTH",
"670 1104 OFFCURVE",
"628 1079 OFFCURVE",
"628 1049 CURVE SMOOTH",
"628 1036 OFFCURVE",
"638 1029 OFFCURVE",
"648 1029 CURVE SMOOTH",
"682 1029 OFFCURVE",
"678 1078 OFFCURVE",
"721 1078 CURVE SMOOTH",
"740 1078 OFFCURVE",
"746 1063 OFFCURVE",
"743 1049 CURVE SMOOTH",
"731 998 OFFCURVE",
"645 990 OFFCURVE",
"645 939 CURVE SMOOTH",
"645 916 OFFCURVE",
"665 900 OFFCURVE",
"705 900 CURVE"
);
}
);
width = 765;
}
);
leftKerningGroup = O;
note = Ocircumflexhookabove;
rightKerningGroup = O;
unicode = 1ED4;
},
{
glyphname = Ocircumflextilde;
lastChange = "2015-12-01 12:25:41 +0000";
layers = (
{
layerId = "55173EE3-C87E-4AFC-850A-D9B4D5493314";
name = "Bold Italic";
paths = (
{
closed = 1;
nodes = (
"581 -10 OFFCURVE",
"721 131 OFFCURVE",
"766 350 CURVE SMOOTH",
"774 387 OFFCURVE",
"777 422 OFFCURVE",
"777 455 CURVE SMOOTH",
"777 612 OFFCURVE",
"687 710 OFFCURVE",
"488 710 CURVE SMOOTH",
"249 710 OFFCURVE",
"108 568 OFFCURVE",
"64 350 CURVE SMOOTH",
"56 312 OFFCURVE",
"52 277 OFFCURVE",
"52 244 CURVE SMOOTH",
"52 87 OFFCURVE",
"143 -10 OFFCURVE",
"341 -10 CURVE SMOOTH"
);
},
{
closed = 1;
nodes = (
"250 47 OFFCURVE",
"200 116 OFFCURVE",
"200 233 CURVE SMOOTH",
"200 268 OFFCURVE",
"204 307 OFFCURVE",
"213 350 CURVE SMOOTH",
"252 537 OFFCURVE",
"345 654 OFFCURVE",
"476 654 CURVE SMOOTH",
"579 654 OFFCURVE",
"630 584 OFFCURVE",
"630 467 CURVE SMOOTH",
"630 432 OFFCURVE",
"626 393 OFFCURVE",
"617 350 CURVE SMOOTH",
"579 162 OFFCURVE",
"485 47 OFFCURVE",
"351 47 CURVE SMOOTH"
);
},
{
closed = 1;
nodes = (
"484 867 LINE SMOOTH",
"499 878 OFFCURVE",
"514 888 OFFCURVE",
"523 888 CURVE SMOOTH",
"532 888 OFFCURVE",
"542 880 OFFCURVE",
"552 871 CURVE SMOOTH",
"648 777 LINE",
"675 803 LINE",
"574 960 LINE",
"503 960 LINE",
"337 803 LINE",
"353 777 LINE"
);
},
{
closed = 1;
nodes = (
"419 1019 OFFCURVE",
"438 1038 OFFCURVE",
"469 1038 CURVE SMOOTH",
"522 1038 OFFCURVE",
"561 989 OFFCURVE",
"612 989 CURVE SMOOTH",
"673 989 OFFCURVE",
"716 1055 OFFCURVE",
"740 1102 CURVE",
"718 1118 LINE",
"693 1077 OFFCURVE",
"675 1058 OFFCURVE",
"643 1058 CURVE SMOOTH",
"592 1058 OFFCURVE",
"553 1106 OFFCURVE",
"502 1106 CURVE SMOOTH",
"441 1106 OFFCURVE",
"396 1043 OFFCURVE",
"373 995 CURVE",
"395 980 LINE"
);
}
);
width = 765;
}
);
leftKerningGroup = O;
note = Ocircumflextilde;
rightKerningGroup = O;
unicode = 1ED6;
},
{
glyphname = Odieresis;
lastChange = "2015-12-01 12:25:40 +0000";
layers = (
{
layerId = "55173EE3-C87E-4AFC-850A-D9B4D5493314";
name = "Bold Italic";
paths = (
{
closed = 1;
nodes = (
"581 -10 OFFCURVE",
"721 131 OFFCURVE",
"766 350 CURVE SMOOTH",
"774 387 OFFCURVE",
"777 422 OFFCURVE",
"777 455 CURVE SMOOTH",
"777 612 OFFCURVE",
"687 710 OFFCURVE",
"488 710 CURVE SMOOTH",
"249 710 OFFCURVE",
"108 568 OFFCURVE",
"64 350 CURVE SMOOTH",
"56 312 OFFCURVE",
"52 277 OFFCURVE",
"52 244 CURVE SMOOTH",
"52 87 OFFCURVE",
"143 -10 OFFCURVE",
"341 -10 CURVE SMOOTH"
);
},
{
closed = 1;
nodes = (
"250 47 OFFCURVE",
"200 116 OFFCURVE",
"200 233 CURVE SMOOTH",
"200 268 OFFCURVE",
"204 307 OFFCURVE",
"213 350 CURVE SMOOTH",
"252 537 OFFCURVE",
"345 654 OFFCURVE",
"476 654 CURVE SMOOTH",
"579 654 OFFCURVE",
"630 584 OFFCURVE",
"630 467 CURVE SMOOTH",
"630 432 OFFCURVE",
"626 393 OFFCURVE",
"617 350 CURVE SMOOTH",
"579 162 OFFCURVE",
"485 47 OFFCURVE",
"351 47 CURVE SMOOTH"
);
},
{
closed = 1;
nodes = (
"425 778 OFFCURVE",
"453 804 OFFCURVE",
"461 838 CURVE",
"462 843 OFFCURVE",
"462 848 OFFCURVE",
"462 853 CURVE SMOOTH",
"462 881 OFFCURVE",
"445 900 OFFCURVE",
"414 900 CURVE SMOOTH",
"378 900 OFFCURVE",
"350 874 OFFCURVE",
"344 838 CURVE",
"343 832 OFFCURVE",
"342 827 OFFCURVE",
"342 822 CURVE SMOOTH",
"342 796 OFFCURVE",
"359 778 OFFCURVE",
"389 778 CURVE SMOOTH"
);
},
{
closed = 1;
nodes = (
"648 778 OFFCURVE",
"676 804 OFFCURVE",
"684 838 CURVE",
"685 843 OFFCURVE",
"685 847 OFFCURVE",
"685 852 CURVE SMOOTH",
"685 880 OFFCURVE",
"668 900 OFFCURVE",
"637 900 CURVE SMOOTH",
"600 900 OFFCURVE",
"572 874 OFFCURVE",
"565 838 CURVE",
"564 833 OFFCURVE",
"563 828 OFFCURVE",
"563 824 CURVE SMOOTH",
"563 797 OFFCURVE",
"580 778 OFFCURVE",
"612 778 CURVE SMOOTH"
);
}
);
width = 765;
}
);
leftKerningGroup = O;
note = Odieresis;
rightKerningGroup = O;
unicode = 00D6;
},
{
glyphname = Odotbelow;
lastChange = "2015-12-01 12:27:09 +0000";
layers = (
{
layerId = "55173EE3-C87E-4AFC-850A-D9B4D5493314";
name = "Bold Italic";
paths = (
{
closed = 1;
nodes = (
"581 -10 OFFCURVE",
"721 131 OFFCURVE",
"766 350 CURVE SMOOTH",
"774 387 OFFCURVE",
"777 422 OFFCURVE",
"777 455 CURVE SMOOTH",
"777 612 OFFCURVE",
"687 710 OFFCURVE",
"488 710 CURVE SMOOTH",
"249 710 OFFCURVE",
"108 568 OFFCURVE",
"64 350 CURVE SMOOTH",
"56 312 OFFCURVE",
"52 277 OFFCURVE",
"52 244 CURVE SMOOTH",
"52 87 OFFCURVE",
"143 -10 OFFCURVE",
"341 -10 CURVE SMOOTH"
);
},
{
closed = 1;
nodes = (
"250 47 OFFCURVE",
"200 116 OFFCURVE",
"200 233 CURVE SMOOTH",
"200 268 OFFCURVE",
"204 307 OFFCURVE",
"213 350 CURVE SMOOTH",
"252 537 OFFCURVE",
"345 654 OFFCURVE",
"476 654 CURVE SMOOTH",
"579 654 OFFCURVE",
"630 584 OFFCURVE",
"630 467 CURVE SMOOTH",
"630 432 OFFCURVE",
"626 393 OFFCURVE",
"617 350 CURVE SMOOTH",
"579 162 OFFCURVE",
"485 47 OFFCURVE",
"351 47 CURVE SMOOTH"
);
},
{
closed = 1;
nodes = (
"347 -188 OFFCURVE",
"379 -153 OFFCURVE",
"379 -112 CURVE SMOOTH",
"379 -84 OFFCURVE",
"362 -64 OFFCURVE",
"331 -64 CURVE SMOOTH",
"290 -64 OFFCURVE",
"258 -100 OFFCURVE",
"258 -141 CURVE SMOOTH",
"258 -168 OFFCURVE",
"275 -188 OFFCURVE",
"306 -188 CURVE SMOOTH"
);
}
);
width = 765;
}
);
leftKerningGroup = O;
note = Odotbelow;
rightKerningGroup = O;
unicode = 1ECC;
},
{
glyphname = Ograve;
lastChange = "2015-12-01 12:25:39 +0000";
layers = (
{
layerId = "55173EE3-C87E-4AFC-850A-D9B4D5493314";
name = "Bold Italic";
paths = (
{
closed = 1;
nodes = (
"581 -10 OFFCURVE",
"721 131 OFFCURVE",
"766 350 CURVE SMOOTH",
"774 387 OFFCURVE",
"777 422 OFFCURVE",
"777 455 CURVE SMOOTH",
"777 612 OFFCURVE",
"687 710 OFFCURVE",
"488 710 CURVE SMOOTH",
"249 710 OFFCURVE",
"108 568 OFFCURVE",
"64 350 CURVE SMOOTH",
"56 312 OFFCURVE",
"52 277 OFFCURVE",
"52 244 CURVE SMOOTH",
"52 87 OFFCURVE",
"143 -10 OFFCURVE",
"341 -10 CURVE SMOOTH"
);
},
{
closed = 1;
nodes = (
"250 47 OFFCURVE",
"200 116 OFFCURVE",
"200 233 CURVE SMOOTH",
"200 268 OFFCURVE",
"204 307 OFFCURVE",
"213 350 CURVE SMOOTH",
"252 537 OFFCURVE",
"345 654 OFFCURVE",
"476 654 CURVE SMOOTH",
"579 654 OFFCURVE",
"630 584 OFFCURVE",
"630 467 CURVE SMOOTH",
"630 432 OFFCURVE",
"626 393 OFFCURVE",
"617 350 CURVE SMOOTH",
"579 162 OFFCURVE",
"485 47 OFFCURVE",
"351 47 CURVE SMOOTH"
);
},
{
closed = 1;
nodes = (
"613 815 LINE",
"522 937 LINE",
"516 946 OFFCURVE",
"499 971 OFFCURVE",
"469 971 CURVE SMOOTH",
"431 971 OFFCURVE",
"414 940 OFFCURVE",
"414 918 CURVE SMOOTH",
"414 899 OFFCURVE",
"425 884 OFFCURVE",
"446 869 CURVE SMOOTH",
"580 777 LINE"
);
}
);
width = 765;
}
);
leftKerningGroup = O;
note = Ograve;
rightKerningGroup = O;
unicode = 00D2;
},
{
glyphname = Ohookabove;
lastChange = "2015-12-01 12:25:40 +0000";
layers = (
{
layerId = "55173EE3-C87E-4AFC-850A-D9B4D5493314";
name = "Bold Italic";
paths = (
{
closed = 1;
nodes = (
"581 -10 OFFCURVE",
"721 131 OFFCURVE",
"766 350 CURVE SMOOTH",
"774 387 OFFCURVE",
"777 422 OFFCURVE",
"777 455 CURVE SMOOTH",
"777 612 OFFCURVE",
"687 710 OFFCURVE",
"488 710 CURVE SMOOTH",
"249 710 OFFCURVE",
"108 568 OFFCURVE",
"64 350 CURVE SMOOTH",
"56 312 OFFCURVE",
"52 277 OFFCURVE",
"52 244 CURVE SMOOTH",
"52 87 OFFCURVE",
"143 -10 OFFCURVE",
"341 -10 CURVE SMOOTH"
);
},
{
closed = 1;
nodes = (
"250 47 OFFCURVE",
"200 116 OFFCURVE",
"200 233 CURVE SMOOTH",
"200 268 OFFCURVE",
"204 307 OFFCURVE",
"213 350 CURVE SMOOTH",
"252 537 OFFCURVE",
"345 654 OFFCURVE",
"476 654 CURVE SMOOTH",
"579 654 OFFCURVE",
"630 584 OFFCURVE",
"630 467 CURVE SMOOTH",
"630 432 OFFCURVE",
"626 393 OFFCURVE",
"617 350 CURVE SMOOTH",
"579 162 OFFCURVE",
"485 47 OFFCURVE",
"351 47 CURVE SMOOTH"
);
},
{
closed = 1;
nodes = (
"540 801 LINE",
"524 805 OFFCURVE",
"512 811 OFFCURVE",
"516 829 CURVE SMOOTH",
"524 869 OFFCURVE",
"626 880 OFFCURVE",
"637 941 CURVE SMOOTH",
"638 946 OFFCURVE",
"639 951 OFFCURVE",
"639 955 CURVE SMOOTH",
"639 993 OFFCURVE",
"602 1013 OFFCURVE",
"550 1013 CURVE SMOOTH",
"478 1013 OFFCURVE",
"437 980 OFFCURVE",
"437 944 CURVE SMOOTH",
"437 929 OFFCURVE",
"447 922 OFFCURVE",
"461 922 CURVE SMOOTH",
"484 922 OFFCURVE",
"495 942 OFFCURVE",
"499 952 CURVE SMOOTH",
"507 973 OFFCURVE",
"527 979 OFFCURVE",
"543 979 CURVE SMOOTH",
"563 979 OFFCURVE",
"572 963 OFFCURVE",
"568 946 CURVE SMOOTH",
"558 892 OFFCURVE",
"468 881 OFFCURVE",
"459 831 CURVE SMOOTH",
"458 827 OFFCURVE",
"458 824 OFFCURVE",
"458 820 CURVE SMOOTH",
"458 795 OFFCURVE",
"480 777 OFFCURVE",
"525 777 CURVE"
);
}
);
width = 765;
}
);
leftKerningGroup = O;
note = Ohookabove;
rightKerningGroup = O;
unicode = 1ECE;
},
{
glyphname = Ohorn;
lastChange = "2015-12-01 12:27:34 +0000";
layers = (
{
layerId = "55173EE3-C87E-4AFC-850A-D9B4D5493314";
name = "Bold Italic";
paths = (
{
closed = 1;
nodes = (
"581 -10 OFFCURVE",
"721 131 OFFCURVE",
"766 350 CURVE SMOOTH",
"774 387 OFFCURVE",
"777 422 OFFCURVE",
"777 455 CURVE SMOOTH",
"777 612 OFFCURVE",
"687 710 OFFCURVE",
"488 710 CURVE SMOOTH",
"249 710 OFFCURVE",
"108 568 OFFCURVE",
"64 350 CURVE SMOOTH",
"56 312 OFFCURVE",
"52 277 OFFCURVE",
"52 244 CURVE SMOOTH",
"52 87 OFFCURVE",
"143 -10 OFFCURVE",
"341 -10 CURVE SMOOTH"
);
},
{
closed = 1;
nodes = (
"250 47 OFFCURVE",
"200 116 OFFCURVE",
"200 233 CURVE SMOOTH",
"200 268 OFFCURVE",
"204 307 OFFCURVE",
"213 350 CURVE SMOOTH",
"251 537 OFFCURVE",
"345 654 OFFCURVE",
"476 654 CURVE SMOOTH",
"579 654 OFFCURVE",
"630 584 OFFCURVE",
"630 466 CURVE SMOOTH",
"630 431 OFFCURVE",
"626 392 OFFCURVE",
"617 350 CURVE SMOOTH",
"579 162 OFFCURVE",
"485 47 OFFCURVE",
"351 47 CURVE SMOOTH"
);
},
{
closed = 1;
nodes = (
"783 535 OFFCURVE",
"891 612 OFFCURVE",
"910 706 CURVE SMOOTH",
"912 715 OFFCURVE",
"913 724 OFFCURVE",
"913 732 CURVE SMOOTH",
"913 773 OFFCURVE",
"890 794 OFFCURVE",
"857 794 CURVE SMOOTH",
"815 794 OFFCURVE",
"785 761 OFFCURVE",
"785 728 CURVE SMOOTH",
"785 700 OFFCURVE",
"806 685 OFFCURVE",
"806 658 CURVE SMOOTH",
"806 654 OFFCURVE",
"806 650 OFFCURVE",
"805 645 CURVE SMOOTH",
"797 604 OFFCURVE",
"761 573 OFFCURVE",
"711 548 CURVE",
"705 516 LINE"
);
}
);
width = 777;
}
);
leftKerningGroup = O;
note = Ohorn;
rightKerningGroup = O;
unicode = 01A0;
},
{
glyphname = Ohornacute;
lastChange = "2015-12-01 12:27:23 +0000";
layers = (
{
layerId = "55173EE3-C87E-4AFC-850A-D9B4D5493314";
name = "Bold Italic";
paths = (
{
closed = 1;
nodes = (
"581 -10 OFFCURVE",
"721 131 OFFCURVE",
"766 350 CURVE SMOOTH",
"774 387 OFFCURVE",
"777 422 OFFCURVE",
"777 455 CURVE SMOOTH",
"777 612 OFFCURVE",
"687 710 OFFCURVE",
"488 710 CURVE SMOOTH",
"249 710 OFFCURVE",
"108 568 OFFCURVE",
"64 350 CURVE SMOOTH",
"56 312 OFFCURVE",
"52 277 OFFCURVE",
"52 244 CURVE SMOOTH",
"52 87 OFFCURVE",
"143 -10 OFFCURVE",
"341 -10 CURVE SMOOTH"
);
},
{
closed = 1;
nodes = (
"250 47 OFFCURVE",
"200 116 OFFCURVE",
"200 233 CURVE SMOOTH",
"200 268 OFFCURVE",
"204 307 OFFCURVE",
"213 350 CURVE SMOOTH",
"251 537 OFFCURVE",
"345 654 OFFCURVE",
"476 654 CURVE SMOOTH",
"579 654 OFFCURVE",
"630 584 OFFCURVE",
"630 466 CURVE SMOOTH",
"630 431 OFFCURVE",
"626 392 OFFCURVE",
"617 350 CURVE SMOOTH",
"579 162 OFFCURVE",
"485 47 OFFCURVE",
"351 47 CURVE SMOOTH"
);
},
{
closed = 1;
nodes = (
"572 868 LINE SMOOTH",
"609 888 OFFCURVE",
"631 908 OFFCURVE",
"631 935 CURVE SMOOTH",
"631 952 OFFCURVE",
"621 970 OFFCURVE",
"592 970 CURVE SMOOTH",
"562 970 OFFCURVE",
"536 945 OFFCURVE",
"527 937 CURVE SMOOTH",
"385 814 LINE",
"403 776 LINE"
);
},
{
closed = 1;
nodes = (
"783 535 OFFCURVE",
"891 612 OFFCURVE",
"910 706 CURVE SMOOTH",
"912 715 OFFCURVE",
"913 724 OFFCURVE",
"913 732 CURVE SMOOTH",
"913 773 OFFCURVE",
"890 794 OFFCURVE",
"857 794 CURVE SMOOTH",
"815 794 OFFCURVE",
"785 761 OFFCURVE",
"785 728 CURVE SMOOTH",
"785 700 OFFCURVE",
"806 685 OFFCURVE",
"806 658 CURVE SMOOTH",
"806 654 OFFCURVE",
"806 650 OFFCURVE",
"805 645 CURVE SMOOTH",
"797 604 OFFCURVE",
"761 573 OFFCURVE",
"711 548 CURVE",
"705 516 LINE"
);
}
);
width = 777;
}
);
leftKerningGroup = O;
note = Ohornacute;
rightKerningGroup = O;
unicode = 1EDA;
},
{
glyphname = Ohorndotbelow;
lastChange = "2015-12-01 12:27:45 +0000";
layers = (
{
layerId = "55173EE3-C87E-4AFC-850A-D9B4D5493314";
name = "Bold Italic";
paths = (
{
closed = 1;
nodes = (
"581 -10 OFFCURVE",
"721 131 OFFCURVE",
"766 350 CURVE SMOOTH",
"774 387 OFFCURVE",
"777 422 OFFCURVE",
"777 455 CURVE SMOOTH",
"777 612 OFFCURVE",
"687 710 OFFCURVE",
"488 710 CURVE SMOOTH",
"249 710 OFFCURVE",
"108 568 OFFCURVE",
"64 350 CURVE SMOOTH",
"56 312 OFFCURVE",
"52 277 OFFCURVE",
"52 244 CURVE SMOOTH",
"52 87 OFFCURVE",
"143 -10 OFFCURVE",
"341 -10 CURVE SMOOTH"
);
},
{
closed = 1;
nodes = (
"250 47 OFFCURVE",
"200 116 OFFCURVE",
"200 233 CURVE SMOOTH",
"200 268 OFFCURVE",
"204 307 OFFCURVE",
"213 350 CURVE SMOOTH",
"251 537 OFFCURVE",
"345 654 OFFCURVE",
"476 654 CURVE SMOOTH",
"579 654 OFFCURVE",
"630 584 OFFCURVE",
"630 466 CURVE SMOOTH",
"630 431 OFFCURVE",
"626 392 OFFCURVE",
"617 350 CURVE SMOOTH",
"579 162 OFFCURVE",
"485 47 OFFCURVE",
"351 47 CURVE SMOOTH"
);
},
{
closed = 1;
nodes = (
"783 535 OFFCURVE",
"891 612 OFFCURVE",
"910 706 CURVE SMOOTH",
"912 715 OFFCURVE",
"913 724 OFFCURVE",
"913 732 CURVE SMOOTH",
"913 773 OFFCURVE",
"890 794 OFFCURVE",
"857 794 CURVE SMOOTH",
"815 794 OFFCURVE",
"785 761 OFFCURVE",
"785 728 CURVE SMOOTH",
"785 700 OFFCURVE",
"806 685 OFFCURVE",
"806 658 CURVE SMOOTH",
"806 654 OFFCURVE",
"806 650 OFFCURVE",
"805 645 CURVE SMOOTH",
"797 604 OFFCURVE",
"761 573 OFFCURVE",
"711 548 CURVE",
"705 516 LINE"
);
},
{
closed = 1;
nodes = (
"345 -188 OFFCURVE",
"377 -153 OFFCURVE",
"377 -112 CURVE SMOOTH",
"377 -84 OFFCURVE",
"360 -64 OFFCURVE",
"329 -64 CURVE SMOOTH",
"288 -64 OFFCURVE",
"255 -100 OFFCURVE",
"255 -142 CURVE SMOOTH",
"255 -169 OFFCURVE",
"273 -188 OFFCURVE",
"304 -188 CURVE SMOOTH"
);
}
);
width = 777;
}
);
leftKerningGroup = O;
note = Ohorndotbelow;
rightKerningGroup = O;
unicode = 1EE2;
},
{
glyphname = Ohorngrave;
lastChange = "2015-12-01 12:27:23 +0000";
layers = (
{
layerId = "55173EE3-C87E-4AFC-850A-D9B4D5493314";
name = "Bold Italic";
paths = (
{
closed = 1;
nodes = (
"581 -10 OFFCURVE",
"721 131 OFFCURVE",
"766 350 CURVE SMOOTH",
"774 387 OFFCURVE",
"777 422 OFFCURVE",
"777 455 CURVE SMOOTH",
"777 612 OFFCURVE",
"687 710 OFFCURVE",
"488 710 CURVE SMOOTH",
"249 710 OFFCURVE",
"108 568 OFFCURVE",
"64 350 CURVE SMOOTH",
"56 312 OFFCURVE",
"52 277 OFFCURVE",
"52 244 CURVE SMOOTH",
"52 87 OFFCURVE",
"143 -10 OFFCURVE",
"341 -10 CURVE SMOOTH"
);
},
{
closed = 1;
nodes = (
"250 47 OFFCURVE",
"200 116 OFFCURVE",
"200 233 CURVE SMOOTH",
"200 268 OFFCURVE",
"204 307 OFFCURVE",
"213 350 CURVE SMOOTH",
"251 537 OFFCURVE",
"345 654 OFFCURVE",
"476 654 CURVE SMOOTH",
"579 654 OFFCURVE",
"630 584 OFFCURVE",
"630 466 CURVE SMOOTH",
"630 431 OFFCURVE",
"626 392 OFFCURVE",
"617 350 CURVE SMOOTH",
"579 162 OFFCURVE",
"485 47 OFFCURVE",
"351 47 CURVE SMOOTH"
);
},
{
closed = 1;
nodes = (
"622 833 LINE",
"531 955 LINE",
"525 964 OFFCURVE",
"508 989 OFFCURVE",
"478 989 CURVE SMOOTH",
"439 989 OFFCURVE",
"422 958 OFFCURVE",
"422 937 CURVE SMOOTH",
"422 918 OFFCURVE",
"434 902 OFFCURVE",
"455 887 CURVE SMOOTH",
"588 795 LINE"
);
},
{
closed = 1;
nodes = (
"783 535 OFFCURVE",
"891 612 OFFCURVE",
"910 706 CURVE SMOOTH",
"912 715 OFFCURVE",
"913 724 OFFCURVE",
"913 732 CURVE SMOOTH",
"913 773 OFFCURVE",
"890 794 OFFCURVE",
"857 794 CURVE SMOOTH",
"815 794 OFFCURVE",
"785 761 OFFCURVE",
"785 728 CURVE SMOOTH",
"785 700 OFFCURVE",
"806 685 OFFCURVE",
"806 658 CURVE SMOOTH",
"806 654 OFFCURVE",
"806 650 OFFCURVE",
"805 645 CURVE SMOOTH",
"797 604 OFFCURVE",
"761 573 OFFCURVE",
"711 548 CURVE",
"705 516 LINE"
);
}
);
width = 777;
}
);
leftKerningGroup = O;
note = Ohorngrave;
rightKerningGroup = O;
unicode = 1EDC;
},
{
glyphname = Ohornhookabove;
lastChange = "2015-12-01 12:27:23 +0000";
layers = (
{
layerId = "55173EE3-C87E-4AFC-850A-D9B4D5493314";
name = "Bold Italic";
paths = (
{
closed = 1;
nodes = (
"581 -10 OFFCURVE",
"721 131 OFFCURVE",
"766 350 CURVE SMOOTH",
"774 387 OFFCURVE",
"777 422 OFFCURVE",
"777 455 CURVE SMOOTH",
"777 612 OFFCURVE",
"687 710 OFFCURVE",
"488 710 CURVE SMOOTH",
"249 710 OFFCURVE",
"108 568 OFFCURVE",
"64 350 CURVE SMOOTH",
"56 312 OFFCURVE",
"52 277 OFFCURVE",
"52 244 CURVE SMOOTH",
"52 87 OFFCURVE",
"143 -10 OFFCURVE",
"341 -10 CURVE SMOOTH"
);
},
{
closed = 1;
nodes = (
"250 47 OFFCURVE",
"200 116 OFFCURVE",
"200 233 CURVE SMOOTH",
"200 268 OFFCURVE",
"204 307 OFFCURVE",
"213 350 CURVE SMOOTH",
"251 537 OFFCURVE",
"345 654 OFFCURVE",
"476 654 CURVE SMOOTH",
"579 654 OFFCURVE",
"630 584 OFFCURVE",
"630 466 CURVE SMOOTH",
"630 431 OFFCURVE",
"626 392 OFFCURVE",
"617 350 CURVE SMOOTH",
"579 162 OFFCURVE",
"485 47 OFFCURVE",
"351 47 CURVE SMOOTH"
);
},
{
closed = 1;
nodes = (
"545 820 LINE",
"532 824 OFFCURVE",
"520 829 OFFCURVE",
"520 842 CURVE SMOOTH",
"520 887 OFFCURVE",
"631 896 OFFCURVE",
"643 960 CURVE SMOOTH",
"644 965 OFFCURVE",
"645 969 OFFCURVE",
"645 974 CURVE SMOOTH",
"645 1012 OFFCURVE",
"607 1032 OFFCURVE",
"556 1032 CURVE SMOOTH",
"484 1032 OFFCURVE",
"442 1000 OFFCURVE",
"442 964 CURVE SMOOTH",
"442 948 OFFCURVE",
"452 941 OFFCURVE",
"466 941 CURVE SMOOTH",
"489 941 OFFCURVE",
"501 961 OFFCURVE",
"505 971 CURVE SMOOTH",
"513 992 OFFCURVE",
"533 998 OFFCURVE",
"549 998 CURVE SMOOTH",
"568 998 OFFCURVE",
"578 982 OFFCURVE",
"574 965 CURVE SMOOTH",
"563 911 OFFCURVE",
"474 900 OFFCURVE",
"465 850 CURVE SMOOTH",
"464 846 OFFCURVE",
"464 843 OFFCURVE",
"464 839 CURVE SMOOTH",
"464 814 OFFCURVE",
"486 796 OFFCURVE",
"531 796 CURVE"
);
},
{
closed = 1;
nodes = (
"783 535 OFFCURVE",
"891 612 OFFCURVE",
"910 706 CURVE SMOOTH",
"912 715 OFFCURVE",
"913 724 OFFCURVE",
"913 732 CURVE SMOOTH",
"913 773 OFFCURVE",
"890 794 OFFCURVE",
"857 794 CURVE SMOOTH",
"815 794 OFFCURVE",
"785 761 OFFCURVE",
"785 728 CURVE SMOOTH",
"785 700 OFFCURVE",
"806 685 OFFCURVE",
"806 658 CURVE SMOOTH",
"806 654 OFFCURVE",
"806 650 OFFCURVE",
"805 645 CURVE SMOOTH",
"797 604 OFFCURVE",
"761 573 OFFCURVE",
"711 548 CURVE",
"705 516 LINE"
);
}
);
width = 777;
}
);
leftKerningGroup = O;
note = Ohornhookabove;
rightKerningGroup = O;
unicode = 1EDE;
},
{
glyphname = Ohorntilde;
lastChange = "2015-12-01 12:27:23 +0000";
layers = (
{
layerId = "55173EE3-C87E-4AFC-850A-D9B4D5493314";
name = "Bold Italic";
paths = (
{
closed = 1;
nodes = (
"581 -10 OFFCURVE",
"721 131 OFFCURVE",
"766 350 CURVE SMOOTH",
"774 387 OFFCURVE",
"777 422 OFFCURVE",
"777 455 CURVE SMOOTH",
"777 612 OFFCURVE",
"687 710 OFFCURVE",
"488 710 CURVE SMOOTH",
"249 710 OFFCURVE",
"108 568 OFFCURVE",
"64 350 CURVE SMOOTH",
"56 312 OFFCURVE",
"52 277 OFFCURVE",
"52 244 CURVE SMOOTH",
"52 87 OFFCURVE",
"143 -10 OFFCURVE",
"341 -10 CURVE SMOOTH"
);
},
{
closed = 1;
nodes = (
"250 47 OFFCURVE",
"200 116 OFFCURVE",
"200 233 CURVE SMOOTH",
"200 268 OFFCURVE",
"204 307 OFFCURVE",
"213 350 CURVE SMOOTH",
"251 537 OFFCURVE",
"345 654 OFFCURVE",
"476 654 CURVE SMOOTH",
"579 654 OFFCURVE",
"630 584 OFFCURVE",
"630 466 CURVE SMOOTH",
"630 431 OFFCURVE",
"626 392 OFFCURVE",
"617 350 CURVE SMOOTH",
"579 162 OFFCURVE",
"485 47 OFFCURVE",
"351 47 CURVE SMOOTH"
);
},
{
closed = 1;
nodes = (
"369 833 OFFCURVE",
"389 852 OFFCURVE",
"423 852 CURVE SMOOTH",
"480 852 OFFCURVE",
"521 803 OFFCURVE",
"577 803 CURVE SMOOTH",
"645 803 OFFCURVE",
"689 868 OFFCURVE",
"714 916 CURVE",
"690 931 LINE",
"664 891 OFFCURVE",
"646 872 OFFCURVE",
"610 872 CURVE SMOOTH",
"555 872 OFFCURVE",
"512 920 OFFCURVE",
"456 920 CURVE SMOOTH",
"390 920 OFFCURVE",
"344 857 OFFCURVE",
"318 809 CURVE",
"342 794 LINE"
);
},
{
closed = 1;
nodes = (
"783 535 OFFCURVE",
"891 612 OFFCURVE",
"910 706 CURVE SMOOTH",
"912 715 OFFCURVE",
"913 724 OFFCURVE",
"913 732 CURVE SMOOTH",
"913 773 OFFCURVE",
"890 794 OFFCURVE",
"857 794 CURVE SMOOTH",
"815 794 OFFCURVE",
"785 761 OFFCURVE",
"785 728 CURVE SMOOTH",
"785 700 OFFCURVE",
"806 685 OFFCURVE",
"806 658 CURVE SMOOTH",
"806 654 OFFCURVE",
"806 650 OFFCURVE",
"805 645 CURVE SMOOTH",
"797 604 OFFCURVE",
"761 573 OFFCURVE",
"711 548 CURVE",
"705 516 LINE"
);
}
);
width = 777;
}
);
leftKerningGroup = O;
note = Ohorntilde;
rightKerningGroup = O;
unicode = 1EE0;
},
{
glyphname = Ohungarumlaut;
lastChange = "2015-12-01 12:25:39 +0000";
layers = (
{
layerId = "55173EE3-C87E-4AFC-850A-D9B4D5493314";
name = "Bold Italic";
paths = (
{
closed = 1;
nodes = (
"581 -10 OFFCURVE",
"721 131 OFFCURVE",
"766 350 CURVE SMOOTH",
"774 387 OFFCURVE",
"777 422 OFFCURVE",
"777 455 CURVE SMOOTH",
"777 612 OFFCURVE",
"687 710 OFFCURVE",
"488 710 CURVE SMOOTH",
"249 710 OFFCURVE",
"108 568 OFFCURVE",
"64 350 CURVE SMOOTH",
"56 312 OFFCURVE",
"52 277 OFFCURVE",
"52 244 CURVE SMOOTH",
"52 87 OFFCURVE",
"143 -10 OFFCURVE",
"341 -10 CURVE SMOOTH"
);
},
{
closed = 1;
nodes = (
"250 47 OFFCURVE",
"200 116 OFFCURVE",
"200 233 CURVE SMOOTH",
"200 268 OFFCURVE",
"204 307 OFFCURVE",
"213 350 CURVE SMOOTH",
"252 537 OFFCURVE",
"345 654 OFFCURVE",
"476 654 CURVE SMOOTH",
"579 654 OFFCURVE",
"630 584 OFFCURVE",
"630 467 CURVE SMOOTH",
"630 432 OFFCURVE",
"626 393 OFFCURVE",
"617 350 CURVE SMOOTH",
"579 162 OFFCURVE",
"485 47 OFFCURVE",
"351 47 CURVE SMOOTH"
);
},
{
closed = 1;
nodes = (
"529 868 LINE SMOOTH",
"565 888 OFFCURVE",
"588 909 OFFCURVE",
"588 935 CURVE SMOOTH",
"588 952 OFFCURVE",
"578 970 OFFCURVE",
"549 970 CURVE SMOOTH",
"520 970 OFFCURVE",
"490 943 OFFCURVE",
"482 937 CURVE",
"343 814 LINE",
"361 776 LINE"
);
},
{
closed = 1;
nodes = (
"716 868 LINE SMOOTH",
"753 888 OFFCURVE",
"775 910 OFFCURVE",
"775 937 CURVE SMOOTH",
"775 954 OFFCURVE",
"765 970 OFFCURVE",
"737 970 CURVE SMOOTH",
"707 970 OFFCURVE",
"676 943 OFFCURVE",
"669 937 CURVE SMOOTH",
"529 814 LINE",
"546 776 LINE"
);
}
);
width = 765;
}
);
leftKerningGroup = O;
note = Ohungarumlaut;
rightKerningGroup = O;
unicode = 0150;
},
{
glyphname = Omacron;
lastChange = "2015-12-01 12:25:39 +0000";
layers = (
{
layerId = "55173EE3-C87E-4AFC-850A-D9B4D5493314";
name = "Bold Italic";
paths = (
{
closed = 1;
nodes = (
"581 -10 OFFCURVE",
"721 131 OFFCURVE",
"766 350 CURVE SMOOTH",
"774 387 OFFCURVE",
"777 422 OFFCURVE",
"777 455 CURVE SMOOTH",
"777 612 OFFCURVE",
"687 710 OFFCURVE",
"488 710 CURVE SMOOTH",
"249 710 OFFCURVE",
"108 568 OFFCURVE",
"64 350 CURVE SMOOTH",
"56 312 OFFCURVE",
"52 277 OFFCURVE",
"52 244 CURVE SMOOTH",
"52 87 OFFCURVE",
"143 -10 OFFCURVE",
"341 -10 CURVE SMOOTH"
);
},
{
closed = 1;
nodes = (
"250 47 OFFCURVE",
"200 116 OFFCURVE",
"200 233 CURVE SMOOTH",
"200 268 OFFCURVE",
"204 307 OFFCURVE",
"213 350 CURVE SMOOTH",
"252 537 OFFCURVE",
"345 654 OFFCURVE",
"476 654 CURVE SMOOTH",
"579 654 OFFCURVE",
"630 584 OFFCURVE",
"630 467 CURVE SMOOTH",
"630 432 OFFCURVE",
"626 393 OFFCURVE",
"617 350 CURVE SMOOTH",
"579 162 OFFCURVE",
"485 47 OFFCURVE",
"351 47 CURVE SMOOTH"
);
},
{
closed = 1;
nodes = (
"684 783 LINE",
"696 842 LINE",
"331 842 LINE",
"320 783 LINE"
);
}
);
width = 765;
}
);
leftKerningGroup = O;
note = Omacron;
rightKerningGroup = O;
unicode = 014C;
},
{
glyphname = Oslash;
lastChange = "2015-12-01 12:27:51 +0000";
layers = (
{
layerId = "55173EE3-C87E-4AFC-850A-D9B4D5493314";
name = "Bold Italic";
paths = (
{
closed = 1;
nodes = (
"581 -10 OFFCURVE",
"721 131 OFFCURVE",
"766 350 CURVE SMOOTH",
"774 387 OFFCURVE",
"777 422 OFFCURVE",
"777 455 CURVE SMOOTH",
"777 612 OFFCURVE",
"687 710 OFFCURVE",
"488 710 CURVE SMOOTH",
"249 710 OFFCURVE",
"108 568 OFFCURVE",
"64 350 CURVE SMOOTH",
"56 312 OFFCURVE",
"52 277 OFFCURVE",
"52 244 CURVE SMOOTH",
"52 87 OFFCURVE",
"143 -10 OFFCURVE",
"341 -10 CURVE SMOOTH"
);
},
{
closed = 1;
nodes = (
"250 47 OFFCURVE",
"200 116 OFFCURVE",
"200 233 CURVE SMOOTH",
"200 268 OFFCURVE",
"204 307 OFFCURVE",
"213 350 CURVE SMOOTH",
"252 537 OFFCURVE",
"345 654 OFFCURVE",
"476 654 CURVE SMOOTH",
"579 654 OFFCURVE",
"630 584 OFFCURVE",
"630 467 CURVE SMOOTH",
"630 432 OFFCURVE",
"626 393 OFFCURVE",
"617 350 CURVE SMOOTH",
"579 162 OFFCURVE",
"485 47 OFFCURVE",
"351 47 CURVE SMOOTH"
);
},
{
closed = 1;
nodes = (
"777 691 LINE",
"738 727 LINE",
"9 4 LINE",
"46 -31 LINE"
);
}
);
width = 765;
}
);
leftKerningGroup = O;
note = Oslash;
rightKerningGroup = O;
unicode = 00D8;
},
{
glyphname = Oslashacute;
lastChange = "2015-12-01 12:27:53 +0000";
layers = (
{
layerId = "55173EE3-C87E-4AFC-850A-D9B4D5493314";
name = "Bold Italic";
paths = (
{
closed = 1;
nodes = (
"581 -10 OFFCURVE",
"721 131 OFFCURVE",
"766 350 CURVE SMOOTH",
"774 387 OFFCURVE",
"777 422 OFFCURVE",
"777 455 CURVE SMOOTH",
"777 612 OFFCURVE",
"687 710 OFFCURVE",
"488 710 CURVE SMOOTH",
"249 710 OFFCURVE",
"108 568 OFFCURVE",
"64 350 CURVE SMOOTH",
"56 312 OFFCURVE",
"52 277 OFFCURVE",
"52 244 CURVE SMOOTH",
"52 87 OFFCURVE",
"143 -10 OFFCURVE",
"341 -10 CURVE SMOOTH"
);
},
{
closed = 1;
nodes = (
"250 47 OFFCURVE",
"200 116 OFFCURVE",
"200 233 CURVE SMOOTH",
"200 268 OFFCURVE",
"204 307 OFFCURVE",
"213 350 CURVE SMOOTH",
"252 537 OFFCURVE",
"345 654 OFFCURVE",
"476 654 CURVE SMOOTH",
"579 654 OFFCURVE",
"630 584 OFFCURVE",
"630 467 CURVE SMOOTH",
"630 432 OFFCURVE",
"626 393 OFFCURVE",
"617 350 CURVE SMOOTH",
"579 162 OFFCURVE",
"485 47 OFFCURVE",
"351 47 CURVE SMOOTH"
);
},
{
closed = 1;
nodes = (
"588 869 LINE SMOOTH",
"625 889 OFFCURVE",
"647 909 OFFCURVE",
"647 937 CURVE SMOOTH",
"647 954 OFFCURVE",
"636 971 OFFCURVE",
"609 971 CURVE SMOOTH",
"579 971 OFFCURVE",
"552 946 OFFCURVE",
"543 938 CURVE SMOOTH",
"401 815 LINE",
"420 777 LINE"
);
},
{
closed = 1;
nodes = (
"777 691 LINE",
"738 727 LINE",
"9 4 LINE",
"46 -31 LINE"
);
}
);
width = 765;
}
);
leftKerningGroup = O;
note = Oslashacute;
rightKerningGroup = O;
unicode = 01FE;
},
{
glyphname = Otilde;
lastChange = "2015-12-01 12:25:39 +0000";
layers = (
{
layerId = "55173EE3-C87E-4AFC-850A-D9B4D5493314";
name = "Bold Italic";
paths = (
{
closed = 1;
nodes = (
"581 -10 OFFCURVE",
"721 131 OFFCURVE",
"766 350 CURVE SMOOTH",
"774 387 OFFCURVE",
"777 422 OFFCURVE",
"777 455 CURVE SMOOTH",
"777 612 OFFCURVE",
"687 710 OFFCURVE",
"488 710 CURVE SMOOTH",
"249 710 OFFCURVE",
"108 568 OFFCURVE",
"64 350 CURVE SMOOTH",
"56 312 OFFCURVE",
"52 277 OFFCURVE",
"52 244 CURVE SMOOTH",
"52 87 OFFCURVE",
"143 -10 OFFCURVE",
"341 -10 CURVE SMOOTH"
);
},
{
closed = 1;
nodes = (
"250 47 OFFCURVE",
"200 116 OFFCURVE",
"200 233 CURVE SMOOTH",
"200 268 OFFCURVE",
"204 307 OFFCURVE",
"213 350 CURVE SMOOTH",
"252 537 OFFCURVE",
"345 654 OFFCURVE",
"476 654 CURVE SMOOTH",
"579 654 OFFCURVE",
"630 584 OFFCURVE",
"630 467 CURVE SMOOTH",
"630 432 OFFCURVE",
"626 393 OFFCURVE",
"617 350 CURVE SMOOTH",
"579 162 OFFCURVE",
"485 47 OFFCURVE",
"351 47 CURVE SMOOTH"
);
},
{
closed = 1;
nodes = (
"361 814 OFFCURVE",
"381 833 OFFCURVE",
"416 833 CURVE SMOOTH",
"472 833 OFFCURVE",
"514 784 OFFCURVE",
"569 784 CURVE SMOOTH",
"637 784 OFFCURVE",
"682 849 OFFCURVE",
"707 897 CURVE",
"683 912 LINE",
"657 872 OFFCURVE",
"638 853 OFFCURVE",
"603 853 CURVE SMOOTH",
"547 853 OFFCURVE",
"504 901 OFFCURVE",
"448 901 CURVE SMOOTH",
"382 901 OFFCURVE",
"336 838 OFFCURVE",
"310 790 CURVE",
"334 775 LINE"
);
}
);
width = 765;
}
);
leftKerningGroup = O;
note = Otilde;
rightKerningGroup = O;
unicode = 00D5;
},
{
glyphname = OE;
lastChange = "2015-12-01 12:25:40 +0000";
layers = (
{
layerId = "55173EE3-C87E-4AFC-850A-D9B4D5493314";
name = "Bold Italic";
paths = (
{
closed = 1;
nodes = (
"444 -10 OFFCURVE",
"535 44 OFFCURVE",
"597 123 CURVE",
"553 174 LINE",
"505 91 OFFCURVE",
"437 45 OFFCURVE",
"356 45 CURVE SMOOTH",
"254 45 OFFCURVE",
"202 116 OFFCURVE",
"202 235 CURVE SMOOTH",
"202 270 OFFCURVE",
"207 308 OFFCURVE",
"215 350 CURVE SMOOTH",
"253 537 OFFCURVE",
"348 654 OFFCURVE",
"481 654 CURVE SMOOTH",
"562 654 OFFCURVE",
"611 608 OFFCURVE",
"625 526 CURVE",
"687 578 LINE",
"659 656 OFFCURVE",
"590 710 OFFCURVE",
"475 710 CURVE SMOOTH",
"253 710 OFFCURVE",
"110 568 OFFCURVE",
"66 350 CURVE SMOOTH",
"58 312 OFFCURVE",
"54 277 OFFCURVE",
"54 245 CURVE SMOOTH",
"54 87 OFFCURVE",
"145 -10 OFFCURVE",
"328 -10 CURVE SMOOTH"
);
},
{
closed = 1;
nodes = (
"971 0 LINE",
"1027 191 LINE",
"991 191 LINE",
"969 126 OFFCURVE",
"935 54 OFFCURVE",
"869 54 CURVE SMOOTH",
"660 54 LINE",
"780 645 LINE",
"969 645 LINE SMOOTH",
"1029 645 OFFCURVE",
"1041 594 OFFCURVE",
"1041 552 CURVE SMOOTH",
"1041 536 OFFCURVE",
"1039 521 OFFCURVE",
"1038 511 CURVE",
"1074 511 LINE",
"1113 700 LINE",
"644 700 LINE",
"502 0 LINE"
);
},
{
closed = 1;
nodes = (
"938 245 LINE",
"986 484 LINE",
"956 484 LINE",
"944 438 OFFCURVE",
"929 392 OFFCURVE",
"886 392 CURVE SMOOTH",
"694 392 LINE",
"683 337 LINE",
"875 337 LINE SMOOTH",
"904 337 OFFCURVE",
"911 316 OFFCURVE",
"911 288 CURVE SMOOTH",
"911 275 OFFCURVE",
"910 260 OFFCURVE",
"908 245 CURVE"
);
}
);
width = 1059;
}
);
leftKerningGroup = O;
note = OE;
rightKerningGroup = E;
unicode = 0152;
},
